<svg width="16" height="13" viewBox="0 0 16 13" fill="none" xmlns="http://www.w3.org/2000/svg">
<path d="M2.52632 0H13.4737C14.1437 0 14.7863 0.269714 15.2601 0.749807C15.7338 1.2299 16 1.88105 16 2.56V10.24C16 10.919 15.7338 11.5701 15.2601 12.0502C14.7863 12.5303 14.1437 12.8 13.4737 12.8H2.52632C1.8563 12.8 1.21372 12.5303 0.739941 12.0502C0.266165 11.5701 0 10.919 0 10.24V2.56C0 1.88105 0.266165 1.2299 0.739941 0.749807C1.21372 0.269714 1.8563 0 2.52632 0ZM2.52632 0.853333C2.11537 0.853333 1.73811 1.00267 1.44589 1.25099L8 5.56373L14.5541 1.25099C14.2514 0.993633 13.8688 0.852808 13.4737 0.853333H2.52632ZM8 6.58091L0.954947 1.9456C0.880241 2.14159 0.841983 2.3499 0.842105 2.56V10.24C0.842105 10.6926 1.01955 11.1267 1.3354 11.4468C1.65125 11.7669 2.07964 11.9467 2.52632 11.9467H13.4737C13.9204 11.9467 14.3488 11.7669 14.6646 11.4468C14.9805 11.1267 15.1579 10.6926 15.1579 10.24V2.56C15.1579 2.34325 15.1183 2.13589 15.0451 1.9456L8 6.58005V6.58091Z" fill="#5F5F5F"/>
</svg>
