<svg width="104" height="30" viewBox="0 0 104 30" fill="none" xmlns="http://www.w3.org/2000/svg">
<path d="M5.2124 5.90186C5.2124 5.66585 5.19206 5.49495 5.15137 5.38916C5.11882 5.28337 5.10254 5.18571 5.10254 5.09619C5.10254 4.97412 5.16764 4.8724 5.29785 4.79102C5.42806 4.70964 5.58268 4.66895 5.76172 4.66895C6.17676 4.66895 6.51042 4.77881 6.7627 4.99854C7.02311 5.21012 7.15332 5.47054 7.15332 5.77979V13.9463C7.43815 13.9137 7.7596 13.8324 8.11768 13.7021C8.48389 13.5719 8.85824 13.3929 9.24072 13.165C9.62321 12.929 9.99349 12.6401 10.3516 12.2983C10.7178 11.9565 11.0433 11.5578 11.3281 11.1021C11.613 10.6463 11.8408 10.1336 12.0117 9.56396C12.1908 8.98617 12.2803 8.34733 12.2803 7.64746C12.2803 7.17546 12.203 6.68717 12.0483 6.18262C11.9019 5.67806 11.6659 5.21826 11.3403 4.80322C11.0148 4.38818 10.5916 4.04639 10.0708 3.77783C9.55811 3.50928 8.93555 3.375 8.20312 3.375C7.20215 3.375 6.34359 3.52962 5.62744 3.83887C4.9113 4.14811 4.32536 4.56315 3.86963 5.08398C3.42204 5.60482 3.09245 6.2111 2.88086 6.90283C2.66927 7.58643 2.56348 8.31071 2.56348 9.07568C2.56348 9.62907 2.60824 10.097 2.69775 10.4795C2.79541 10.8538 2.9012 11.1631 3.01514 11.4072C3.12907 11.6432 3.23486 11.8182 3.33252 11.9321C3.43018 12.0461 3.48714 12.1112 3.50342 12.1274C3.64176 12.0868 3.73942 12.103 3.79639 12.1763C3.85335 12.2495 3.88184 12.3472 3.88184 12.4692C3.88184 12.5832 3.84115 12.7541 3.75977 12.9819C3.68652 13.2098 3.5848 13.4255 3.45459 13.6289C3.32438 13.8242 3.17383 13.9748 3.00293 14.0806C2.83203 14.1782 2.65706 14.1579 2.47803 14.0195C2.38037 13.93 2.22982 13.7673 2.02637 13.5312C1.82292 13.2952 1.61947 12.9819 1.41602 12.5913C1.2207 12.1925 1.04574 11.7165 0.891113 11.1631C0.736491 10.6016 0.65918 9.95459 0.65918 9.22217C0.65918 8.05029 0.842285 6.99235 1.2085 6.04834C1.57471 5.09619 2.0874 4.28239 2.74658 3.60693C3.4139 2.93148 4.20736 2.41064 5.12695 2.04443C6.04655 1.67822 7.0638 1.49512 8.17871 1.49512C9.09017 1.49512 9.91618 1.64567 10.6567 1.94678C11.4054 2.24788 12.0402 2.67106 12.561 3.21631C13.09 3.75342 13.4969 4.39632 13.7817 5.14502C14.0666 5.89372 14.209 6.71159 14.209 7.59863C14.209 8.68913 14.0137 9.69824 13.623 10.626C13.2324 11.5456 12.7116 12.3634 12.0605 13.0796C11.4095 13.7957 10.6567 14.3898 9.80225 14.8618C8.95589 15.3338 8.07292 15.6553 7.15332 15.8262V19.1221C7.15332 19.3337 7.08415 19.4801 6.9458 19.5615C6.80745 19.651 6.64469 19.6958 6.45752 19.6958C6.31104 19.6958 6.16455 19.6755 6.01807 19.6348C5.87158 19.5941 5.7373 19.5412 5.61523 19.4761C5.5013 19.411 5.40365 19.3337 5.32227 19.2441C5.24902 19.1628 5.2124 19.0732 5.2124 18.9756V5.90186ZM20.7764 11.7246C20.7764 12.1885 20.695 12.6646 20.5322 13.1528C20.3776 13.6411 20.1416 14.105 19.8242 14.5444C19.515 14.9757 19.1284 15.3664 18.6646 15.7163C18.2088 16.0581 17.6799 16.3185 17.0776 16.4976C17.159 16.7091 17.2648 16.9126 17.395 17.1079C17.5334 17.2951 17.6961 17.4578 17.8833 17.5962C18.0705 17.7345 18.2861 17.8444 18.5303 17.9258C18.7826 18.0072 19.0715 18.0479 19.397 18.0479C19.8853 18.0479 20.3044 17.9583 20.6543 17.7793C21.0042 17.5921 21.2972 17.348 21.5332 17.0469C21.7773 16.7458 21.9727 16.408 22.1191 16.0337C22.2656 15.6593 22.3755 15.2809 22.4487 14.8984C22.5057 14.6217 22.6196 14.4386 22.7905 14.3491C22.9696 14.2515 23.1486 14.2271 23.3276 14.2759C23.5148 14.3247 23.6735 14.4305 23.8037 14.5933C23.9421 14.7479 23.999 14.9351 23.9746 15.1548C23.9421 15.4071 23.8851 15.696 23.8037 16.0215C23.7305 16.347 23.6165 16.6766 23.4619 17.0103C23.3073 17.3439 23.1079 17.6735 22.8638 17.999C22.6278 18.3164 22.3348 18.6012 21.9849 18.8535C21.6349 19.1058 21.224 19.3092 20.752 19.4639C20.2799 19.6185 19.7388 19.6958 19.1284 19.6958C18.5588 19.6958 18.0054 19.5819 17.4683 19.354C16.9393 19.1343 16.4673 18.8169 16.0522 18.4019C15.6453 17.9787 15.3158 17.4619 15.0635 16.8516C14.8193 16.2331 14.6973 15.5332 14.6973 14.752C14.6973 13.9626 14.8071 13.2301 15.0269 12.5547C15.2466 11.8711 15.5355 11.2811 15.8936 10.7847C16.2516 10.2882 16.6585 9.90169 17.1143 9.625C17.57 9.34017 18.0379 9.19775 18.5181 9.19775C18.868 9.19775 19.1813 9.25879 19.458 9.38086C19.7428 9.50293 19.9829 9.6779 20.1782 9.90576C20.3735 10.1255 20.52 10.39 20.6177 10.6992C20.7235 11.0085 20.7764 11.3503 20.7764 11.7246ZM16.748 14.6787C16.748 14.752 16.7521 14.8252 16.7603 14.8984C16.7684 14.9717 16.7725 15.049 16.7725 15.1304C17.0817 14.9839 17.3625 14.7967 17.6147 14.5688C17.867 14.341 18.0827 14.0806 18.2617 13.7876C18.4408 13.4946 18.5791 13.1772 18.6768 12.8354C18.7744 12.4855 18.8232 12.1234 18.8232 11.749C18.8232 11.4723 18.7744 11.2567 18.6768 11.1021C18.5872 10.9474 18.4611 10.8701 18.2983 10.8701C18.0949 10.8701 17.9118 10.9393 17.749 11.0776C17.5944 11.216 17.4561 11.3991 17.334 11.627C17.2201 11.8467 17.1224 12.099 17.041 12.3838C16.9678 12.6605 16.9067 12.9412 16.8579 13.2261C16.8091 13.5109 16.7765 13.7835 16.7603 14.0439C16.744 14.2962 16.7399 14.5078 16.748 14.6787ZM20.1904 7.24463C20.3776 7.2609 20.5851 7.27311 20.813 7.28125C21.0083 7.29753 21.2443 7.30973 21.521 7.31787C21.7977 7.31787 22.1069 7.32194 22.4487 7.33008V3.09424C22.4487 2.9152 22.4325 2.77279 22.3999 2.66699C22.3755 2.5612 22.347 2.47982 22.3145 2.42285C22.29 2.35775 22.2616 2.30892 22.229 2.27637C22.2046 2.23568 22.1924 2.19499 22.1924 2.1543C22.1924 2.10547 22.2168 2.06478 22.2656 2.03223C22.3145 1.99967 22.3796 1.97119 22.4609 1.94678C22.5423 1.92236 22.6278 1.90609 22.7173 1.89795C22.8149 1.88167 22.9085 1.87354 22.998 1.87354C23.4131 1.87354 23.7386 1.9834 23.9746 2.20312C24.2188 2.41471 24.3408 2.67106 24.3408 2.97217V7.35449C25.1058 7.35449 25.9115 7.34635 26.7578 7.33008C27.6123 7.3138 28.4668 7.28532 29.3213 7.24463C29.4352 7.12256 29.5247 7.0778 29.5898 7.11035C29.6631 7.1429 29.7078 7.22021 29.7241 7.34229C29.7485 7.46436 29.7526 7.61491 29.7363 7.79395C29.7201 7.97298 29.6875 8.14795 29.6387 8.31885C29.5898 8.48161 29.5207 8.62402 29.4312 8.74609C29.3498 8.86816 29.2562 8.9292 29.1504 8.9292C28.1494 8.95361 27.2624 8.96989 26.4893 8.97803C25.7243 8.97803 25.0081 8.97803 24.3408 8.97803V16.9004C24.3408 17.3073 24.4181 17.6003 24.5728 17.7793C24.7274 17.9583 24.9349 18.0479 25.1953 18.0479C25.4476 18.0479 25.6632 17.9583 25.8423 17.7793C26.0295 17.6003 26.1882 17.3765 26.3184 17.1079C26.4567 16.8394 26.5666 16.5505 26.6479 16.2412C26.7375 15.9238 26.8107 15.6268 26.8677 15.3501C26.9165 15.0897 26.9979 14.9025 27.1118 14.7886C27.2257 14.6665 27.3438 14.6055 27.4658 14.6055C27.5635 14.6055 27.6652 14.638 27.771 14.7031C27.8768 14.7601 27.9704 14.8374 28.0518 14.9351C28.1413 15.0327 28.2104 15.1426 28.2593 15.2646C28.3162 15.3867 28.3447 15.5088 28.3447 15.6309C28.3447 15.6471 28.3447 15.6675 28.3447 15.6919C28.3447 15.7163 28.3366 15.7529 28.3203 15.8018C28.2145 16.2168 28.068 16.6522 27.8809 17.1079C27.7018 17.5636 27.4658 17.9827 27.1729 18.3652C26.888 18.7477 26.5462 19.0651 26.1475 19.3174C25.7487 19.5697 25.2808 19.6958 24.7437 19.6958C24.41 19.6958 24.1007 19.6429 23.8159 19.5371C23.5392 19.4395 23.2992 19.2767 23.0957 19.0488C22.8923 18.8291 22.7336 18.5443 22.6196 18.1943C22.5057 17.8444 22.4487 17.4212 22.4487 16.9248V8.97803C22.172 8.97803 21.9238 8.97803 21.7041 8.97803C21.4925 8.96989 21.3135 8.96175 21.167 8.95361C20.9961 8.94548 20.8455 8.93734 20.7153 8.9292C20.52 8.9292 20.3491 8.84375 20.2026 8.67285C20.048 8.49382 19.9422 8.2985 19.8853 8.08691C19.8201 7.87533 19.812 7.68408 19.8608 7.51318C19.9015 7.33415 20.0114 7.24463 20.1904 7.24463ZM44.8975 18.5239C44.9951 18.589 45.0155 18.6867 44.9585 18.8169C44.9015 18.9471 44.7957 19.0773 44.6411 19.2075C44.4865 19.3459 44.3034 19.4639 44.0918 19.5615C43.8802 19.6592 43.6686 19.7039 43.457 19.6958C43.2536 19.6877 43.0542 19.6266 42.8589 19.5127C42.6636 19.3988 42.4886 19.2238 42.334 18.9878C42.1875 18.7437 42.0654 18.4425 41.9678 18.0845C41.8783 17.7264 41.8335 17.2992 41.8335 16.8027V5.23047C41.8335 4.75846 41.7847 4.39225 41.687 4.13184C41.5975 3.87142 41.4876 3.68424 41.3574 3.57031C41.2354 3.44824 41.1051 3.37907 40.9668 3.36279C40.8366 3.33838 40.7308 3.32617 40.6494 3.32617C40.5599 3.32617 40.446 3.33838 40.3076 3.36279C40.1693 3.38721 40.035 3.46859 39.9048 3.60693C39.7827 3.73714 39.6769 3.94873 39.5874 4.2417C39.4979 4.52653 39.4531 4.9375 39.4531 5.47461V18.9756C39.4775 18.9756 39.502 18.9878 39.5264 19.0122C39.5589 19.0448 39.5752 19.0732 39.5752 19.0977C39.5752 19.1628 39.5264 19.2279 39.4287 19.293C39.3392 19.3662 39.2253 19.4313 39.0869 19.4883C38.9486 19.5534 38.7899 19.6022 38.6108 19.6348C38.4399 19.6755 38.2772 19.6958 38.1226 19.6958C37.9598 19.6958 37.8133 19.6755 37.6831 19.6348C37.561 19.5941 37.5 19.4557 37.5 19.2197V5.23047C37.5 4.75846 37.4552 4.39225 37.3657 4.13184C37.2843 3.87142 37.1826 3.68424 37.0605 3.57031C36.9385 3.44824 36.8083 3.37907 36.6699 3.36279C36.5397 3.33838 36.4258 3.32617 36.3281 3.32617C36.2467 3.32617 36.1369 3.33838 35.9985 3.36279C35.8683 3.37907 35.7381 3.44824 35.6079 3.57031C35.4777 3.68424 35.3638 3.87142 35.2661 4.13184C35.1766 4.39225 35.1318 4.75846 35.1318 5.23047V16.3022C35.1318 17.409 34.9487 18.2513 34.5825 18.8291C34.2163 19.4069 33.6833 19.6958 32.9834 19.6958C32.7474 19.6958 32.5521 19.6551 32.3975 19.5737C32.251 19.4924 32.133 19.3906 32.0435 19.2686C31.9539 19.1465 31.8888 19.0163 31.8481 18.8779C31.8156 18.7396 31.7993 18.6134 31.7993 18.4995C31.7993 18.4425 31.8156 18.4059 31.8481 18.3896C31.8888 18.3734 31.9417 18.3652 32.0068 18.3652C32.0719 18.3652 32.1452 18.3652 32.2266 18.3652C32.3079 18.3571 32.3934 18.3368 32.4829 18.3042C32.5643 18.2716 32.6457 18.2065 32.7271 18.1089C32.8166 18.0112 32.8939 17.8688 32.959 17.6816C33.0241 17.4945 33.077 17.2585 33.1177 16.9736C33.1584 16.6888 33.1787 16.3389 33.1787 15.9238V5.47461C33.1787 4.74219 33.2682 4.1237 33.4473 3.61914C33.6344 3.11458 33.8745 2.70361 34.1675 2.38623C34.4604 2.06885 34.79 1.84098 35.1562 1.70264C35.5306 1.56429 35.9049 1.49512 36.2793 1.49512C36.3851 1.49512 36.5275 1.50732 36.7065 1.53174C36.8856 1.54801 37.0809 1.59277 37.2925 1.66602C37.5122 1.73926 37.7319 1.84505 37.9517 1.9834C38.1714 2.11361 38.3789 2.29264 38.5742 2.52051C38.7288 2.29264 38.8997 2.11361 39.0869 1.9834C39.2741 1.84505 39.4572 1.73926 39.6362 1.66602C39.8234 1.59277 39.9984 1.54801 40.1611 1.53174C40.332 1.50732 40.4785 1.49512 40.6006 1.49512C40.9912 1.49512 41.3737 1.56429 41.748 1.70264C42.1305 1.84098 42.4683 2.06885 42.7612 2.38623C43.0623 2.70361 43.3065 3.11458 43.4937 3.61914C43.6808 4.1237 43.7744 4.74219 43.7744 5.47461V16.5952C43.7744 16.8556 43.8029 17.0916 43.8599 17.3032C43.925 17.5067 44.0063 17.6898 44.104 17.8525C44.2098 18.0072 44.3319 18.1414 44.4702 18.2554C44.6086 18.3612 44.751 18.4507 44.8975 18.5239ZM55.0781 15.3501C55.1514 15.0897 55.2368 14.9025 55.3345 14.7886C55.4321 14.6665 55.5461 14.6055 55.6763 14.6055C55.7739 14.6055 55.8757 14.638 55.9814 14.7031C56.0872 14.7601 56.1808 14.8374 56.2622 14.9351C56.3517 15.0327 56.4209 15.1426 56.4697 15.2646C56.5267 15.3867 56.5552 15.5088 56.5552 15.6309C56.5552 15.6471 56.5552 15.6797 56.5552 15.7285C56.5552 15.7773 56.547 15.8262 56.5308 15.875C56.3192 16.5993 56.071 17.2422 55.7861 17.8037C55.5094 18.3571 55.2083 18.8535 54.8828 19.293C54.5654 19.7324 54.2358 20.123 53.894 20.4648C53.5522 20.8148 53.2104 21.1362 52.8687 21.4292V25.7505C52.8687 26.4097 52.7913 26.9631 52.6367 27.4106C52.4902 27.8664 52.2949 28.2326 52.0508 28.5093C51.8066 28.7941 51.5299 28.9976 51.2207 29.1196C50.9115 29.2417 50.5981 29.3027 50.2808 29.3027C49.9308 29.3027 49.6094 29.2254 49.3164 29.0708C49.0234 28.9243 48.7671 28.7209 48.5474 28.4604C48.3358 28.2 48.1689 27.8949 48.0469 27.5449C47.9329 27.195 47.876 26.8206 47.876 26.4219C47.876 25.7871 47.9574 25.2256 48.1201 24.7373C48.291 24.249 48.5189 23.8014 48.8037 23.3945C49.0885 22.9876 49.4181 22.6051 49.7925 22.2471C50.1668 21.8971 50.5615 21.5391 50.9766 21.1729V17.999C50.6755 18.5036 50.3255 18.9146 49.9268 19.2319C49.528 19.5575 49.0601 19.7202 48.5229 19.7202C48.1079 19.7202 47.7336 19.6348 47.3999 19.4639C47.0744 19.293 46.7977 19.0529 46.5698 18.7437C46.342 18.4263 46.167 18.0479 46.0449 17.6084C45.931 17.1608 45.874 16.6644 45.874 16.1191C45.874 15.46 45.9188 14.7967 46.0083 14.1294C46.106 13.4621 46.2118 12.8599 46.3257 12.3228C46.4559 11.6961 46.6064 11.0898 46.7773 10.5039C46.818 10.3981 46.8465 10.2923 46.8628 10.1865C46.8872 10.0726 46.936 9.97087 47.0093 9.88135C47.0825 9.79183 47.1965 9.71859 47.3511 9.66162C47.5138 9.60465 47.762 9.57617 48.0957 9.57617C48.4049 9.57617 48.6043 9.63314 48.6938 9.74707C48.7834 9.85286 48.8159 9.979 48.7915 10.1255C48.7752 10.272 48.7264 10.4225 48.645 10.5771C48.5718 10.7318 48.5229 10.8579 48.4985 10.9556C48.3846 11.4194 48.2829 11.8426 48.1934 12.2251C48.1038 12.6076 48.0265 12.9941 47.9614 13.3848C47.9045 13.7673 47.8597 14.1701 47.8271 14.5933C47.7946 15.0083 47.7783 15.4762 47.7783 15.9971C47.7783 16.6807 47.876 17.1974 48.0713 17.5474C48.2747 17.8973 48.5596 18.0723 48.9258 18.0723C49.1781 18.0723 49.41 17.9787 49.6216 17.7915C49.8413 17.6043 50.0366 17.3561 50.2075 17.0469C50.3866 16.7295 50.5412 16.3714 50.6714 15.9727C50.8016 15.5658 50.9033 15.1426 50.9766 14.7031V10.6748C50.9766 10.4388 50.9603 10.2679 50.9277 10.1621C50.8952 10.0563 50.8789 9.95866 50.8789 9.86914C50.8789 9.74707 50.9399 9.64941 51.062 9.57617C51.1922 9.49479 51.3468 9.4541 51.5259 9.4541C51.9409 9.4541 52.2664 9.56396 52.5024 9.78369C52.7466 9.99528 52.8687 10.2516 52.8687 10.5527V19.3296C53.3244 18.825 53.7435 18.2513 54.126 17.6084C54.5085 16.9655 54.8258 16.2127 55.0781 15.3501ZM50.2808 27.728C50.4761 27.728 50.6226 27.6466 50.7202 27.4839C50.8179 27.3211 50.883 27.1299 50.9155 26.9102C50.9562 26.6986 50.9766 26.4829 50.9766 26.2632C50.9766 26.0435 50.9766 25.8726 50.9766 25.7505V23.0771C50.5697 23.484 50.2401 23.9438 49.9878 24.4565C49.7437 24.9692 49.6216 25.5999 49.6216 26.3486C49.6216 26.7393 49.6785 27.0648 49.7925 27.3252C49.9146 27.5938 50.0773 27.728 50.2808 27.728ZM63.9893 11.4561H67.8833V2.92334C67.8833 2.0363 68.0094 1.36898 68.2617 0.921387C68.5221 0.473796 68.8314 0.25 69.1895 0.25C69.3685 0.25 69.5353 0.302897 69.6899 0.408691C69.8527 0.514486 69.9951 0.640625 70.1172 0.787109C70.2393 0.925456 70.3328 1.07194 70.3979 1.22656C70.4712 1.37305 70.5078 1.49105 70.5078 1.58057C70.5078 1.67008 70.4712 1.72298 70.3979 1.73926C70.3328 1.7474 70.2555 1.79215 70.166 1.87354C70.0846 1.94678 70.0073 2.09733 69.9341 2.3252C69.869 2.55306 69.8364 2.92741 69.8364 3.44824V19.1221C69.8364 19.3337 69.7632 19.4801 69.6167 19.5615C69.4784 19.651 69.3156 19.6958 69.1284 19.6958C68.9819 19.6958 68.8354 19.6755 68.689 19.6348C68.5425 19.5941 68.4082 19.5412 68.2861 19.4761C68.1722 19.411 68.0745 19.3337 67.9932 19.2441C67.9199 19.1628 67.8833 19.0732 67.8833 18.9756V13.2017H63.9893V19.1221C63.9893 19.3337 63.916 19.4801 63.7695 19.5615C63.6312 19.651 63.4684 19.6958 63.2812 19.6958C63.1348 19.6958 62.9883 19.6755 62.8418 19.6348C62.6953 19.5941 62.561 19.5412 62.439 19.4761C62.325 19.411 62.2274 19.3337 62.146 19.2441C62.0728 19.1628 62.0361 19.0732 62.0361 18.9756V13.2017H60.2539C60.1237 13.2017 60.0016 13.161 59.8877 13.0796C59.7819 12.9982 59.6883 12.8965 59.6069 12.7744C59.5337 12.6442 59.4727 12.5059 59.4238 12.3594C59.3831 12.2129 59.3628 12.0745 59.3628 11.9443C59.3628 11.806 59.3913 11.6921 59.4482 11.6025C59.5133 11.5049 59.6069 11.4561 59.729 11.4561H62.0361V3.375C61.263 3.375 60.5509 3.50521 59.8999 3.76562C59.257 4.0179 58.6995 4.38411 58.2275 4.86426C57.7637 5.33626 57.3975 5.90999 57.1289 6.58545C56.8685 7.2609 56.7383 8.01774 56.7383 8.85596C56.7383 9.38493 56.7912 9.861 56.897 10.2842C57.0028 10.7074 57.1289 11.0695 57.2754 11.3706C57.4219 11.6636 57.5684 11.8914 57.7148 12.0542C57.8613 12.217 57.9753 12.2983 58.0566 12.2983C58.1299 12.2983 58.1828 12.278 58.2153 12.2373C58.2479 12.1966 58.2967 12.1763 58.3618 12.1763C58.4269 12.1763 58.4676 12.221 58.4839 12.3105C58.5002 12.4001 58.5083 12.4896 58.5083 12.5791C58.5083 12.8395 58.4554 13.0877 58.3496 13.3237C58.2438 13.5516 58.1095 13.7388 57.9468 13.8853C57.7922 14.0236 57.6172 14.109 57.4219 14.1416C57.2266 14.1742 57.0394 14.1253 56.8604 13.9951C56.6406 13.8405 56.4046 13.6208 56.1523 13.3359C55.9082 13.043 55.6803 12.6849 55.4688 12.2617C55.2653 11.8385 55.0944 11.3503 54.9561 10.7969C54.8258 10.2354 54.7607 9.61279 54.7607 8.9292C54.7607 8.04215 54.8747 7.24463 55.1025 6.53662C55.3385 5.82048 55.6519 5.18978 56.0425 4.64453C56.4412 4.09115 56.9092 3.61914 57.4463 3.22852C57.9834 2.82975 58.5531 2.50423 59.1553 2.25195C59.7656 1.99154 60.3963 1.80029 61.0474 1.67822C61.7065 1.55615 62.3535 1.49512 62.9883 1.49512C63.1185 1.49512 63.2446 1.5236 63.3667 1.58057C63.4888 1.62939 63.5946 1.70264 63.6841 1.80029C63.7736 1.88981 63.8468 1.99967 63.9038 2.12988C63.9608 2.26009 63.9893 2.39844 63.9893 2.54492V11.4561ZM77.9053 11.7246C77.9053 12.1885 77.8239 12.6646 77.6611 13.1528C77.5065 13.6411 77.2705 14.105 76.9531 14.5444C76.6439 14.9757 76.2573 15.3664 75.7935 15.7163C75.3377 16.0581 74.8088 16.3185 74.2065 16.4976C74.2879 16.7091 74.3937 16.9126 74.5239 17.1079C74.6623 17.2951 74.825 17.4578 75.0122 17.5962C75.1994 17.7345 75.415 17.8444 75.6592 17.9258C75.9115 18.0072 76.2004 18.0479 76.5259 18.0479C77.0142 18.0479 77.4333 17.9583 77.7832 17.7793C78.1331 17.5921 78.4261 17.348 78.6621 17.0469C78.9062 16.7458 79.1016 16.408 79.248 16.0337C79.3945 15.6593 79.5044 15.2809 79.5776 14.8984C79.6346 14.6217 79.7485 14.4386 79.9194 14.3491C80.0985 14.2515 80.2775 14.2271 80.4565 14.2759C80.6437 14.3247 80.8024 14.4305 80.9326 14.5933C81.071 14.7479 81.1279 14.9351 81.1035 15.1548C81.071 15.4071 81.014 15.696 80.9326 16.0215C80.8594 16.347 80.7454 16.6766 80.5908 17.0103C80.4362 17.3439 80.2368 17.6735 79.9927 17.999C79.7567 18.3164 79.4637 18.6012 79.1138 18.8535C78.7638 19.1058 78.3529 19.3092 77.8809 19.4639C77.4089 19.6185 76.8677 19.6958 76.2573 19.6958C75.6877 19.6958 75.1343 19.5819 74.5972 19.354C74.0682 19.1343 73.5962 18.8169 73.1812 18.4019C72.7743 17.9787 72.4447 17.4619 72.1924 16.8516C71.9482 16.2331 71.8262 15.5332 71.8262 14.752C71.8262 13.9626 71.936 13.2301 72.1558 12.5547C72.3755 11.8711 72.6644 11.2811 73.0225 10.7847C73.3805 10.2882 73.7874 9.90169 74.2432 9.625C74.6989 9.34017 75.1668 9.19775 75.647 9.19775C75.9969 9.19775 76.3102 9.25879 76.5869 9.38086C76.8717 9.50293 77.1118 9.6779 77.3071 9.90576C77.5024 10.1255 77.6489 10.39 77.7466 10.6992C77.8524 11.0085 77.9053 11.3503 77.9053 11.7246ZM73.877 14.6787C73.877 14.752 73.881 14.8252 73.8892 14.8984C73.8973 14.9717 73.9014 15.049 73.9014 15.1304C74.2106 14.9839 74.4914 14.7967 74.7437 14.5688C74.9959 14.341 75.2116 14.0806 75.3906 13.7876C75.5697 13.4946 75.708 13.1772 75.8057 12.8354C75.9033 12.4855 75.9521 12.1234 75.9521 11.749C75.9521 11.4723 75.9033 11.2567 75.8057 11.1021C75.7161 10.9474 75.59 10.8701 75.4272 10.8701C75.2238 10.8701 75.0407 10.9393 74.8779 11.0776C74.7233 11.216 74.585 11.3991 74.4629 11.627C74.349 11.8467 74.2513 12.099 74.1699 12.3838C74.0967 12.6605 74.0356 12.9412 73.9868 13.2261C73.938 13.5109 73.9054 13.7835 73.8892 14.0439C73.8729 14.2962 73.8688 14.5078 73.877 14.6787ZM86.6455 18.0479C86.8978 18.0479 87.1134 17.9583 87.2925 17.7793C87.4797 17.6003 87.6383 17.3765 87.7686 17.1079C87.9069 16.8394 88.0168 16.5505 88.0981 16.2412C88.1877 15.9238 88.2609 15.6268 88.3179 15.3501C88.3748 15.0897 88.4562 14.9025 88.562 14.7886C88.6759 14.6665 88.798 14.6055 88.9282 14.6055C89.0259 14.6055 89.1235 14.638 89.2212 14.7031C89.327 14.7601 89.4206 14.8374 89.502 14.9351C89.5915 15.0327 89.6606 15.1426 89.7095 15.2646C89.7664 15.3867 89.7949 15.5088 89.7949 15.6309C89.7949 15.6471 89.7949 15.6675 89.7949 15.6919C89.7949 15.7163 89.7868 15.7529 89.7705 15.8018C89.6647 16.2168 89.5182 16.6522 89.3311 17.1079C89.152 17.5636 88.9201 17.9827 88.6353 18.3652C88.3504 18.7477 88.0046 19.0651 87.5977 19.3174C87.1989 19.5697 86.731 19.6958 86.1938 19.6958C85.7544 19.6958 85.3719 19.6022 85.0464 19.415C84.7209 19.2279 84.4645 18.9797 84.2773 18.6704C84.0251 18.9552 83.7199 19.1953 83.3618 19.3906C83.0119 19.5941 82.6009 19.6958 82.1289 19.6958C81.6406 19.6958 81.2093 19.5981 80.835 19.4028C80.4688 19.2075 80.1595 18.943 79.9072 18.6094C79.6549 18.2676 79.4637 17.8688 79.3335 17.4131C79.2114 16.9492 79.1504 16.4528 79.1504 15.9238C79.1504 14.8822 79.3172 13.9463 79.6509 13.1162C79.9845 12.2861 80.4281 11.5822 80.9814 11.0044C81.5348 10.4185 82.1655 9.97087 82.8735 9.66162C83.5897 9.35238 84.3302 9.19775 85.0952 9.19775C85.437 9.19775 85.7137 9.29134 85.9253 9.47852C86.1369 9.66569 86.2427 9.92204 86.2427 10.2476C86.2427 10.4591 86.2183 10.6097 86.1694 10.6992C86.1287 10.7806 86.0474 10.8213 85.9253 10.8213C85.8114 10.8213 85.6934 10.8132 85.5713 10.7969C85.4492 10.7806 85.3231 10.7725 85.1929 10.7725C84.7209 10.7725 84.2407 10.8783 83.7524 11.0898C83.2642 11.2933 82.8206 11.6107 82.4219 12.042C82.0312 12.4652 81.7098 13.0063 81.4575 13.6655C81.2052 14.3166 81.0791 15.0938 81.0791 15.9971C81.0791 16.6562 81.2052 17.1649 81.4575 17.5229C81.7098 17.8729 82.0557 18.0479 82.4951 18.0479C82.8369 18.0479 83.1217 17.9217 83.3496 17.6694C83.5775 17.409 83.7606 17.1038 83.8989 16.7539V12.8965C83.8989 12.7744 83.8908 12.6727 83.8745 12.5913C83.8664 12.5099 83.8542 12.4408 83.8379 12.3838C83.8298 12.3268 83.8216 12.278 83.8135 12.2373C83.8053 12.1885 83.8013 12.1437 83.8013 12.103C83.8013 11.9728 83.8623 11.8711 83.9844 11.7979C84.1146 11.7165 84.2692 11.6758 84.4482 11.6758C84.8633 11.6758 85.1929 11.7856 85.437 12.0054C85.6812 12.217 85.8032 12.4733 85.8032 12.7744V16.9004C85.8032 17.0387 85.8195 17.1771 85.8521 17.3154C85.8846 17.4456 85.9334 17.5677 85.9985 17.6816C86.0636 17.7874 86.1491 17.877 86.2549 17.9502C86.3688 18.0153 86.499 18.0479 86.6455 18.0479ZM93.8843 19.6958C93.5913 19.6958 93.2902 19.651 92.981 19.5615C92.6799 19.472 92.4032 19.3174 92.1509 19.0977C91.9067 18.8779 91.7033 18.589 91.5405 18.231C91.3859 17.8647 91.3086 17.4049 91.3086 16.8516C91.3086 16.0459 91.4144 15.1955 91.626 14.3003C91.8457 13.397 92.159 12.4041 92.5659 11.3218H90.6616H90.3809C90.3727 11.5659 90.3564 11.8752 90.332 12.2495C90.3158 12.6239 90.2832 13.0226 90.2344 13.4458C90.1855 13.869 90.1204 14.2962 90.0391 14.7275C89.9658 15.1589 89.8722 15.5576 89.7583 15.9238C89.6769 16.1842 89.5467 16.3348 89.3677 16.3755C89.1968 16.4162 89.0259 16.3877 88.855 16.29C88.6841 16.1842 88.5457 16.0337 88.4399 15.8384C88.3341 15.6431 88.3097 15.4396 88.3667 15.228C88.4318 14.9757 88.4888 14.6706 88.5376 14.3125C88.5864 13.9463 88.623 13.5638 88.6475 13.165C88.68 12.7581 88.7044 12.3553 88.7207 11.9565C88.737 11.5496 88.7492 11.1875 88.7573 10.8701C88.4481 10.6992 88.1917 10.4836 87.9883 10.2231C87.7848 9.95459 87.6831 9.63721 87.6831 9.271C87.6831 9.1001 87.7157 8.94548 87.7808 8.80713C87.854 8.66064 87.9476 8.53857 88.0615 8.44092C88.1755 8.33512 88.3097 8.25781 88.4644 8.20898C88.619 8.15202 88.7777 8.12354 88.9404 8.12354C89.0869 8.12354 89.2375 8.14388 89.3921 8.18457C89.5549 8.22526 89.7054 8.2985 89.8438 8.4043C89.9902 8.51009 90.1204 8.64844 90.2344 8.81934C90.3483 8.99023 90.4419 9.20182 90.5151 9.4541C90.7186 9.47852 90.8895 9.49886 91.0278 9.51514C91.1743 9.52327 91.2964 9.53141 91.394 9.53955C91.4917 9.54769 91.5731 9.55176 91.6382 9.55176C91.7033 9.55176 91.7684 9.55176 91.8335 9.55176H93.1396C93.2129 9.55176 93.3187 9.59652 93.457 9.68604C93.6035 9.77555 93.7459 9.89355 93.8843 10.04C94.0226 10.1784 94.1366 10.3289 94.2261 10.4917C94.3237 10.6545 94.3604 10.8091 94.3359 10.9556C94.3359 11.0044 94.3075 11.1224 94.2505 11.3096C94.1935 11.4967 94.1243 11.7327 94.043 12.0176C93.9616 12.3024 93.8721 12.632 93.7744 13.0063C93.6768 13.3726 93.5872 13.7591 93.5059 14.166C93.4245 14.5729 93.3553 14.9961 93.2983 15.4355C93.2414 15.8669 93.2129 16.29 93.2129 16.7051C93.2129 16.876 93.2332 17.0428 93.2739 17.2056C93.3146 17.3683 93.3757 17.5148 93.457 17.645C93.5384 17.7671 93.6401 17.8647 93.7622 17.938C93.8924 18.0112 94.043 18.0479 94.2139 18.0479C94.4987 18.0479 94.7428 17.9583 94.9463 17.7793C95.1497 17.6003 95.3206 17.3765 95.459 17.1079C95.5973 16.8394 95.7072 16.5505 95.7886 16.2412C95.8781 15.9238 95.9513 15.6268 96.0083 15.3501C96.0571 15.0897 96.1385 14.9025 96.2524 14.7886C96.3664 14.6665 96.4844 14.6055 96.6064 14.6055C96.7041 14.6055 96.8058 14.638 96.9116 14.7031C97.0174 14.7601 97.111 14.8374 97.1924 14.9351C97.2819 15.0327 97.3511 15.1426 97.3999 15.2646C97.4569 15.3867 97.4854 15.5088 97.4854 15.6309C97.4854 15.6715 97.4813 15.7041 97.4731 15.7285C97.465 15.7529 97.4609 15.7773 97.4609 15.8018C97.347 16.2168 97.1965 16.6522 97.0093 17.1079C96.8302 17.5636 96.5983 17.9827 96.3135 18.3652C96.0286 18.7477 95.6868 19.0651 95.2881 19.3174C94.8893 19.5697 94.4214 19.6958 93.8843 19.6958ZM93.8721 7.24463C94.0592 7.2609 94.2668 7.27311 94.4946 7.28125C94.6899 7.29753 94.9259 7.30973 95.2026 7.31787C95.4793 7.31787 95.7886 7.32194 96.1304 7.33008V3.09424C96.1304 2.9152 96.1141 2.77279 96.0815 2.66699C96.0571 2.5612 96.0286 2.47982 95.9961 2.42285C95.9717 2.35775 95.9432 2.30892 95.9106 2.27637C95.8862 2.23568 95.874 2.19499 95.874 2.1543C95.874 2.10547 95.8984 2.06478 95.9473 2.03223C95.9961 1.99967 96.0612 1.97119 96.1426 1.94678C96.224 1.92236 96.3094 1.90609 96.3989 1.89795C96.4966 1.88167 96.5902 1.87354 96.6797 1.87354C97.0947 1.87354 97.4202 1.9834 97.6562 2.20312C97.9004 2.41471 98.0225 2.67106 98.0225 2.97217V7.35449C98.7874 7.35449 99.5931 7.34635 100.439 7.33008C101.294 7.3138 102.148 7.28532 103.003 7.24463C103.117 7.12256 103.206 7.0778 103.271 7.11035C103.345 7.1429 103.389 7.22021 103.406 7.34229C103.43 7.46436 103.434 7.61491 103.418 7.79395C103.402 7.97298 103.369 8.14795 103.32 8.31885C103.271 8.48161 103.202 8.62402 103.113 8.74609C103.031 8.86816 102.938 8.9292 102.832 8.9292C101.831 8.95361 100.944 8.96989 100.171 8.97803C99.4059 8.97803 98.6898 8.97803 98.0225 8.97803V16.9004C98.0225 17.3073 98.0998 17.6003 98.2544 17.7793C98.409 17.9583 98.6165 18.0479 98.877 18.0479C99.1292 18.0479 99.3449 17.9583 99.5239 17.7793C99.7111 17.6003 99.8698 17.3765 100 17.1079C100.138 16.8394 100.248 16.5505 100.33 16.2412C100.419 15.9238 100.492 15.6268 100.549 15.3501C100.598 15.0897 100.68 14.9025 100.793 14.7886C100.907 14.6665 101.025 14.6055 101.147 14.6055C101.245 14.6055 101.347 14.638 101.453 14.7031C101.558 14.7601 101.652 14.8374 101.733 14.9351C101.823 15.0327 101.892 15.1426 101.941 15.2646C101.998 15.3867 102.026 15.5088 102.026 15.6309C102.026 15.6471 102.026 15.6675 102.026 15.6919C102.026 15.7163 102.018 15.7529 102.002 15.8018C101.896 16.2168 101.75 16.6522 101.562 17.1079C101.383 17.5636 101.147 17.9827 100.854 18.3652C100.57 18.7477 100.228 19.0651 99.8291 19.3174C99.4303 19.5697 98.9624 19.6958 98.4253 19.6958C98.0916 19.6958 97.7824 19.6429 97.4976 19.5371C97.2209 19.4395 96.9808 19.2767 96.7773 19.0488C96.5739 18.8291 96.4152 18.5443 96.3013 18.1943C96.1873 17.8444 96.1304 17.4212 96.1304 16.9248V8.97803C95.8537 8.97803 95.6055 8.97803 95.3857 8.97803C95.1742 8.96989 94.9951 8.96175 94.8486 8.95361C94.6777 8.94548 94.5272 8.93734 94.397 8.9292C94.2017 8.9292 94.0308 8.84375 93.8843 8.67285C93.7297 8.49382 93.6239 8.2985 93.5669 8.08691C93.5018 7.87533 93.4937 7.68408 93.5425 7.51318C93.5832 7.33415 93.693 7.24463 93.8721 7.24463Z" fill="#DE108D"/>
</svg>
