<svg width="290" height="132" viewBox="0 0 290 132" fill="none" xmlns="http://www.w3.org/2000/svg">
<path d="M33.4818 15.072L33.3618 7.008C33.3618 6.656 33.4578 6.36 33.6498 6.12C33.8418 5.88 34.0818 5.76 34.3698 5.76C34.8818 5.76 35.2658 5.976 35.5218 6.408C35.6658 6.632 36.8418 8.736 39.0498 12.72C41.2738 16.688 42.7378 19.24 43.4418 20.376V15.072C43.4418 12.368 43.4178 10.376 43.3698 9.096C43.3378 7.816 43.3218 7.056 43.3218 6.816C43.3218 6.576 43.4178 6.344 43.6098 6.12C43.8018 5.88 44.0338 5.76 44.3058 5.76C44.5778 5.76 44.8098 5.88 45.0018 6.12C45.1938 6.344 45.2898 6.576 45.2898 6.816C45.2898 7.056 45.2818 7.56 45.2658 8.328C45.2018 10.12 45.1698 12.368 45.1698 15.072L45.2178 23.016C45.2178 23.384 45.1138 23.68 44.9058 23.904C44.7138 24.128 44.4418 24.24 44.0898 24.24C43.7378 24.24 43.4338 24.024 43.1778 23.592C43.0978 23.464 42.8018 22.944 42.2898 22.032C40.7378 19.184 39.5778 17.12 38.8098 15.84C38.0578 14.544 37.3378 13.272 36.6498 12.024C35.9618 10.76 35.4818 9.912 35.2098 9.48V15.072L35.3298 23.016C35.3298 23.368 35.2338 23.664 35.0418 23.904C34.8498 24.128 34.6178 24.24 34.3458 24.24C34.0738 24.24 33.8418 24.128 33.6498 23.904C33.4578 23.664 33.3618 23.368 33.3618 23.016L33.4818 15.072ZM55.5235 21.82C56.1768 21.0333 56.5035 20.0867 56.5035 18.98C56.5035 17.8733 56.1902 16.9333 55.5635 16.16C54.9502 15.3867 54.1835 15 53.2635 15C52.3435 15 51.5568 15.3933 50.9035 16.18C50.2635 16.9667 49.9435 17.9133 49.9435 19.02C49.9435 20.1267 50.2502 21.0667 50.8635 21.84C51.4902 22.6133 52.2635 23 53.1835 23C54.1035 23 54.8835 22.6067 55.5235 21.82ZM53.2235 13.7C54.5968 13.7 55.7235 14.2133 56.6035 15.24C57.4835 16.2533 57.9235 17.5 57.9235 18.98C57.9235 20.46 57.4768 21.72 56.5835 22.76C55.6902 23.7867 54.5635 24.3 53.2035 24.3C51.8435 24.3 50.7235 23.7933 49.8435 22.78C48.9635 21.7533 48.5235 20.5 48.5235 19.02C48.5235 17.54 48.9635 16.2867 49.8435 15.26C50.7368 14.22 51.8635 13.7 53.2235 13.7ZM67.154 21.12C67.154 22.0267 66.7807 22.7667 66.034 23.34C65.3007 23.9133 64.414 24.2 63.374 24.2C62.3473 24.2 61.454 23.9667 60.694 23.5C59.934 23.02 59.554 22.5467 59.554 22.08C59.554 21.88 59.614 21.72 59.734 21.6C59.854 21.4667 59.9873 21.4 60.134 21.4C60.294 21.4 60.4207 21.4333 60.514 21.5C60.6073 21.5533 60.734 21.6667 60.894 21.84C61.054 22.0133 61.194 22.16 61.314 22.28C61.4473 22.4 61.7073 22.5333 62.094 22.68C62.494 22.8267 62.8607 22.9 63.194 22.9C63.9273 22.9 64.5273 22.7533 64.994 22.46C65.474 22.1533 65.714 21.7133 65.714 21.14C65.714 20.4467 65.0473 19.8667 63.714 19.4C63.1673 19.2133 62.614 19.0133 62.054 18.8C61.5073 18.5733 61.0407 18.2667 60.654 17.88C60.2673 17.4933 60.074 17.0333 60.074 16.5C60.074 15.78 60.4007 15.1533 61.054 14.62C61.7073 14.0733 62.5073 13.8 63.454 13.8C64.4007 13.8 65.1473 13.9667 65.694 14.3C66.254 14.62 66.534 14.96 66.534 15.32C66.534 15.76 66.3007 15.98 65.834 15.98C65.634 15.98 65.434 15.9067 65.234 15.76C64.6073 15.32 64.0073 15.1 63.434 15.1C62.8607 15.1 62.394 15.2333 62.034 15.5C61.674 15.7533 61.494 16.0533 61.494 16.4C61.494 16.7333 61.6873 17.02 62.074 17.26C62.4607 17.5 62.9273 17.72 63.474 17.92C64.034 18.12 64.594 18.3467 65.154 18.6C65.714 18.84 66.1873 19.18 66.574 19.62C66.9607 20.0467 67.154 20.5467 67.154 21.12ZM78.1012 18.62C79.0078 18.62 79.7278 18.4667 80.2612 18.16C80.8078 17.8533 81.0812 17.44 81.0812 16.92C81.0812 16.4 80.9012 15.9533 80.5412 15.58C80.1945 15.1933 79.6945 15 79.0412 15C78.1612 15 77.4212 15.3333 76.8212 16C76.2212 16.6533 75.8345 17.42 75.6612 18.3C76.3945 18.5133 77.2078 18.62 78.1012 18.62ZM78.8612 13.7C79.9412 13.7 80.8145 14 81.4812 14.6C82.1612 15.2 82.5012 15.98 82.5012 16.94C82.5012 17.9 82.0812 18.6333 81.2412 19.14C80.4145 19.6333 79.3945 19.88 78.1812 19.88C77.4878 19.88 76.6412 19.78 75.6412 19.58C75.7212 20.5133 76.0678 21.32 76.6812 22C77.3078 22.6667 78.0012 23 78.7612 23C79.2145 23 79.6345 22.94 80.0212 22.82C80.4078 22.6867 80.7012 22.5467 80.9012 22.4C81.4345 21.9867 81.7812 21.78 81.9412 21.78C82.1145 21.78 82.2478 21.8333 82.3412 21.94C82.4478 22.0333 82.5012 22.1533 82.5012 22.3C82.5012 22.6733 82.1145 23.1 81.3412 23.58C80.5812 24.06 79.7545 24.3 78.8612 24.3C77.4745 24.3 76.3745 23.8133 75.5612 22.84C74.7478 21.8667 74.3078 20.6933 74.2412 19.32C73.5345 19.1067 73.1812 18.76 73.1812 18.28C73.1812 18.08 73.2345 17.9267 73.3412 17.82C73.4612 17.7 73.6012 17.64 73.7612 17.64C73.9212 17.64 74.1212 17.7 74.3612 17.82C74.6545 16.62 75.2078 15.6333 76.0212 14.86C76.8478 14.0867 77.7945 13.7 78.8612 13.7ZM93.4024 17.7L93.3024 20.84C93.3024 21.2133 93.3024 21.5 93.3024 21.7C93.3158 21.8867 93.3558 22.0867 93.4224 22.3C93.5024 22.5 93.5958 22.6267 93.7024 22.68C93.8091 22.72 93.9158 22.7467 94.0224 22.76C94.1424 22.7733 94.2224 22.7933 94.2624 22.82C94.3158 22.8467 94.3424 22.9 94.3424 22.98C94.3424 23.3267 94.2291 23.62 94.0024 23.86C93.7891 24.0867 93.5358 24.2 93.2424 24.2C92.7358 24.2 92.3824 24 92.1824 23.6C91.9958 23.2 91.9024 22.6133 91.9024 21.84L91.9824 18.16C91.9824 17.2533 91.7891 16.52 91.4024 15.96C91.0158 15.4 90.4758 15.12 89.7824 15.12C89.1024 15.12 88.4424 15.5 87.8024 16.26C87.1624 17.02 86.7158 17.88 86.4624 18.84L86.5224 23.18C86.5224 23.86 86.2691 24.2 85.7624 24.2C85.1491 24.2 84.8424 23.7333 84.8424 22.8C84.8424 21.8533 84.9758 20.5333 85.2424 18.84C85.2424 18.28 85.1824 17.5067 85.0624 16.52C84.9558 15.5333 84.9024 14.9267 84.9024 14.7C84.9024 14.46 84.9691 14.2533 85.1024 14.08C85.2491 13.8933 85.4424 13.8 85.6824 13.8C85.9224 13.8 86.1091 13.8933 86.2424 14.08C86.3891 14.2533 86.4624 14.4533 86.4624 14.68C86.4624 14.9067 86.4558 15.1867 86.4424 15.52C86.4424 15.84 86.4424 16.1133 86.4424 16.34C87.4158 14.6467 88.6158 13.8 90.0424 13.8C91.1091 13.8 91.9358 14.18 92.5224 14.94C93.1091 15.7 93.4024 16.62 93.4024 17.7ZM98.5487 15.22L98.5087 19.96C98.5087 21.1733 98.5553 21.9667 98.6487 22.34C98.7553 22.7133 99.022 22.9 99.4487 22.9C99.6487 22.9 99.8887 22.8333 100.169 22.7C100.462 22.5533 100.655 22.48 100.749 22.48C101.029 22.48 101.169 22.62 101.169 22.9C101.169 23.1667 100.922 23.4533 100.429 23.76C99.9353 24.0533 99.4487 24.2 98.9687 24.2C97.8087 24.2 97.2287 23.3467 97.2287 21.64L97.2087 15.22C96.7687 15.26 96.462 15.28 96.2887 15.28C95.622 15.28 95.2887 15.06 95.2887 14.62C95.2887 14.18 95.622 13.96 96.2887 13.96C96.342 13.96 96.6353 13.9733 97.1687 14L97.1287 11.76C97.1287 11.0933 97.382 10.76 97.8887 10.76C98.3953 10.76 98.6487 11.0933 98.6487 11.76L98.5887 14.02L100.209 13.94C100.875 13.94 101.209 14.1667 101.209 14.62C101.209 15.0467 100.875 15.26 100.209 15.26C100.089 15.26 99.5353 15.2467 98.5487 15.22ZM104.607 19.42L104.667 23.18C104.667 23.86 104.414 24.2 103.907 24.2C103.294 24.2 102.987 23.7333 102.987 22.8C102.987 21.8533 103.12 20.5333 103.387 18.84C103.387 18.28 103.327 17.5133 103.207 16.54C103.1 15.5667 103.047 14.96 103.047 14.72C103.047 14.48 103.114 14.2667 103.247 14.08C103.394 13.8933 103.587 13.8 103.827 13.8C104.067 13.8 104.254 13.8933 104.387 14.08C104.534 14.2667 104.607 14.4733 104.607 14.7C104.607 14.9133 104.6 15.1933 104.587 15.54C104.587 15.8733 104.587 16.1533 104.587 16.38C104.854 15.7 105.267 15.1 105.827 14.58C106.4 14.06 106.987 13.8 107.587 13.8C108.187 13.8 108.647 13.9267 108.967 14.18C109.3 14.42 109.467 14.68 109.467 14.96C109.467 15.24 109.394 15.46 109.247 15.62C109.1 15.78 108.907 15.86 108.667 15.86C108.44 15.86 108.187 15.74 107.907 15.5C107.64 15.2467 107.427 15.12 107.267 15.12C106.827 15.12 106.314 15.5933 105.727 16.54C105.14 17.4867 104.767 18.4467 104.607 19.42ZM112.131 9.5C112.411 9.5 112.618 9.59333 112.751 9.78C112.884 9.95333 112.951 10.18 112.951 10.46C112.951 10.7267 112.858 11 112.671 11.28C112.484 11.5467 112.251 11.68 111.971 11.68C111.691 11.68 111.478 11.5867 111.331 11.4C111.198 11.2133 111.131 10.9667 111.131 10.66C111.131 10.3533 111.224 10.0867 111.411 9.86C111.611 9.62 111.851 9.5 112.131 9.5ZM112.691 19L112.791 23.2C112.791 23.8667 112.538 24.2 112.031 24.2C111.524 24.2 111.271 23.8667 111.271 23.2L111.371 19L111.271 14.8C111.271 14.1333 111.524 13.8 112.031 13.8C112.538 13.8 112.791 14.1333 112.791 14.8L112.691 19ZM122.584 21.12C122.584 22.0267 122.21 22.7667 121.464 23.34C120.73 23.9133 119.844 24.2 118.804 24.2C117.777 24.2 116.884 23.9667 116.124 23.5C115.364 23.02 114.984 22.5467 114.984 22.08C114.984 21.88 115.044 21.72 115.164 21.6C115.284 21.4667 115.417 21.4 115.564 21.4C115.724 21.4 115.85 21.4333 115.944 21.5C116.037 21.5533 116.164 21.6667 116.324 21.84C116.484 22.0133 116.624 22.16 116.744 22.28C116.877 22.4 117.137 22.5333 117.524 22.68C117.924 22.8267 118.29 22.9 118.624 22.9C119.357 22.9 119.957 22.7533 120.424 22.46C120.904 22.1533 121.144 21.7133 121.144 21.14C121.144 20.4467 120.477 19.8667 119.144 19.4C118.597 19.2133 118.044 19.0133 117.484 18.8C116.937 18.5733 116.47 18.2667 116.084 17.88C115.697 17.4933 115.504 17.0333 115.504 16.5C115.504 15.78 115.83 15.1533 116.484 14.62C117.137 14.0733 117.937 13.8 118.884 13.8C119.83 13.8 120.577 13.9667 121.124 14.3C121.684 14.62 121.964 14.96 121.964 15.32C121.964 15.76 121.73 15.98 121.264 15.98C121.064 15.98 120.864 15.9067 120.664 15.76C120.037 15.32 119.437 15.1 118.864 15.1C118.29 15.1 117.824 15.2333 117.464 15.5C117.104 15.7533 116.924 16.0533 116.924 16.4C116.924 16.7333 117.117 17.02 117.504 17.26C117.89 17.5 118.357 17.72 118.904 17.92C119.464 18.12 120.024 18.3467 120.584 18.6C121.144 18.84 121.617 19.18 122.004 19.62C122.39 20.0467 122.584 20.5467 122.584 21.12ZM127.025 15.22L126.985 19.96C126.985 21.1733 127.032 21.9667 127.125 22.34C127.232 22.7133 127.499 22.9 127.925 22.9C128.125 22.9 128.365 22.8333 128.645 22.7C128.939 22.5533 129.132 22.48 129.225 22.48C129.505 22.48 129.645 22.62 129.645 22.9C129.645 23.1667 129.399 23.4533 128.905 23.76C128.412 24.0533 127.925 24.2 127.445 24.2C126.285 24.2 125.705 23.3467 125.705 21.64L125.685 15.22C125.245 15.26 124.939 15.28 124.765 15.28C124.099 15.28 123.765 15.06 123.765 14.62C123.765 14.18 124.099 13.96 124.765 13.96C124.819 13.96 125.112 13.9733 125.645 14L125.605 11.76C125.605 11.0933 125.859 10.76 126.365 10.76C126.872 10.76 127.125 11.0933 127.125 11.76L127.065 14.02L128.685 13.94C129.352 13.94 129.685 14.1667 129.685 14.62C129.685 15.0467 129.352 15.26 128.685 15.26C128.565 15.26 128.012 15.2467 127.025 15.22ZM135.289 18.62C136.195 18.62 136.915 18.4667 137.449 18.16C137.995 17.8533 138.269 17.44 138.269 16.92C138.269 16.4 138.089 15.9533 137.729 15.58C137.382 15.1933 136.882 15 136.229 15C135.349 15 134.609 15.3333 134.009 16C133.409 16.6533 133.022 17.42 132.849 18.3C133.582 18.5133 134.395 18.62 135.289 18.62ZM136.049 13.7C137.129 13.7 138.002 14 138.669 14.6C139.349 15.2 139.689 15.98 139.689 16.94C139.689 17.9 139.269 18.6333 138.429 19.14C137.602 19.6333 136.582 19.88 135.369 19.88C134.675 19.88 133.829 19.78 132.829 19.58C132.909 20.5133 133.255 21.32 133.869 22C134.495 22.6667 135.189 23 135.949 23C136.402 23 136.822 22.94 137.209 22.82C137.595 22.6867 137.889 22.5467 138.089 22.4C138.622 21.9867 138.969 21.78 139.129 21.78C139.302 21.78 139.435 21.8333 139.529 21.94C139.635 22.0333 139.689 22.1533 139.689 22.3C139.689 22.6733 139.302 23.1 138.529 23.58C137.769 24.06 136.942 24.3 136.049 24.3C134.662 24.3 133.562 23.8133 132.749 22.84C131.935 21.8667 131.495 20.6933 131.429 19.32C130.722 19.1067 130.369 18.76 130.369 18.28C130.369 18.08 130.422 17.9267 130.529 17.82C130.649 17.7 130.789 17.64 130.949 17.64C131.109 17.64 131.309 17.7 131.549 17.82C131.842 16.62 132.395 15.6333 133.209 14.86C134.035 14.0867 134.982 13.7 136.049 13.7ZM149.59 21.94C149.923 21.94 150.09 22.12 150.09 22.48C150.09 22.8267 149.703 23.22 148.93 23.66C148.157 24.0867 147.343 24.3 146.49 24.3C145.09 24.3 143.923 23.7867 142.99 22.76C142.057 21.72 141.59 20.4667 141.59 19C141.59 17.5333 142.057 16.2867 142.99 15.26C143.937 14.22 145.177 13.7 146.71 13.7C147.55 13.7 148.29 13.8933 148.93 14.28C149.583 14.6533 149.91 15.04 149.91 15.44C149.91 15.6533 149.843 15.8333 149.71 15.98C149.577 16.1133 149.423 16.18 149.25 16.18C149.077 16.18 148.877 16.08 148.65 15.88C147.957 15.2933 147.25 15 146.53 15C145.61 15 144.803 15.3867 144.11 16.16C143.43 16.9333 143.09 17.8733 143.09 18.98C143.09 20.0867 143.437 21.0333 144.13 21.82C144.823 22.6067 145.683 23 146.71 23C147.497 23 148.263 22.7333 149.01 22.2C149.263 22.0267 149.457 21.94 149.59 21.94ZM155.894 18.62C156.801 18.62 157.521 18.4667 158.054 18.16C158.601 17.8533 158.874 17.44 158.874 16.92C158.874 16.4 158.694 15.9533 158.334 15.58C157.987 15.1933 157.487 15 156.834 15C155.954 15 155.214 15.3333 154.614 16C154.014 16.6533 153.627 17.42 153.454 18.3C154.187 18.5133 155.001 18.62 155.894 18.62ZM156.654 13.7C157.734 13.7 158.607 14 159.274 14.6C159.954 15.2 160.294 15.98 160.294 16.94C160.294 17.9 159.874 18.6333 159.034 19.14C158.207 19.6333 157.187 19.88 155.974 19.88C155.281 19.88 154.434 19.78 153.434 19.58C153.514 20.5133 153.861 21.32 154.474 22C155.101 22.6667 155.794 23 156.554 23C157.007 23 157.427 22.94 157.814 22.82C158.201 22.6867 158.494 22.5467 158.694 22.4C159.227 21.9867 159.574 21.78 159.734 21.78C159.907 21.78 160.041 21.8333 160.134 21.94C160.241 22.0333 160.294 22.1533 160.294 22.3C160.294 22.6733 159.907 23.1 159.134 23.58C158.374 24.06 157.547 24.3 156.654 24.3C155.267 24.3 154.167 23.8133 153.354 22.84C152.541 21.8667 152.101 20.6933 152.034 19.32C151.327 19.1067 150.974 18.76 150.974 18.28C150.974 18.08 151.027 17.9267 151.134 17.82C151.254 17.7 151.394 17.64 151.554 17.64C151.714 17.64 151.914 17.7 152.154 17.82C152.447 16.62 153.001 15.6333 153.814 14.86C154.641 14.0867 155.587 13.7 156.654 13.7ZM167.001 19.22C167.001 17.7667 167.421 16.5 168.261 15.42C169.101 14.34 170.181 13.8 171.501 13.8C172.501 13.8 173.368 14.14 174.101 14.82C174.101 14.14 174.354 13.8 174.861 13.8C175.474 13.8 175.781 14.2733 175.781 15.22C175.781 16.1533 175.648 17.4667 175.381 19.16C175.381 20 175.441 21.5933 175.561 23.94C175.681 26.2867 175.741 27.56 175.741 27.76C175.741 27.96 175.668 28.1467 175.521 28.32C175.388 28.5067 175.201 28.6 174.961 28.6C174.721 28.6 174.528 28.5067 174.381 28.32C174.248 28.1467 174.181 27.9067 174.181 27.6V21.88C173.821 22.56 173.334 23.12 172.721 23.56C172.121 23.9867 171.428 24.2 170.641 24.2C169.868 24.2 169.188 23.9333 168.601 23.4C167.534 22.4267 167.001 21.0333 167.001 19.22ZM171.601 15.1C170.734 15.1 169.988 15.4933 169.361 16.28C168.734 17.0667 168.421 18.0133 168.421 19.12C168.421 20.2133 168.621 21.12 169.021 21.84C169.434 22.5467 170.014 22.9 170.761 22.9C171.508 22.9 172.188 22.5667 172.801 21.9C173.414 21.2333 173.888 20.38 174.221 19.34L174.121 16.26C173.321 15.4867 172.481 15.1 171.601 15.1ZM180.116 15.44L179.956 19.84C179.956 20.7467 180.149 21.4867 180.536 22.06C180.922 22.62 181.456 22.9 182.136 22.9C182.829 22.9 183.496 22.52 184.136 21.76C184.776 20.9867 185.222 20.12 185.476 19.16L185.416 14.82C185.416 14.14 185.669 13.8 186.176 13.8C186.789 13.8 187.096 14.2733 187.096 15.22C187.096 16.1533 186.962 17.4667 186.696 19.16C186.696 20.16 186.769 20.98 186.916 21.62C187.062 22.2467 187.236 22.6 187.436 22.68C187.516 22.72 187.609 22.7467 187.716 22.76C187.836 22.7733 187.916 22.7933 187.956 22.82C188.009 22.8467 188.036 22.9 188.036 22.98C188.036 23.34 187.922 23.6333 187.696 23.86C187.482 24.0867 187.209 24.2 186.876 24.2C186.036 24.2 185.616 23.3467 185.616 21.64C184.629 23.3467 183.389 24.2 181.896 24.2C180.829 24.2 180.002 23.8067 179.416 23.02C178.829 22.22 178.536 21.2467 178.536 20.1L178.656 17.08C178.656 16.5467 178.602 16.0533 178.496 15.6C178.389 15.1333 178.336 14.8 178.336 14.6C178.336 14.4 178.416 14.22 178.576 14.06C178.736 13.8867 178.942 13.8 179.196 13.8C179.809 13.8 180.116 14.3467 180.116 15.44ZM194.078 18.62C194.984 18.62 195.704 18.4667 196.238 18.16C196.784 17.8533 197.058 17.44 197.058 16.92C197.058 16.4 196.878 15.9533 196.518 15.58C196.171 15.1933 195.671 15 195.018 15C194.138 15 193.398 15.3333 192.798 16C192.198 16.6533 191.811 17.42 191.638 18.3C192.371 18.5133 193.184 18.62 194.078 18.62ZM194.838 13.7C195.918 13.7 196.791 14 197.458 14.6C198.138 15.2 198.478 15.98 198.478 16.94C198.478 17.9 198.058 18.6333 197.218 19.14C196.391 19.6333 195.371 19.88 194.158 19.88C193.464 19.88 192.618 19.78 191.618 19.58C191.698 20.5133 192.044 21.32 192.658 22C193.284 22.6667 193.978 23 194.738 23C195.191 23 195.611 22.94 195.998 22.82C196.384 22.6867 196.678 22.5467 196.878 22.4C197.411 21.9867 197.758 21.78 197.918 21.78C198.091 21.78 198.224 21.8333 198.318 21.94C198.424 22.0333 198.478 22.1533 198.478 22.3C198.478 22.6733 198.091 23.1 197.318 23.58C196.558 24.06 195.731 24.3 194.838 24.3C193.451 24.3 192.351 23.8133 191.538 22.84C190.724 21.8667 190.284 20.6933 190.218 19.32C189.511 19.1067 189.158 18.76 189.158 18.28C189.158 18.08 189.211 17.9267 189.318 17.82C189.438 17.7 189.578 17.64 189.738 17.64C189.898 17.64 190.098 17.7 190.338 17.82C190.631 16.62 191.184 15.6333 191.998 14.86C192.824 14.0867 193.771 13.7 194.838 13.7ZM214.105 17.7L214.005 20.84C214.005 21.2133 214.005 21.5 214.005 21.7C214.018 21.8867 214.058 22.0867 214.125 22.3C214.205 22.5 214.298 22.6267 214.405 22.68C214.511 22.72 214.618 22.7467 214.725 22.76C214.845 22.7733 214.925 22.7933 214.965 22.82C215.018 22.8467 215.045 22.9 215.045 22.98C215.045 23.3267 214.931 23.62 214.705 23.86C214.491 24.0867 214.238 24.2 213.945 24.2C213.438 24.2 213.085 24 212.885 23.6C212.698 23.2 212.605 22.6133 212.605 21.84L212.685 18.16C212.685 17.2533 212.491 16.52 212.105 15.96C211.718 15.4 211.178 15.12 210.485 15.12C209.805 15.12 209.145 15.5 208.505 16.26C207.865 17.02 207.418 17.88 207.165 18.84L207.225 23.18C207.225 23.86 206.971 24.2 206.465 24.2C205.851 24.2 205.545 23.7333 205.545 22.8C205.545 21.8533 205.678 20.5333 205.945 18.84C205.945 17.9333 205.885 16.2267 205.765 13.72C205.645 11.2 205.585 9.84 205.585 9.64C205.585 9.44 205.651 9.25333 205.785 9.08C205.931 8.89333 206.125 8.8 206.365 8.8C206.605 8.8 206.791 8.89333 206.925 9.08C207.071 9.25333 207.145 9.49333 207.145 9.8V16.34C208.118 14.6467 209.318 13.8 210.745 13.8C211.811 13.8 212.638 14.18 213.225 14.94C213.811 15.7 214.105 16.62 214.105 17.7ZM225.108 19.16C225.108 20.16 225.181 20.98 225.328 21.62C225.474 22.2467 225.648 22.6 225.848 22.68C225.928 22.72 226.021 22.7467 226.128 22.76C226.248 22.7733 226.328 22.7933 226.368 22.82C226.421 22.8467 226.448 22.9 226.448 22.98C226.448 23.34 226.348 23.6333 226.148 23.86C225.961 24.0867 225.674 24.2 225.288 24.2C224.901 24.2 224.601 23.9533 224.388 23.46C224.174 22.9667 224.068 22.3333 224.068 21.56C223.734 22.3067 223.241 22.9333 222.588 23.44C221.948 23.9467 221.221 24.2 220.408 24.2C219.608 24.2 218.914 23.9333 218.328 23.4C217.261 22.4267 216.728 21.0333 216.728 19.22C216.728 17.7667 217.148 16.5 217.988 15.42C218.828 14.34 219.908 13.8 221.228 13.8C222.228 13.8 223.094 14.14 223.828 14.82C223.828 14.14 224.081 13.8 224.588 13.8C225.201 13.8 225.508 14.2733 225.508 15.22C225.508 16.1533 225.374 17.4667 225.108 19.16ZM223.948 19.34L223.848 16.26C223.048 15.4867 222.208 15.1 221.328 15.1C220.461 15.1 219.714 15.4933 219.088 16.28C218.461 17.0667 218.148 18.0133 218.148 19.12C218.148 20.2133 218.348 21.12 218.748 21.84C219.161 22.5467 219.741 22.9 220.488 22.9C221.234 22.9 221.914 22.5667 222.528 21.9C223.141 21.2333 223.614 20.38 223.948 19.34ZM235.476 19.16L235.416 14.82C235.416 14.14 235.669 13.8 236.176 13.8C236.789 13.8 237.096 14.3 237.096 15.3C237.096 16.0867 236.956 17.3733 236.676 19.16C236.836 20.7867 236.916 22 236.916 22.8C236.916 24.5467 236.489 25.9467 235.636 27C234.782 28.0667 233.582 28.6 232.036 28.6C231.209 28.6 230.429 28.4267 229.696 28.08C228.962 27.7467 228.596 27.4067 228.596 27.06C228.596 26.7267 228.749 26.56 229.056 26.56C229.189 26.56 229.556 26.68 230.156 26.92C230.769 27.1733 231.396 27.3 232.036 27.3C233.156 27.3 234.042 26.9 234.696 26.1C235.349 25.3 235.676 24.2667 235.676 23C235.676 22.5333 235.656 22.08 235.616 21.64C234.629 23.3467 233.389 24.2 231.896 24.2C230.829 24.2 230.002 23.8067 229.416 23.02C228.829 22.22 228.536 21.2467 228.536 20.1L228.656 17.08C228.656 16.5467 228.602 16.0533 228.496 15.6C228.389 15.1333 228.336 14.8 228.336 14.6C228.336 14.4 228.416 14.22 228.576 14.06C228.736 13.8867 228.942 13.8 229.196 13.8C229.809 13.8 230.116 14.3467 230.116 15.44L229.956 19.84C229.956 20.7467 230.149 21.4867 230.536 22.06C230.922 22.62 231.456 22.9 232.136 22.9C232.829 22.9 233.496 22.52 234.136 21.76C234.776 20.9867 235.222 20.12 235.476 19.16ZM247.803 19.16C247.803 20.16 247.876 20.98 248.023 21.62C248.17 22.2467 248.343 22.6 248.543 22.68C248.623 22.72 248.716 22.7467 248.823 22.76C248.943 22.7733 249.023 22.7933 249.063 22.82C249.116 22.8467 249.143 22.9 249.143 22.98C249.143 23.34 249.043 23.6333 248.843 23.86C248.656 24.0867 248.37 24.2 247.983 24.2C247.596 24.2 247.296 23.9533 247.083 23.46C246.87 22.9667 246.763 22.3333 246.763 21.56C246.43 22.3067 245.936 22.9333 245.283 23.44C244.643 23.9467 243.916 24.2 243.103 24.2C242.303 24.2 241.61 23.9333 241.023 23.4C239.956 22.4267 239.423 21.0333 239.423 19.22C239.423 17.7667 239.843 16.5 240.683 15.42C241.523 14.34 242.603 13.8 243.923 13.8C244.923 13.8 245.79 14.14 246.523 14.82C246.523 14.14 246.776 13.8 247.283 13.8C247.896 13.8 248.203 14.2733 248.203 15.22C248.203 16.1533 248.07 17.4667 247.803 19.16ZM246.643 19.34L246.543 16.26C245.743 15.4867 244.903 15.1 244.023 15.1C243.156 15.1 242.41 15.4933 241.783 16.28C241.156 17.0667 240.843 18.0133 240.843 19.12C240.843 20.2133 241.043 21.12 241.443 21.84C241.856 22.5467 242.436 22.9 243.183 22.9C243.93 22.9 244.61 22.5667 245.223 21.9C245.836 21.2333 246.31 20.38 246.643 19.34ZM258.209 21.12C258.209 22.0267 257.835 22.7667 257.089 23.34C256.355 23.9133 255.469 24.2 254.429 24.2C253.402 24.2 252.509 23.9667 251.749 23.5C250.989 23.02 250.609 22.5467 250.609 22.08C250.609 21.88 250.669 21.72 250.789 21.6C250.909 21.4667 251.042 21.4 251.189 21.4C251.349 21.4 251.475 21.4333 251.569 21.5C251.662 21.5533 251.789 21.6667 251.949 21.84C252.109 22.0133 252.249 22.16 252.369 22.28C252.502 22.4 252.762 22.5333 253.149 22.68C253.549 22.8267 253.915 22.9 254.249 22.9C254.982 22.9 255.582 22.7533 256.049 22.46C256.529 22.1533 256.769 21.7133 256.769 21.14C256.769 20.4467 256.102 19.8667 254.769 19.4C254.222 19.2133 253.669 19.0133 253.109 18.8C252.562 18.5733 252.095 18.2667 251.709 17.88C251.322 17.4933 251.129 17.0333 251.129 16.5C251.129 15.78 251.455 15.1533 252.109 14.62C252.762 14.0733 253.562 13.8 254.509 13.8C255.455 13.8 256.202 13.9667 256.749 14.3C257.309 14.62 257.589 14.96 257.589 15.32C257.589 15.76 257.355 15.98 256.889 15.98C256.689 15.98 256.489 15.9067 256.289 15.76C255.662 15.32 255.062 15.1 254.489 15.1C253.915 15.1 253.449 15.2333 253.089 15.5C252.729 15.7533 252.549 16.0533 252.549 16.4C252.549 16.7333 252.742 17.02 253.129 17.26C253.515 17.5 253.982 17.72 254.529 17.92C255.089 18.12 255.649 18.3467 256.209 18.6C256.769 18.84 257.242 19.18 257.629 19.62C258.015 20.0467 258.209 20.5467 258.209 21.12ZM13.7678 47.9C14.6211 47.9 15.3678 47.5067 16.0078 46.72C16.6611 45.9333 16.9878 45.0133 16.9878 43.96C16.9878 42.8933 16.7545 41.9867 16.2878 41.24C15.8211 40.48 15.1878 40.1 14.3878 40.1C12.9878 40.1 11.8345 41.2533 10.9278 43.56V46.74C11.7278 47.5133 12.6745 47.9 13.7678 47.9ZM9.68781 45.2L9.70781 44.44V44.12C9.70781 43.56 9.64781 42.74 9.52781 41.66C9.40781 40.58 9.34781 39.9267 9.34781 39.7C9.34781 39.46 9.41448 39.2533 9.54781 39.08C9.69448 38.8933 9.88781 38.8 10.1278 38.8C10.3678 38.8 10.5545 38.8933 10.6878 39.08C10.8345 39.2533 10.9078 39.4533 10.9078 39.68C10.9078 39.9067 10.9011 40.1933 10.8878 40.54C10.8878 40.8733 10.8878 41.1533 10.8878 41.38C11.3278 40.5667 11.8211 39.9333 12.3678 39.48C12.9145 39.0267 13.6211 38.8 14.4878 38.8C15.3545 38.8 16.1011 39.08 16.7278 39.64C17.3545 40.2 17.8011 40.8467 18.0678 41.58C18.3345 42.3133 18.4678 43.0467 18.4678 43.78C18.4678 45.2333 18.0278 46.5 17.1478 47.58C16.2678 48.66 15.1411 49.2 13.7678 49.2C12.7678 49.2 11.8211 48.8733 10.9278 48.22C10.9011 49.8333 10.8878 51.0267 10.8878 51.8C10.8878 52.5867 10.8211 53.08 10.6878 53.28C10.5545 53.4933 10.3478 53.6 10.0678 53.6C9.78781 53.6 9.55448 53.48 9.36781 53.24C9.19448 53.0133 9.10781 52.68 9.10781 52.24C9.10781 51.8 9.13448 51.2733 9.18781 50.66C9.24115 50.06 9.32115 49.2667 9.42781 48.28C9.53448 47.28 9.62115 46.38 9.68781 45.58V45.2ZM24.8141 43.62C25.7207 43.62 26.4407 43.4667 26.9741 43.16C27.5207 42.8533 27.7941 42.44 27.7941 41.92C27.7941 41.4 27.6141 40.9533 27.2541 40.58C26.9074 40.1933 26.4074 40 25.7541 40C24.8741 40 24.1341 40.3333 23.5341 41C22.9341 41.6533 22.5474 42.42 22.3741 43.3C23.1074 43.5133 23.9207 43.62 24.8141 43.62ZM25.5741 38.7C26.6541 38.7 27.5274 39 28.1941 39.6C28.8741 40.2 29.2141 40.98 29.2141 41.94C29.2141 42.9 28.7941 43.6333 27.9541 44.14C27.1274 44.6333 26.1074 44.88 24.8941 44.88C24.2007 44.88 23.3541 44.78 22.3541 44.58C22.4341 45.5133 22.7807 46.32 23.3941 47C24.0207 47.6667 24.7141 48 25.4741 48C25.9274 48 26.3474 47.94 26.7341 47.82C27.1207 47.6867 27.4141 47.5467 27.6141 47.4C28.1474 46.9867 28.4941 46.78 28.6541 46.78C28.8274 46.78 28.9607 46.8333 29.0541 46.94C29.1607 47.0333 29.2141 47.1533 29.2141 47.3C29.2141 47.6733 28.8274 48.1 28.0541 48.58C27.2941 49.06 26.4674 49.3 25.5741 49.3C24.1874 49.3 23.0874 48.8133 22.2741 47.84C21.4607 46.8667 21.0207 45.6933 20.9541 44.32C20.2474 44.1067 19.8941 43.76 19.8941 43.28C19.8941 43.08 19.9474 42.9267 20.0541 42.82C20.1741 42.7 20.3141 42.64 20.4741 42.64C20.6341 42.64 20.8341 42.7 21.0741 42.82C21.3674 41.62 21.9207 40.6333 22.7341 39.86C23.5607 39.0867 24.5074 38.7 25.5741 38.7ZM33.1753 44.42L33.2353 48.18C33.2353 48.86 32.982 49.2 32.4753 49.2C31.862 49.2 31.5553 48.7333 31.5553 47.8C31.5553 46.8533 31.6886 45.5333 31.9553 43.84C31.9553 43.28 31.8953 42.5133 31.7753 41.54C31.6686 40.5667 31.6153 39.96 31.6153 39.72C31.6153 39.48 31.682 39.2667 31.8153 39.08C31.962 38.8933 32.1553 38.8 32.3953 38.8C32.6353 38.8 32.822 38.8933 32.9553 39.08C33.102 39.2667 33.1753 39.4733 33.1753 39.7C33.1753 39.9133 33.1686 40.1933 33.1553 40.54C33.1553 40.8733 33.1553 41.1533 33.1553 41.38C33.422 40.7 33.8353 40.1 34.3953 39.58C34.9686 39.06 35.5553 38.8 36.1553 38.8C36.7553 38.8 37.2153 38.9267 37.5353 39.18C37.8686 39.42 38.0353 39.68 38.0353 39.96C38.0353 40.24 37.962 40.46 37.8153 40.62C37.6686 40.78 37.4753 40.86 37.2353 40.86C37.0086 40.86 36.7553 40.74 36.4753 40.5C36.2086 40.2467 35.9953 40.12 35.8353 40.12C35.3953 40.12 34.882 40.5933 34.2953 41.54C33.7086 42.4867 33.3353 43.4467 33.1753 44.42ZM46.6245 44.44V41.26C45.8245 40.4867 44.8779 40.1 43.7845 40.1C42.9312 40.1 42.1779 40.4933 41.5245 41.28C40.8845 42.0667 40.5645 42.9933 40.5645 44.06C40.5645 45.1133 40.7979 46.02 41.2645 46.78C41.7312 47.5267 42.3645 47.9 43.1645 47.9C44.5645 47.9 45.7179 46.7467 46.6245 44.44ZM48.7445 47.72C49.0912 47.72 49.2645 47.82 49.2645 48.02C49.2645 48.2733 49.1712 48.5333 48.9845 48.8C48.8112 49.0667 48.5312 49.2 48.1445 49.2C47.7579 49.2 47.4512 48.9867 47.2245 48.56C47.0112 48.1333 46.8579 47.4533 46.7645 46.52C45.7912 48.3067 44.5579 49.2 43.0645 49.2C42.1979 49.2 41.4512 48.92 40.8245 48.36C40.1979 47.8 39.7512 47.1533 39.4845 46.42C39.2179 45.6867 39.0845 44.9533 39.0845 44.22C39.0845 42.7667 39.5245 41.5 40.4045 40.42C41.2845 39.34 42.4112 38.8 43.7845 38.8C44.7845 38.8 45.7312 39.1267 46.6245 39.78C46.6512 37.9267 46.6645 36.5733 46.6645 35.72C46.6645 34.8533 46.7245 34.32 46.8445 34.12C46.9779 33.9067 47.1845 33.8 47.4645 33.8C47.7579 33.8 47.9912 33.92 48.1645 34.16C48.3512 34.3867 48.4445 34.7267 48.4445 35.18C48.4445 35.6333 48.4179 36.1933 48.3645 36.86C48.3112 37.5133 48.2312 38.3867 48.1245 39.48C48.0179 40.56 47.9312 41.54 47.8645 42.42C47.8645 44.0467 47.9245 45.32 48.0445 46.24C48.1645 47.16 48.3979 47.6533 48.7445 47.72ZM52.2423 34.5C52.5223 34.5 52.729 34.5933 52.8623 34.78C52.9957 34.9533 53.0623 35.18 53.0623 35.46C53.0623 35.7267 52.969 36 52.7823 36.28C52.5957 36.5467 52.3623 36.68 52.0823 36.68C51.8023 36.68 51.589 36.5867 51.4423 36.4C51.309 36.2133 51.2423 35.9667 51.2423 35.66C51.2423 35.3533 51.3357 35.0867 51.5223 34.86C51.7223 34.62 51.9623 34.5 52.2423 34.5ZM52.8023 44L52.9023 48.2C52.9023 48.8667 52.649 49.2 52.1423 49.2C51.6357 49.2 51.3823 48.8667 51.3823 48.2L51.4823 44L51.3823 39.8C51.3823 39.1333 51.6357 38.8 52.1423 38.8C52.649 38.8 52.9023 39.1333 52.9023 39.8L52.8023 44ZM62.855 44.44V41.26C62.055 40.4867 61.1083 40.1 60.015 40.1C59.1617 40.1 58.4083 40.4933 57.755 41.28C57.115 42.0667 56.795 42.9933 56.795 44.06C56.795 45.1133 57.0283 46.02 57.495 46.78C57.9617 47.5267 58.595 47.9 59.395 47.9C60.795 47.9 61.9483 46.7467 62.855 44.44ZM64.975 47.72C65.3217 47.72 65.495 47.82 65.495 48.02C65.495 48.2733 65.4017 48.5333 65.215 48.8C65.0417 49.0667 64.7617 49.2 64.375 49.2C63.9883 49.2 63.6817 48.9867 63.455 48.56C63.2417 48.1333 63.0883 47.4533 62.995 46.52C62.0217 48.3067 60.7883 49.2 59.295 49.2C58.4283 49.2 57.6817 48.92 57.055 48.36C56.4283 47.8 55.9817 47.1533 55.715 46.42C55.4483 45.6867 55.315 44.9533 55.315 44.22C55.315 42.7667 55.755 41.5 56.635 40.42C57.515 39.34 58.6417 38.8 60.015 38.8C61.015 38.8 61.9617 39.1267 62.855 39.78C62.8817 37.9267 62.895 36.5733 62.895 35.72C62.895 34.8533 62.955 34.32 63.075 34.12C63.2083 33.9067 63.415 33.8 63.695 33.8C63.9883 33.8 64.2217 33.92 64.395 34.16C64.5817 34.3867 64.675 34.7267 64.675 35.18C64.675 35.6333 64.6483 36.1933 64.595 36.86C64.5417 37.5133 64.4617 38.3867 64.355 39.48C64.2483 40.56 64.1617 41.54 64.095 42.42C64.095 44.0467 64.155 45.32 64.275 46.24C64.395 47.16 64.6283 47.6533 64.975 47.72ZM74.0528 46.82C74.7061 46.0333 75.0328 45.0867 75.0328 43.98C75.0328 42.8733 74.7195 41.9333 74.0928 41.16C73.4795 40.3867 72.7128 40 71.7928 40C70.8728 40 70.0861 40.3933 69.4328 41.18C68.7928 41.9667 68.4728 42.9133 68.4728 44.02C68.4728 45.1267 68.7795 46.0667 69.3928 46.84C70.0195 47.6133 70.7928 48 71.7128 48C72.6328 48 73.4128 47.6067 74.0528 46.82ZM71.7528 38.7C73.1261 38.7 74.2528 39.2133 75.1328 40.24C76.0128 41.2533 76.4528 42.5 76.4528 43.98C76.4528 45.46 76.0061 46.72 75.1128 47.76C74.2195 48.7867 73.0928 49.3 71.7328 49.3C70.3728 49.3 69.2528 48.7933 68.3728 47.78C67.4928 46.7533 67.0528 45.5 67.0528 44.02C67.0528 42.54 67.4928 41.2867 68.3728 40.26C69.2661 39.22 70.3928 38.7 71.7528 38.7ZM85.7889 40.22L85.7489 44.96C85.7489 46.1733 85.7956 46.9667 85.8889 47.34C85.9956 47.7133 86.2622 47.9 86.6889 47.9C86.8889 47.9 87.1289 47.8333 87.4089 47.7C87.7022 47.5533 87.8956 47.48 87.9889 47.48C88.2689 47.48 88.4089 47.62 88.4089 47.9C88.4089 48.1667 88.1622 48.4533 87.6689 48.76C87.1756 49.0533 86.6889 49.2 86.2089 49.2C85.0489 49.2 84.4689 48.3467 84.4689 46.64L84.4489 40.22C84.0089 40.26 83.7022 40.28 83.5289 40.28C82.8622 40.28 82.5289 40.06 82.5289 39.62C82.5289 39.18 82.8622 38.96 83.5289 38.96C83.5822 38.96 83.8756 38.9733 84.4089 39L84.3689 36.76C84.3689 36.0933 84.6222 35.76 85.1289 35.76C85.6356 35.76 85.8889 36.0933 85.8889 36.76L85.8289 39.02L87.4489 38.94C88.1156 38.94 88.4489 39.1667 88.4489 39.62C88.4489 40.0467 88.1156 40.26 87.4489 40.26C87.3289 40.26 86.7756 40.2467 85.7889 40.22ZM91.8872 40.44L91.7272 44.84C91.7272 45.7467 91.9205 46.4867 92.3072 47.06C92.6939 47.62 93.2272 47.9 93.9072 47.9C94.6005 47.9 95.2672 47.52 95.9072 46.76C96.5472 45.9867 96.9939 45.12 97.2472 44.16L97.1872 39.82C97.1872 39.14 97.4405 38.8 97.9472 38.8C98.5605 38.8 98.8672 39.2733 98.8672 40.22C98.8672 41.1533 98.7339 42.4667 98.4672 44.16C98.4672 45.16 98.5405 45.98 98.6872 46.62C98.8339 47.2467 99.0072 47.6 99.2072 47.68C99.2872 47.72 99.3805 47.7467 99.4872 47.76C99.6072 47.7733 99.6872 47.7933 99.7272 47.82C99.7805 47.8467 99.8072 47.9 99.8072 47.98C99.8072 48.34 99.6939 48.6333 99.4672 48.86C99.2539 49.0867 98.9805 49.2 98.6472 49.2C97.8072 49.2 97.3872 48.3467 97.3872 46.64C96.4005 48.3467 95.1605 49.2 93.6672 49.2C92.6005 49.2 91.7739 48.8067 91.1872 48.02C90.6005 47.22 90.3072 46.2467 90.3072 45.1L90.4272 42.08C90.4272 41.5467 90.3739 41.0533 90.2672 40.6C90.1605 40.1333 90.1072 39.8 90.1072 39.6C90.1072 39.4 90.1872 39.22 90.3472 39.06C90.5072 38.8867 90.7139 38.8 90.9672 38.8C91.5805 38.8 91.8872 39.3467 91.8872 40.44ZM114.233 46.94C114.566 46.94 114.733 47.12 114.733 47.48C114.733 47.8267 114.346 48.22 113.573 48.66C112.799 49.0867 111.986 49.3 111.133 49.3C109.733 49.3 108.566 48.7867 107.633 47.76C106.699 46.72 106.233 45.4667 106.233 44C106.233 42.5333 106.699 41.2867 107.633 40.26C108.579 39.22 109.819 38.7 111.353 38.7C112.193 38.7 112.933 38.8933 113.573 39.28C114.226 39.6533 114.553 40.04 114.553 40.44C114.553 40.6533 114.486 40.8333 114.353 40.98C114.219 41.1133 114.066 41.18 113.893 41.18C113.719 41.18 113.519 41.08 113.293 40.88C112.599 40.2933 111.893 40 111.173 40C110.253 40 109.446 40.3867 108.753 41.16C108.073 41.9333 107.733 42.8733 107.733 43.98C107.733 45.0867 108.079 46.0333 108.773 46.82C109.466 47.6067 110.326 48 111.353 48C112.139 48 112.906 47.7333 113.653 47.2C113.906 47.0267 114.099 46.94 114.233 46.94ZM123.233 46.82C123.886 46.0333 124.213 45.0867 124.213 43.98C124.213 42.8733 123.899 41.9333 123.273 41.16C122.659 40.3867 121.893 40 120.973 40C120.053 40 119.266 40.3933 118.613 41.18C117.973 41.9667 117.653 42.9133 117.653 44.02C117.653 45.1267 117.959 46.0667 118.573 46.84C119.199 47.6133 119.973 48 120.893 48C121.813 48 122.593 47.6067 123.233 46.82ZM120.933 38.7C122.306 38.7 123.433 39.2133 124.313 40.24C125.193 41.2533 125.633 42.5 125.633 43.98C125.633 45.46 125.186 46.72 124.293 47.76C123.399 48.7867 122.273 49.3 120.913 49.3C119.553 49.3 118.433 48.7933 117.553 47.78C116.673 46.7533 116.233 45.5 116.233 44.02C116.233 42.54 116.673 41.2867 117.553 40.26C118.446 39.22 119.573 38.7 120.933 38.7ZM136.463 42.7L136.363 45.84C136.363 46.2133 136.363 46.5 136.363 46.7C136.376 46.8867 136.416 47.0867 136.483 47.3C136.563 47.5 136.656 47.6267 136.763 47.68C136.87 47.72 136.976 47.7467 137.083 47.76C137.203 47.7733 137.283 47.7933 137.323 47.82C137.376 47.8467 137.403 47.9 137.403 47.98C137.403 48.3267 137.29 48.62 137.063 48.86C136.85 49.0867 136.596 49.2 136.303 49.2C135.796 49.2 135.443 49 135.243 48.6C135.056 48.2 134.963 47.6133 134.963 46.84L135.043 43.16C135.043 42.2533 134.85 41.52 134.463 40.96C134.076 40.4 133.536 40.12 132.843 40.12C132.163 40.12 131.503 40.5 130.863 41.26C130.223 42.02 129.776 42.88 129.523 43.84L129.583 48.18C129.583 48.86 129.33 49.2 128.823 49.2C128.21 49.2 127.903 48.7333 127.903 47.8C127.903 46.8533 128.036 45.5333 128.303 43.84C128.303 43.28 128.243 42.5067 128.123 41.52C128.016 40.5333 127.963 39.9267 127.963 39.7C127.963 39.46 128.03 39.2533 128.163 39.08C128.31 38.8933 128.503 38.8 128.743 38.8C128.983 38.8 129.17 38.8933 129.303 39.08C129.45 39.2533 129.523 39.4533 129.523 39.68C129.523 39.9067 129.516 40.1867 129.503 40.52C129.503 40.84 129.503 41.1133 129.503 41.34C130.476 39.6467 131.676 38.8 133.103 38.8C134.17 38.8 134.996 39.18 135.583 39.94C136.17 40.7 136.463 41.62 136.463 42.7ZM141.609 40.22L141.569 44.96C141.569 46.1733 141.616 46.9667 141.709 47.34C141.816 47.7133 142.083 47.9 142.509 47.9C142.709 47.9 142.949 47.8333 143.229 47.7C143.523 47.5533 143.716 47.48 143.809 47.48C144.089 47.48 144.229 47.62 144.229 47.9C144.229 48.1667 143.983 48.4533 143.489 48.76C142.996 49.0533 142.509 49.2 142.029 49.2C140.869 49.2 140.289 48.3467 140.289 46.64L140.269 40.22C139.829 40.26 139.523 40.28 139.349 40.28C138.683 40.28 138.349 40.06 138.349 39.62C138.349 39.18 138.683 38.96 139.349 38.96C139.403 38.96 139.696 38.9733 140.229 39L140.189 36.76C140.189 36.0933 140.443 35.76 140.949 35.76C141.456 35.76 141.709 36.0933 141.709 36.76L141.649 39.02L143.269 38.94C143.936 38.94 144.269 39.1667 144.269 39.62C144.269 40.0467 143.936 40.26 143.269 40.26C143.149 40.26 142.596 40.2467 141.609 40.22ZM147.668 44.42L147.728 48.18C147.728 48.86 147.474 49.2 146.968 49.2C146.354 49.2 146.048 48.7333 146.048 47.8C146.048 46.8533 146.181 45.5333 146.448 43.84C146.448 43.28 146.388 42.5133 146.268 41.54C146.161 40.5667 146.108 39.96 146.108 39.72C146.108 39.48 146.174 39.2667 146.308 39.08C146.454 38.8933 146.648 38.8 146.888 38.8C147.128 38.8 147.314 38.8933 147.448 39.08C147.594 39.2667 147.668 39.4733 147.668 39.7C147.668 39.9133 147.661 40.1933 147.648 40.54C147.648 40.8733 147.648 41.1533 147.648 41.38C147.914 40.7 148.328 40.1 148.888 39.58C149.461 39.06 150.048 38.8 150.648 38.8C151.248 38.8 151.708 38.9267 152.028 39.18C152.361 39.42 152.528 39.68 152.528 39.96C152.528 40.24 152.454 40.46 152.308 40.62C152.161 40.78 151.968 40.86 151.728 40.86C151.501 40.86 151.248 40.74 150.968 40.5C150.701 40.2467 150.488 40.12 150.328 40.12C149.888 40.12 149.374 40.5933 148.788 41.54C148.201 42.4867 147.828 43.4467 147.668 44.42ZM161.977 44.16C161.977 45.16 162.05 45.98 162.197 46.62C162.343 47.2467 162.517 47.6 162.717 47.68C162.797 47.72 162.89 47.7467 162.997 47.76C163.117 47.7733 163.197 47.7933 163.237 47.82C163.29 47.8467 163.317 47.9 163.317 47.98C163.317 48.34 163.217 48.6333 163.017 48.86C162.83 49.0867 162.543 49.2 162.157 49.2C161.77 49.2 161.47 48.9533 161.257 48.46C161.043 47.9667 160.937 47.3333 160.937 46.56C160.603 47.3067 160.11 47.9333 159.457 48.44C158.817 48.9467 158.09 49.2 157.277 49.2C156.477 49.2 155.783 48.9333 155.197 48.4C154.13 47.4267 153.597 46.0333 153.597 44.22C153.597 42.7667 154.017 41.5 154.857 40.42C155.697 39.34 156.777 38.8 158.097 38.8C159.097 38.8 159.963 39.14 160.697 39.82C160.697 39.14 160.95 38.8 161.457 38.8C162.07 38.8 162.377 39.2733 162.377 40.22C162.377 41.1533 162.243 42.4667 161.977 44.16ZM160.817 44.34L160.717 41.26C159.917 40.4867 159.077 40.1 158.197 40.1C157.33 40.1 156.583 40.4933 155.957 41.28C155.33 42.0667 155.017 43.0133 155.017 44.12C155.017 45.2133 155.217 46.12 155.617 46.84C156.03 47.5467 156.61 47.9 157.357 47.9C158.103 47.9 158.783 47.5667 159.397 46.9C160.01 46.2333 160.483 45.38 160.817 44.34ZM172.383 46.12C172.383 47.0267 172.009 47.7667 171.263 48.34C170.529 48.9133 169.643 49.2 168.603 49.2C167.576 49.2 166.683 48.9667 165.923 48.5C165.163 48.02 164.783 47.5467 164.783 47.08C164.783 46.88 164.843 46.72 164.963 46.6C165.083 46.4667 165.216 46.4 165.363 46.4C165.523 46.4 165.649 46.4333 165.743 46.5C165.836 46.5533 165.963 46.6667 166.123 46.84C166.283 47.0133 166.423 47.16 166.543 47.28C166.676 47.4 166.936 47.5333 167.323 47.68C167.723 47.8267 168.089 47.9 168.423 47.9C169.156 47.9 169.756 47.7533 170.223 47.46C170.703 47.1533 170.943 46.7133 170.943 46.14C170.943 45.4467 170.276 44.8667 168.943 44.4C168.396 44.2133 167.843 44.0133 167.283 43.8C166.736 43.5733 166.269 43.2667 165.883 42.88C165.496 42.4933 165.303 42.0333 165.303 41.5C165.303 40.78 165.629 40.1533 166.283 39.62C166.936 39.0733 167.736 38.8 168.683 38.8C169.629 38.8 170.376 38.9667 170.923 39.3C171.483 39.62 171.763 39.96 171.763 40.32C171.763 40.76 171.529 40.98 171.063 40.98C170.863 40.98 170.663 40.9067 170.463 40.76C169.836 40.32 169.236 40.1 168.663 40.1C168.089 40.1 167.623 40.2333 167.263 40.5C166.903 40.7533 166.723 41.0533 166.723 41.4C166.723 41.7333 166.916 42.02 167.303 42.26C167.689 42.5 168.156 42.72 168.703 42.92C169.263 43.12 169.823 43.3467 170.383 43.6C170.943 43.84 171.416 44.18 171.803 44.62C172.189 45.0467 172.383 45.5467 172.383 46.12ZM178.564 43.62C179.471 43.62 180.191 43.4667 180.724 43.16C181.271 42.8533 181.544 42.44 181.544 41.92C181.544 41.4 181.364 40.9533 181.004 40.58C180.657 40.1933 180.157 40 179.504 40C178.624 40 177.884 40.3333 177.284 41C176.684 41.6533 176.297 42.42 176.124 43.3C176.857 43.5133 177.671 43.62 178.564 43.62ZM179.324 38.7C180.404 38.7 181.277 39 181.944 39.6C182.624 40.2 182.964 40.98 182.964 41.94C182.964 42.9 182.544 43.6333 181.704 44.14C180.877 44.6333 179.857 44.88 178.644 44.88C177.951 44.88 177.104 44.78 176.104 44.58C176.184 45.5133 176.531 46.32 177.144 47C177.771 47.6667 178.464 48 179.224 48C179.677 48 180.097 47.94 180.484 47.82C180.871 47.6867 181.164 47.5467 181.364 47.4C181.897 46.9867 182.244 46.78 182.404 46.78C182.577 46.78 182.711 46.8333 182.804 46.94C182.911 47.0333 182.964 47.1533 182.964 47.3C182.964 47.6733 182.577 48.1 181.804 48.58C181.044 49.06 180.217 49.3 179.324 49.3C177.937 49.3 176.837 48.8133 176.024 47.84C175.211 46.8667 174.771 45.6933 174.704 44.32C173.997 44.1067 173.644 43.76 173.644 43.28C173.644 43.08 173.697 42.9267 173.804 42.82C173.924 42.7 174.064 42.64 174.224 42.64C174.384 42.64 174.584 42.7 174.824 42.82C175.117 41.62 175.671 40.6333 176.484 39.86C177.311 39.0867 178.257 38.7 179.324 38.7ZM193.865 42.7L193.765 45.84C193.765 46.2133 193.765 46.5 193.765 46.7C193.779 46.8867 193.819 47.0867 193.885 47.3C193.965 47.5 194.059 47.6267 194.165 47.68C194.272 47.72 194.379 47.7467 194.485 47.76C194.605 47.7733 194.685 47.7933 194.725 47.82C194.779 47.8467 194.805 47.9 194.805 47.98C194.805 48.3267 194.692 48.62 194.465 48.86C194.252 49.0867 193.999 49.2 193.705 49.2C193.199 49.2 192.845 49 192.645 48.6C192.459 48.2 192.365 47.6133 192.365 46.84L192.445 43.16C192.445 42.2533 192.252 41.52 191.865 40.96C191.479 40.4 190.939 40.12 190.245 40.12C189.565 40.12 188.905 40.5 188.265 41.26C187.625 42.02 187.179 42.88 186.925 43.84L186.985 48.18C186.985 48.86 186.732 49.2 186.225 49.2C185.612 49.2 185.305 48.7333 185.305 47.8C185.305 46.8533 185.439 45.5333 185.705 43.84C185.705 43.28 185.645 42.5067 185.525 41.52C185.419 40.5333 185.365 39.9267 185.365 39.7C185.365 39.46 185.432 39.2533 185.565 39.08C185.712 38.8933 185.905 38.8 186.145 38.8C186.385 38.8 186.572 38.8933 186.705 39.08C186.852 39.2533 186.925 39.4533 186.925 39.68C186.925 39.9067 186.919 40.1867 186.905 40.52C186.905 40.84 186.905 41.1133 186.905 41.34C187.879 39.6467 189.079 38.8 190.505 38.8C191.572 38.8 192.399 39.18 192.985 39.94C193.572 40.7 193.865 41.62 193.865 42.7ZM193.165 35.36C193.165 35.8133 192.992 36.2133 192.645 36.56C192.312 36.8933 191.912 37.06 191.445 37.06C190.992 37.06 190.445 36.88 189.805 36.52C189.165 36.1467 188.705 35.96 188.425 35.96C188.159 35.96 187.932 36.06 187.745 36.26C187.572 36.46 187.405 36.6667 187.245 36.88C187.085 37.08 186.905 37.18 186.705 37.18C186.519 37.18 186.359 37.1067 186.225 36.96C186.092 36.8133 186.025 36.6467 186.025 36.46C186.025 35.9933 186.239 35.5867 186.665 35.24C187.092 34.88 187.579 34.7 188.125 34.7C188.685 34.7 189.305 34.8867 189.985 35.26C190.679 35.6333 191.165 35.82 191.445 35.82C191.739 35.82 191.999 35.6533 192.225 35.32C192.452 34.9733 192.625 34.8 192.745 34.8C192.865 34.8 192.965 34.86 193.045 34.98C193.125 35.0867 193.165 35.2133 193.165 35.36ZM204.867 44.16C204.867 45.16 204.941 45.98 205.087 46.62C205.234 47.2467 205.407 47.6 205.607 47.68C205.687 47.72 205.781 47.7467 205.887 47.76C206.007 47.7733 206.087 47.7933 206.127 47.82C206.181 47.8467 206.207 47.9 206.207 47.98C206.207 48.34 206.107 48.6333 205.907 48.86C205.721 49.0867 205.434 49.2 205.047 49.2C204.661 49.2 204.361 48.9533 204.147 48.46C203.934 47.9667 203.827 47.3333 203.827 46.56C203.494 47.3067 203.001 47.9333 202.347 48.44C201.707 48.9467 200.981 49.2 200.167 49.2C199.367 49.2 198.674 48.9333 198.087 48.4C197.021 47.4267 196.487 46.0333 196.487 44.22C196.487 42.7667 196.907 41.5 197.747 40.42C198.587 39.34 199.667 38.8 200.987 38.8C201.987 38.8 202.854 39.14 203.587 39.82C203.587 39.14 203.841 38.8 204.347 38.8C204.961 38.8 205.267 39.2733 205.267 40.22C205.267 41.1533 205.134 42.4667 204.867 44.16ZM203.707 44.34L203.607 41.26C202.807 40.4867 201.967 40.1 201.087 40.1C200.221 40.1 199.474 40.4933 198.847 41.28C198.221 42.0667 197.907 43.0133 197.907 44.12C197.907 45.2133 198.107 46.12 198.507 46.84C198.921 47.5467 199.501 47.9 200.247 47.9C200.994 47.9 201.674 47.5667 202.287 46.9C202.901 46.2333 203.374 45.38 203.707 44.34ZM209.973 48.02C209.973 48.9267 209.74 49.8267 209.273 50.72C208.82 51.6133 208.366 52.06 207.913 52.06C207.806 52.06 207.713 52.02 207.633 51.94C207.553 51.8733 207.513 51.7867 207.513 51.68C207.513 51.5867 207.633 51.3267 207.873 50.9C208.126 50.4867 208.253 50.1067 208.253 49.76C208.253 49.4267 208.226 49.14 208.173 48.9C208.12 48.6467 208.093 48.3867 208.093 48.12C208.093 47.8533 208.186 47.5933 208.373 47.34C208.573 47.0867 208.813 46.96 209.093 46.96C209.386 46.96 209.606 47.0667 209.753 47.28C209.9 47.48 209.973 47.7267 209.973 48.02ZM218.258 34.5C218.538 34.5 218.745 34.5933 218.878 34.78C219.011 34.9533 219.078 35.18 219.078 35.46C219.078 35.7267 218.985 36 218.798 36.28C218.611 36.5467 218.378 36.68 218.098 36.68C217.818 36.68 217.605 36.5867 217.458 36.4C217.325 36.2133 217.258 35.9667 217.258 35.66C217.258 35.3533 217.351 35.0867 217.538 34.86C217.738 34.62 217.978 34.5 218.258 34.5ZM218.818 44L218.918 48.2C218.918 48.8667 218.665 49.2 218.158 49.2C217.651 49.2 217.398 48.8667 217.398 48.2L217.498 44L217.398 39.8C217.398 39.1333 217.651 38.8 218.158 38.8C218.665 38.8 218.918 39.1333 218.918 39.8L218.818 44ZM230.311 42.7L230.211 45.84C230.211 46.2133 230.211 46.5 230.211 46.7C230.224 46.8867 230.264 47.0867 230.331 47.3C230.411 47.5 230.504 47.6267 230.611 47.68C230.717 47.72 230.824 47.7467 230.931 47.76C231.051 47.7733 231.131 47.7933 231.171 47.82C231.224 47.8467 231.251 47.9 231.251 47.98C231.251 48.3267 231.137 48.62 230.911 48.86C230.697 49.0867 230.444 49.2 230.151 49.2C229.644 49.2 229.291 49 229.091 48.6C228.904 48.2 228.811 47.6133 228.811 46.84L228.891 43.16C228.891 42.2533 228.697 41.52 228.311 40.96C227.924 40.4 227.384 40.12 226.691 40.12C226.011 40.12 225.351 40.5 224.711 41.26C224.071 42.02 223.624 42.88 223.371 43.84L223.431 48.18C223.431 48.86 223.177 49.2 222.671 49.2C222.057 49.2 221.751 48.7333 221.751 47.8C221.751 46.8533 221.884 45.5333 222.151 43.84C222.151 43.28 222.091 42.5067 221.971 41.52C221.864 40.5333 221.811 39.9267 221.811 39.7C221.811 39.46 221.877 39.2533 222.011 39.08C222.157 38.8933 222.351 38.8 222.591 38.8C222.831 38.8 223.017 38.8933 223.151 39.08C223.297 39.2533 223.371 39.4533 223.371 39.68C223.371 39.9067 223.364 40.1867 223.351 40.52C223.351 40.84 223.351 41.1133 223.351 41.34C224.324 39.6467 225.524 38.8 226.951 38.8C228.017 38.8 228.844 39.18 229.431 39.94C230.017 40.7 230.311 41.62 230.311 42.7ZM240.133 44.32V41.26C239.399 40.4867 238.586 40.1 237.693 40.1C236.813 40.1 236.039 40.5 235.373 41.3C234.719 42.0867 234.393 43.0267 234.393 44.12C234.393 45.2 234.599 46.1 235.013 46.82C235.426 47.54 235.993 47.9 236.713 47.9C237.446 47.9 238.119 47.56 238.733 46.88C239.346 46.2 239.813 45.3467 240.133 44.32ZM240.093 39.74C240.119 39.1133 240.373 38.8 240.853 38.8C241.466 38.8 241.773 39.2733 241.773 40.22C241.773 41.1533 241.639 42.4667 241.373 44.16C241.533 45.7867 241.613 47 241.613 47.8C241.613 49.5467 241.199 50.9467 240.373 52C239.559 53.0667 238.413 53.6 236.933 53.6C236.106 53.6 235.326 53.4267 234.593 53.08C233.859 52.7467 233.493 52.4067 233.493 52.06C233.493 51.7267 233.646 51.56 233.953 51.56C234.073 51.56 234.413 51.68 234.973 51.92C235.546 52.1733 236.199 52.3 236.933 52.3C237.999 52.3 238.839 51.9 239.453 51.1C240.066 50.3 240.373 49.2667 240.373 48C240.373 47.48 240.339 47 240.273 46.56C239.979 47.28 239.499 47.9 238.833 48.42C238.179 48.94 237.499 49.2 236.793 49.2C236.099 49.2 235.506 49.0467 235.013 48.74C234.519 48.4333 234.119 48.0333 233.813 47.54C233.213 46.54 232.913 45.38 232.913 44.06C232.913 42.7267 233.359 41.52 234.253 40.44C235.159 39.3467 236.273 38.8 237.593 38.8C238.513 38.8 239.346 39.1133 240.093 39.74ZM246.105 44.42L246.165 48.18C246.165 48.86 245.912 49.2 245.405 49.2C244.792 49.2 244.485 48.7333 244.485 47.8C244.485 46.8533 244.618 45.5333 244.885 43.84C244.885 43.28 244.825 42.5133 244.705 41.54C244.598 40.5667 244.545 39.96 244.545 39.72C244.545 39.48 244.612 39.2667 244.745 39.08C244.892 38.8933 245.085 38.8 245.325 38.8C245.565 38.8 245.752 38.8933 245.885 39.08C246.032 39.2667 246.105 39.4733 246.105 39.7C246.105 39.9133 246.098 40.1933 246.085 40.54C246.085 40.8733 246.085 41.1533 246.085 41.38C246.352 40.7 246.765 40.1 247.325 39.58C247.898 39.06 248.485 38.8 249.085 38.8C249.685 38.8 250.145 38.9267 250.465 39.18C250.798 39.42 250.965 39.68 250.965 39.96C250.965 40.24 250.892 40.46 250.745 40.62C250.598 40.78 250.405 40.86 250.165 40.86C249.938 40.86 249.685 40.74 249.405 40.5C249.138 40.2467 248.925 40.12 248.765 40.12C248.325 40.12 247.812 40.5933 247.225 41.54C246.638 42.4867 246.265 43.4467 246.105 44.42ZM256.084 43.62C256.99 43.62 257.71 43.4667 258.244 43.16C258.79 42.8533 259.064 42.44 259.064 41.92C259.064 41.4 258.884 40.9533 258.524 40.58C258.177 40.1933 257.677 40 257.024 40C256.144 40 255.404 40.3333 254.804 41C254.204 41.6533 253.817 42.42 253.644 43.3C254.377 43.5133 255.19 43.62 256.084 43.62ZM256.844 38.7C257.924 38.7 258.797 39 259.464 39.6C260.144 40.2 260.484 40.98 260.484 41.94C260.484 42.9 260.064 43.6333 259.224 44.14C258.397 44.6333 257.377 44.88 256.164 44.88C255.47 44.88 254.624 44.78 253.624 44.58C253.704 45.5133 254.05 46.32 254.664 47C255.29 47.6667 255.984 48 256.744 48C257.197 48 257.617 47.94 258.004 47.82C258.39 47.6867 258.684 47.5467 258.884 47.4C259.417 46.9867 259.764 46.78 259.924 46.78C260.097 46.78 260.23 46.8333 260.324 46.94C260.43 47.0333 260.484 47.1533 260.484 47.3C260.484 47.6733 260.097 48.1 259.324 48.58C258.564 49.06 257.737 49.3 256.844 49.3C255.457 49.3 254.357 48.8133 253.544 47.84C252.73 46.8667 252.29 45.6933 252.224 44.32C251.517 44.1067 251.164 43.76 251.164 43.28C251.164 43.08 251.217 42.9267 251.324 42.82C251.444 42.7 251.584 42.64 251.744 42.64C251.904 42.64 252.104 42.7 252.344 42.82C252.637 41.62 253.19 40.6333 254.004 39.86C254.83 39.0867 255.777 38.7 256.844 38.7ZM269.785 46.12C269.785 47.0267 269.412 47.7667 268.665 48.34C267.932 48.9133 267.045 49.2 266.005 49.2C264.978 49.2 264.085 48.9667 263.325 48.5C262.565 48.02 262.185 47.5467 262.185 47.08C262.185 46.88 262.245 46.72 262.365 46.6C262.485 46.4667 262.618 46.4 262.765 46.4C262.925 46.4 263.052 46.4333 263.145 46.5C263.238 46.5533 263.365 46.6667 263.525 46.84C263.685 47.0133 263.825 47.16 263.945 47.28C264.078 47.4 264.338 47.5333 264.725 47.68C265.125 47.8267 265.492 47.9 265.825 47.9C266.558 47.9 267.158 47.7533 267.625 47.46C268.105 47.1533 268.345 46.7133 268.345 46.14C268.345 45.4467 267.678 44.8667 266.345 44.4C265.798 44.2133 265.245 44.0133 264.685 43.8C264.138 43.5733 263.672 43.2667 263.285 42.88C262.898 42.4933 262.705 42.0333 262.705 41.5C262.705 40.78 263.032 40.1533 263.685 39.62C264.338 39.0733 265.138 38.8 266.085 38.8C267.032 38.8 267.778 38.9667 268.325 39.3C268.885 39.62 269.165 39.96 269.165 40.32C269.165 40.76 268.932 40.98 268.465 40.98C268.265 40.98 268.065 40.9067 267.865 40.76C267.238 40.32 266.638 40.1 266.065 40.1C265.492 40.1 265.025 40.2333 264.665 40.5C264.305 40.7533 264.125 41.0533 264.125 41.4C264.125 41.7333 264.318 42.02 264.705 42.26C265.092 42.5 265.558 42.72 266.105 42.92C266.665 43.12 267.225 43.3467 267.785 43.6C268.345 43.84 268.818 44.18 269.205 44.62C269.592 45.0467 269.785 45.5467 269.785 46.12ZM279.906 44.16C279.906 45.16 279.98 45.98 280.126 46.62C280.273 47.2467 280.446 47.6 280.646 47.68C280.726 47.72 280.82 47.7467 280.926 47.76C281.046 47.7733 281.126 47.7933 281.166 47.82C281.22 47.8467 281.246 47.9 281.246 47.98C281.246 48.34 281.146 48.6333 280.946 48.86C280.76 49.0867 280.473 49.2 280.086 49.2C279.7 49.2 279.4 48.9533 279.186 48.46C278.973 47.9667 278.866 47.3333 278.866 46.56C278.533 47.3067 278.04 47.9333 277.386 48.44C276.746 48.9467 276.02 49.2 275.206 49.2C274.406 49.2 273.713 48.9333 273.126 48.4C272.06 47.4267 271.526 46.0333 271.526 44.22C271.526 42.7667 271.946 41.5 272.786 40.42C273.626 39.34 274.706 38.8 276.026 38.8C277.026 38.8 277.893 39.14 278.626 39.82C278.626 39.14 278.88 38.8 279.386 38.8C280 38.8 280.306 39.2733 280.306 40.22C280.306 41.1533 280.173 42.4667 279.906 44.16ZM278.746 44.34L278.646 41.26C277.846 40.4867 277.006 40.1 276.126 40.1C275.26 40.1 274.513 40.4933 273.886 41.28C273.26 42.0667 272.946 43.0133 272.946 44.12C272.946 45.2133 273.146 46.12 273.546 46.84C273.96 47.5467 274.54 47.9 275.286 47.9C276.033 47.9 276.713 47.5667 277.326 46.9C277.94 46.2333 278.413 45.38 278.746 44.34ZM32.1463 65.22L32.1063 69.96C32.1063 71.1733 32.153 71.9667 32.2463 72.34C32.353 72.7133 32.6197 72.9 33.0463 72.9C33.2463 72.9 33.4863 72.8333 33.7663 72.7C34.0597 72.5533 34.253 72.48 34.3463 72.48C34.6263 72.48 34.7663 72.62 34.7663 72.9C34.7663 73.1667 34.5197 73.4533 34.0263 73.76C33.533 74.0533 33.0463 74.2 32.5663 74.2C31.4063 74.2 30.8263 73.3467 30.8263 71.64L30.8063 65.22C30.3663 65.26 30.0597 65.28 29.8863 65.28C29.2197 65.28 28.8863 65.06 28.8863 64.62C28.8863 64.18 29.2197 63.96 29.8863 63.96C29.9397 63.96 30.233 63.9733 30.7663 64L30.7263 61.76C30.7263 61.0933 30.9797 60.76 31.4863 60.76C31.993 60.76 32.2463 61.0933 32.2463 61.76L32.1863 64.02L33.8063 63.94C34.473 63.94 34.8063 64.1667 34.8063 64.62C34.8063 65.0467 34.473 65.26 33.8063 65.26C33.6863 65.26 33.133 65.2467 32.1463 65.22ZM38.2446 65.44L38.0846 69.84C38.0846 70.7467 38.2779 71.4867 38.6646 72.06C39.0513 72.62 39.5846 72.9 40.2646 72.9C40.9579 72.9 41.6246 72.52 42.2646 71.76C42.9046 70.9867 43.3513 70.12 43.6046 69.16L43.5446 64.82C43.5446 64.14 43.7979 63.8 44.3046 63.8C44.9179 63.8 45.2246 64.2733 45.2246 65.22C45.2246 66.1533 45.0913 67.4667 44.8246 69.16C44.8246 70.16 44.8979 70.98 45.0446 71.62C45.1913 72.2467 45.3646 72.6 45.5646 72.68C45.6446 72.72 45.7379 72.7467 45.8446 72.76C45.9646 72.7733 46.0446 72.7933 46.0846 72.82C46.1379 72.8467 46.1646 72.9 46.1646 72.98C46.1646 73.34 46.0513 73.6333 45.8246 73.86C45.6113 74.0867 45.3379 74.2 45.0046 74.2C44.1646 74.2 43.7446 73.3467 43.7446 71.64C42.7579 73.3467 41.5179 74.2 40.0246 74.2C38.9579 74.2 38.1313 73.8067 37.5446 73.02C36.9579 72.22 36.6646 71.2467 36.6646 70.1L36.7846 67.08C36.7846 66.5467 36.7313 66.0533 36.6246 65.6C36.5179 65.1333 36.4646 64.8 36.4646 64.6C36.4646 64.4 36.5446 64.22 36.7046 64.06C36.8646 63.8867 37.0713 63.8 37.3246 63.8C37.9379 63.8 38.2446 64.3467 38.2446 65.44ZM60.5899 71.94C60.9233 71.94 61.0899 72.12 61.0899 72.48C61.0899 72.8267 60.7033 73.22 59.9299 73.66C59.1566 74.0867 58.3433 74.3 57.4899 74.3C56.0899 74.3 54.9233 73.7867 53.9899 72.76C53.0566 71.72 52.5899 70.4667 52.5899 69C52.5899 67.5333 53.0566 66.2867 53.9899 65.26C54.9366 64.22 56.1766 63.7 57.7099 63.7C58.5499 63.7 59.2899 63.8933 59.9299 64.28C60.5833 64.6533 60.9099 65.04 60.9099 65.44C60.9099 65.6533 60.8433 65.8333 60.7099 65.98C60.5766 66.1133 60.4233 66.18 60.2499 66.18C60.0766 66.18 59.8766 66.08 59.6499 65.88C58.9566 65.2933 58.2499 65 57.5299 65C56.6099 65 55.8033 65.3867 55.1099 66.16C54.4299 66.9333 54.0899 67.8733 54.0899 68.98C54.0899 70.0867 54.4366 71.0333 55.1299 71.82C55.8233 72.6067 56.6833 73 57.7099 73C58.4966 73 59.2633 72.7333 60.0099 72.2C60.2633 72.0267 60.4566 71.94 60.5899 71.94ZM69.5899 71.82C70.2433 71.0333 70.5699 70.0867 70.5699 68.98C70.5699 67.8733 70.2566 66.9333 69.6299 66.16C69.0166 65.3867 68.2499 65 67.3299 65C66.4099 65 65.6233 65.3933 64.9699 66.18C64.3299 66.9667 64.0099 67.9133 64.0099 69.02C64.0099 70.1267 64.3166 71.0667 64.9299 71.84C65.5566 72.6133 66.3299 73 67.2499 73C68.1699 73 68.9499 72.6067 69.5899 71.82ZM67.2899 63.7C68.6633 63.7 69.7899 64.2133 70.6699 65.24C71.5499 66.2533 71.9899 67.5 71.9899 68.98C71.9899 70.46 71.5433 71.72 70.6499 72.76C69.7566 73.7867 68.6299 74.3 67.2699 74.3C65.9099 74.3 64.7899 73.7933 63.9099 72.78C63.0299 71.7533 62.5899 70.5 62.5899 69.02C62.5899 67.54 63.0299 66.2867 63.9099 65.26C64.8033 64.22 65.9299 63.7 67.2899 63.7ZM75.8804 69.42L75.9404 73.18C75.9404 73.86 75.6871 74.2 75.1804 74.2C74.5671 74.2 74.2604 73.7333 74.2604 72.8C74.2604 71.8533 74.3937 70.5333 74.6604 68.84C74.6604 68.28 74.6004 67.5133 74.4804 66.54C74.3737 65.5667 74.3204 64.96 74.3204 64.72C74.3204 64.48 74.3871 64.2667 74.5204 64.08C74.6671 63.8933 74.8604 63.8 75.1004 63.8C75.3404 63.8 75.5271 63.8933 75.6604 64.08C75.8071 64.2667 75.8804 64.4733 75.8804 64.7C75.8804 64.9133 75.8737 65.1933 75.8604 65.54C75.8604 65.8733 75.8604 66.1533 75.8604 66.38C76.1271 65.7 76.5404 65.1 77.1004 64.58C77.6737 64.06 78.2604 63.8 78.8604 63.8C79.4604 63.8 79.9204 63.9267 80.2404 64.18C80.5737 64.42 80.7404 64.68 80.7404 64.96C80.7404 65.24 80.6671 65.46 80.5204 65.62C80.3737 65.78 80.1804 65.86 79.9404 65.86C79.7137 65.86 79.4604 65.74 79.1804 65.5C78.9137 65.2467 78.7004 65.12 78.5404 65.12C78.1004 65.12 77.5871 65.5933 77.0004 66.54C76.4137 67.4867 76.0404 68.4467 75.8804 69.42ZM84.0445 69.42L84.1045 73.18C84.1045 73.86 83.8511 74.2 83.3445 74.2C82.7311 74.2 82.4245 73.7333 82.4245 72.8C82.4245 71.8533 82.5578 70.5333 82.8245 68.84C82.8245 68.28 82.7645 67.5133 82.6445 66.54C82.5378 65.5667 82.4845 64.96 82.4845 64.72C82.4845 64.48 82.5511 64.2667 82.6845 64.08C82.8311 63.8933 83.0245 63.8 83.2645 63.8C83.5045 63.8 83.6911 63.8933 83.8245 64.08C83.9711 64.2667 84.0445 64.4733 84.0445 64.7C84.0445 64.9133 84.0378 65.1933 84.0245 65.54C84.0245 65.8733 84.0245 66.1533 84.0245 66.38C84.2911 65.7 84.7045 65.1 85.2645 64.58C85.8378 64.06 86.4245 63.8 87.0245 63.8C87.6245 63.8 88.0845 63.9267 88.4045 64.18C88.7378 64.42 88.9045 64.68 88.9045 64.96C88.9045 65.24 88.8311 65.46 88.6845 65.62C88.5378 65.78 88.3445 65.86 88.1045 65.86C87.8778 65.86 87.6245 65.74 87.3445 65.5C87.0778 65.2467 86.8645 65.12 86.7045 65.12C86.2645 65.12 85.7511 65.5933 85.1645 66.54C84.5778 67.4867 84.2045 68.4467 84.0445 69.42ZM94.023 68.62C94.9297 68.62 95.6497 68.4667 96.183 68.16C96.7297 67.8533 97.003 67.44 97.003 66.92C97.003 66.4 96.823 65.9533 96.463 65.58C96.1164 65.1933 95.6164 65 94.963 65C94.083 65 93.343 65.3333 92.743 66C92.143 66.6533 91.7564 67.42 91.583 68.3C92.3164 68.5133 93.1297 68.62 94.023 68.62ZM94.783 63.7C95.863 63.7 96.7364 64 97.403 64.6C98.083 65.2 98.423 65.98 98.423 66.94C98.423 67.9 98.003 68.6333 97.163 69.14C96.3364 69.6333 95.3164 69.88 94.103 69.88C93.4097 69.88 92.563 69.78 91.563 69.58C91.643 70.5133 91.9897 71.32 92.603 72C93.2297 72.6667 93.923 73 94.683 73C95.1364 73 95.5564 72.94 95.943 72.82C96.3297 72.6867 96.623 72.5467 96.823 72.4C97.3564 71.9867 97.703 71.78 97.863 71.78C98.0364 71.78 98.1697 71.8333 98.263 71.94C98.3697 72.0333 98.423 72.1533 98.423 72.3C98.423 72.6733 98.0364 73.1 97.263 73.58C96.503 74.06 95.6764 74.3 94.783 74.3C93.3964 74.3 92.2964 73.8133 91.483 72.84C90.6697 71.8667 90.2297 70.6933 90.163 69.32C89.4564 69.1067 89.103 68.76 89.103 68.28C89.103 68.08 89.1564 67.9267 89.263 67.82C89.383 67.7 89.523 67.64 89.683 67.64C89.843 67.64 90.043 67.7 90.283 67.82C90.5764 66.62 91.1297 65.6333 91.943 64.86C92.7697 64.0867 93.7164 63.7 94.783 63.7ZM107.324 71.82C107.978 71.0333 108.304 70.0867 108.304 68.98C108.304 67.8733 107.991 66.9333 107.364 66.16C106.751 65.3867 105.984 65 105.064 65C104.144 65 103.358 65.3933 102.704 66.18C102.064 66.9667 101.744 67.9133 101.744 69.02C101.744 70.1267 102.051 71.0667 102.664 71.84C103.291 72.6133 104.064 73 104.984 73C105.904 73 106.684 72.6067 107.324 71.82ZM105.024 63.7C106.398 63.7 107.524 64.2133 108.404 65.24C109.284 66.2533 109.724 67.5 109.724 68.98C109.724 70.46 109.278 71.72 108.384 72.76C107.491 73.7867 106.364 74.3 105.004 74.3C103.644 74.3 102.524 73.7933 101.644 72.78C100.764 71.7533 100.324 70.5 100.324 69.02C100.324 67.54 100.764 66.2867 101.644 65.26C102.538 64.22 103.664 63.7 105.024 63.7ZM121.16 72.9C122.014 72.9 122.76 72.5067 123.4 71.72C124.054 70.9333 124.38 70.0133 124.38 68.96C124.38 67.8933 124.147 66.9867 123.68 66.24C123.214 65.48 122.58 65.1 121.78 65.1C120.38 65.1 119.227 66.2533 118.32 68.56V71.74C119.12 72.5133 120.067 72.9 121.16 72.9ZM117.08 70.2L117.1 69.44V69.12C117.1 68.56 117.04 67.74 116.92 66.66C116.8 65.58 116.74 64.9267 116.74 64.7C116.74 64.46 116.807 64.2533 116.94 64.08C117.087 63.8933 117.28 63.8 117.52 63.8C117.76 63.8 117.947 63.8933 118.08 64.08C118.227 64.2533 118.3 64.4533 118.3 64.68C118.3 64.9067 118.294 65.1933 118.28 65.54C118.28 65.8733 118.28 66.1533 118.28 66.38C118.72 65.5667 119.214 64.9333 119.76 64.48C120.307 64.0267 121.014 63.8 121.88 63.8C122.747 63.8 123.494 64.08 124.12 64.64C124.747 65.2 125.194 65.8467 125.46 66.58C125.727 67.3133 125.86 68.0467 125.86 68.78C125.86 70.2333 125.42 71.5 124.54 72.58C123.66 73.66 122.534 74.2 121.16 74.2C120.16 74.2 119.214 73.8733 118.32 73.22C118.294 74.8333 118.28 76.0267 118.28 76.8C118.28 77.5867 118.214 78.08 118.08 78.28C117.947 78.4933 117.74 78.6 117.46 78.6C117.18 78.6 116.947 78.48 116.76 78.24C116.587 78.0133 116.5 77.68 116.5 77.24C116.5 76.8 116.527 76.2733 116.58 75.66C116.634 75.06 116.714 74.2667 116.82 73.28C116.927 72.28 117.014 71.38 117.08 70.58V70.2ZM136.147 69.16C136.147 70.16 136.22 70.98 136.367 71.62C136.513 72.2467 136.687 72.6 136.887 72.68C136.967 72.72 137.06 72.7467 137.167 72.76C137.287 72.7733 137.367 72.7933 137.407 72.82C137.46 72.8467 137.487 72.9 137.487 72.98C137.487 73.34 137.387 73.6333 137.187 73.86C137 74.0867 136.713 74.2 136.327 74.2C135.94 74.2 135.64 73.9533 135.427 73.46C135.213 72.9667 135.107 72.3333 135.107 71.56C134.773 72.3067 134.28 72.9333 133.627 73.44C132.987 73.9467 132.26 74.2 131.447 74.2C130.647 74.2 129.953 73.9333 129.367 73.4C128.3 72.4267 127.767 71.0333 127.767 69.22C127.767 67.7667 128.187 66.5 129.027 65.42C129.867 64.34 130.947 63.8 132.267 63.8C133.267 63.8 134.133 64.14 134.867 64.82C134.867 64.14 135.12 63.8 135.627 63.8C136.24 63.8 136.547 64.2733 136.547 65.22C136.547 66.1533 136.413 67.4667 136.147 69.16ZM134.987 69.34L134.887 66.26C134.087 65.4867 133.247 65.1 132.367 65.1C131.5 65.1 130.753 65.4933 130.127 66.28C129.5 67.0667 129.187 68.0133 129.187 69.12C129.187 70.2133 129.387 71.12 129.787 71.84C130.2 72.5467 130.78 72.9 131.527 72.9C132.273 72.9 132.953 72.5667 133.567 71.9C134.18 71.2333 134.653 70.38 134.987 69.34ZM141.212 69.42L141.272 73.18C141.272 73.86 141.019 74.2 140.512 74.2C139.899 74.2 139.592 73.7333 139.592 72.8C139.592 71.8533 139.726 70.5333 139.992 68.84C139.992 68.28 139.932 67.5133 139.812 66.54C139.706 65.5667 139.652 64.96 139.652 64.72C139.652 64.48 139.719 64.2667 139.852 64.08C139.999 63.8933 140.192 63.8 140.432 63.8C140.672 63.8 140.859 63.8933 140.992 64.08C141.139 64.2667 141.212 64.4733 141.212 64.7C141.212 64.9133 141.206 65.1933 141.192 65.54C141.192 65.8733 141.192 66.1533 141.192 66.38C141.459 65.7 141.872 65.1 142.432 64.58C143.006 64.06 143.592 63.8 144.192 63.8C144.792 63.8 145.252 63.9267 145.572 64.18C145.906 64.42 146.072 64.68 146.072 64.96C146.072 65.24 145.999 65.46 145.852 65.62C145.706 65.78 145.512 65.86 145.272 65.86C145.046 65.86 144.792 65.74 144.512 65.5C144.246 65.2467 144.032 65.12 143.872 65.12C143.432 65.12 142.919 65.5933 142.332 66.54C141.746 67.4867 141.372 68.4467 141.212 69.42ZM155.522 69.16C155.522 70.16 155.595 70.98 155.742 71.62C155.888 72.2467 156.062 72.6 156.262 72.68C156.342 72.72 156.435 72.7467 156.542 72.76C156.662 72.7733 156.742 72.7933 156.782 72.82C156.835 72.8467 156.862 72.9 156.862 72.98C156.862 73.34 156.762 73.6333 156.562 73.86C156.375 74.0867 156.088 74.2 155.702 74.2C155.315 74.2 155.015 73.9533 154.802 73.46C154.588 72.9667 154.482 72.3333 154.482 71.56C154.148 72.3067 153.655 72.9333 153.002 73.44C152.362 73.9467 151.635 74.2 150.822 74.2C150.022 74.2 149.328 73.9333 148.742 73.4C147.675 72.4267 147.142 71.0333 147.142 69.22C147.142 67.7667 147.562 66.5 148.402 65.42C149.242 64.34 150.322 63.8 151.642 63.8C152.642 63.8 153.508 64.14 154.242 64.82C154.242 64.14 154.495 63.8 155.002 63.8C155.615 63.8 155.922 64.2733 155.922 65.22C155.922 66.1533 155.788 67.4667 155.522 69.16ZM154.362 69.34L154.262 66.26C153.462 65.4867 152.622 65.1 151.742 65.1C150.875 65.1 150.128 65.4933 149.502 66.28C148.875 67.0667 148.562 68.0133 148.562 69.12C148.562 70.2133 148.762 71.12 149.162 71.84C149.575 72.5467 150.155 72.9 150.902 72.9C151.648 72.9 152.328 72.5667 152.942 71.9C153.555 71.2333 154.028 70.38 154.362 69.34ZM171.713 69.16C171.713 70.16 171.786 70.98 171.933 71.62C172.08 72.2467 172.253 72.6 172.453 72.68C172.533 72.72 172.626 72.7467 172.733 72.76C172.853 72.7733 172.933 72.7933 172.973 72.82C173.026 72.8467 173.053 72.9 173.053 72.98C173.053 73.34 172.953 73.6333 172.753 73.86C172.566 74.0867 172.28 74.2 171.893 74.2C171.506 74.2 171.206 73.9533 170.993 73.46C170.78 72.9667 170.673 72.3333 170.673 71.56C170.34 72.3067 169.846 72.9333 169.193 73.44C168.553 73.9467 167.826 74.2 167.013 74.2C166.213 74.2 165.52 73.9333 164.933 73.4C163.866 72.4267 163.333 71.0333 163.333 69.22C163.333 67.7667 163.753 66.5 164.593 65.42C165.433 64.34 166.513 63.8 167.833 63.8C168.833 63.8 169.7 64.14 170.433 64.82C170.433 64.14 170.686 63.8 171.193 63.8C171.806 63.8 172.113 64.2733 172.113 65.22C172.113 66.1533 171.98 67.4667 171.713 69.16ZM170.553 69.34L170.453 66.26C169.653 65.4867 168.813 65.1 167.933 65.1C167.066 65.1 166.32 65.4933 165.693 66.28C165.066 67.0667 164.753 68.0133 164.753 69.12C164.753 70.2133 164.953 71.12 165.353 71.84C165.766 72.5467 166.346 72.9 167.093 72.9C167.84 72.9 168.52 72.5667 169.133 71.9C169.746 71.2333 170.22 70.38 170.553 69.34ZM182.081 69.16L182.021 64.82C182.021 64.14 182.275 63.8 182.781 63.8C183.395 63.8 183.701 64.3 183.701 65.3C183.701 66.0867 183.561 67.3733 183.281 69.16C183.441 70.7867 183.521 72 183.521 72.8C183.521 74.5467 183.095 75.9467 182.241 77C181.388 78.0667 180.188 78.6 178.641 78.6C177.815 78.6 177.035 78.4267 176.301 78.08C175.568 77.7467 175.201 77.4067 175.201 77.06C175.201 76.7267 175.355 76.56 175.661 76.56C175.795 76.56 176.161 76.68 176.761 76.92C177.375 77.1733 178.001 77.3 178.641 77.3C179.761 77.3 180.648 76.9 181.301 76.1C181.955 75.3 182.281 74.2667 182.281 73C182.281 72.5333 182.261 72.08 182.221 71.64C181.235 73.3467 179.995 74.2 178.501 74.2C177.435 74.2 176.608 73.8067 176.021 73.02C175.435 72.22 175.141 71.2467 175.141 70.1L175.261 67.08C175.261 66.5467 175.208 66.0533 175.101 65.6C174.995 65.1333 174.941 64.8 174.941 64.6C174.941 64.4 175.021 64.22 175.181 64.06C175.341 63.8867 175.548 63.8 175.801 63.8C176.415 63.8 176.721 64.3467 176.721 65.44L176.561 69.84C176.561 70.7467 176.755 71.4867 177.141 72.06C177.528 72.62 178.061 72.9 178.741 72.9C179.435 72.9 180.101 72.52 180.741 71.76C181.381 70.9867 181.828 70.12 182.081 69.16ZM188.088 65.44L187.928 69.84C187.928 70.7467 188.122 71.4867 188.508 72.06C188.895 72.62 189.428 72.9 190.108 72.9C190.802 72.9 191.468 72.52 192.108 71.76C192.748 70.9867 193.195 70.12 193.448 69.16L193.388 64.82C193.388 64.14 193.642 63.8 194.148 63.8C194.762 63.8 195.068 64.2733 195.068 65.22C195.068 66.1533 194.935 67.4667 194.668 69.16C194.668 70.16 194.742 70.98 194.888 71.62C195.035 72.2467 195.208 72.6 195.408 72.68C195.488 72.72 195.582 72.7467 195.688 72.76C195.808 72.7733 195.888 72.7933 195.928 72.82C195.982 72.8467 196.008 72.9 196.008 72.98C196.008 73.34 195.895 73.6333 195.668 73.86C195.455 74.0867 195.182 74.2 194.848 74.2C194.008 74.2 193.588 73.3467 193.588 71.64C192.602 73.3467 191.362 74.2 189.868 74.2C188.802 74.2 187.975 73.8067 187.388 73.02C186.802 72.22 186.508 71.2467 186.508 70.1L186.628 67.08C186.628 66.5467 186.575 66.0533 186.468 65.6C186.362 65.1333 186.308 64.8 186.308 64.6C186.308 64.4 186.388 64.22 186.548 64.06C186.708 63.8867 186.915 63.8 187.168 63.8C187.782 63.8 188.088 64.3467 188.088 65.44ZM205.15 69.44V66.26C204.35 65.4867 203.403 65.1 202.31 65.1C201.457 65.1 200.703 65.4933 200.05 66.28C199.41 67.0667 199.09 67.9933 199.09 69.06C199.09 70.1133 199.323 71.02 199.79 71.78C200.257 72.5267 200.89 72.9 201.69 72.9C203.09 72.9 204.243 71.7467 205.15 69.44ZM207.27 72.72C207.617 72.72 207.79 72.82 207.79 73.02C207.79 73.2733 207.697 73.5333 207.51 73.8C207.337 74.0667 207.057 74.2 206.67 74.2C206.283 74.2 205.977 73.9867 205.75 73.56C205.537 73.1333 205.383 72.4533 205.29 71.52C204.317 73.3067 203.083 74.2 201.59 74.2C200.723 74.2 199.977 73.92 199.35 73.36C198.723 72.8 198.277 72.1533 198.01 71.42C197.743 70.6867 197.61 69.9533 197.61 69.22C197.61 67.7667 198.05 66.5 198.93 65.42C199.81 64.34 200.937 63.8 202.31 63.8C203.31 63.8 204.257 64.1267 205.15 64.78C205.177 62.9267 205.19 61.5733 205.19 60.72C205.19 59.8533 205.25 59.32 205.37 59.12C205.503 58.9067 205.71 58.8 205.99 58.8C206.283 58.8 206.517 58.92 206.69 59.16C206.877 59.3867 206.97 59.7267 206.97 60.18C206.97 60.6333 206.943 61.1933 206.89 61.86C206.837 62.5133 206.757 63.3867 206.65 64.48C206.543 65.56 206.457 66.54 206.39 67.42C206.39 69.0467 206.45 70.32 206.57 71.24C206.69 72.16 206.923 72.6533 207.27 72.72ZM217.768 69.16C217.768 70.16 217.841 70.98 217.988 71.62C218.134 72.2467 218.308 72.6 218.508 72.68C218.588 72.72 218.681 72.7467 218.788 72.76C218.908 72.7733 218.988 72.7933 219.028 72.82C219.081 72.8467 219.108 72.9 219.108 72.98C219.108 73.34 219.008 73.6333 218.808 73.86C218.621 74.0867 218.334 74.2 217.948 74.2C217.561 74.2 217.261 73.9533 217.048 73.46C216.834 72.9667 216.728 72.3333 216.728 71.56C216.394 72.3067 215.901 72.9333 215.248 73.44C214.608 73.9467 213.881 74.2 213.068 74.2C212.268 74.2 211.574 73.9333 210.988 73.4C209.921 72.4267 209.388 71.0333 209.388 69.22C209.388 67.7667 209.808 66.5 210.648 65.42C211.488 64.34 212.568 63.8 213.888 63.8C214.888 63.8 215.754 64.14 216.488 64.82C216.488 64.14 216.741 63.8 217.248 63.8C217.861 63.8 218.168 64.2733 218.168 65.22C218.168 66.1533 218.034 67.4667 217.768 69.16ZM216.608 69.34L216.508 66.26C215.708 65.4867 214.868 65.1 213.988 65.1C213.121 65.1 212.374 65.4933 211.748 66.28C211.121 67.0667 210.808 68.0133 210.808 69.12C210.808 70.2133 211.008 71.12 211.408 71.84C211.821 72.5467 212.401 72.9 213.148 72.9C213.894 72.9 214.574 72.5667 215.188 71.9C215.801 71.2333 216.274 70.38 216.608 69.34ZM222.834 69.42L222.894 73.18C222.894 73.86 222.64 74.2 222.134 74.2C221.52 74.2 221.214 73.7333 221.214 72.8C221.214 71.8533 221.347 70.5333 221.614 68.84C221.614 68.28 221.554 67.5133 221.434 66.54C221.327 65.5667 221.274 64.96 221.274 64.72C221.274 64.48 221.34 64.2667 221.474 64.08C221.62 63.8933 221.814 63.8 222.054 63.8C222.294 63.8 222.48 63.8933 222.614 64.08C222.76 64.2667 222.834 64.4733 222.834 64.7C222.834 64.9133 222.827 65.1933 222.814 65.54C222.814 65.8733 222.814 66.1533 222.814 66.38C223.08 65.7 223.494 65.1 224.054 64.58C224.627 64.06 225.214 63.8 225.814 63.8C226.414 63.8 226.874 63.9267 227.194 64.18C227.527 64.42 227.694 64.68 227.694 64.96C227.694 65.24 227.62 65.46 227.474 65.62C227.327 65.78 227.134 65.86 226.894 65.86C226.667 65.86 226.414 65.74 226.134 65.5C225.867 65.2467 225.654 65.12 225.494 65.12C225.054 65.12 224.54 65.5933 223.954 66.54C223.367 67.4867 222.994 68.4467 222.834 69.42ZM231.678 65.22L231.638 69.96C231.638 71.1733 231.684 71.9667 231.778 72.34C231.884 72.7133 232.151 72.9 232.578 72.9C232.778 72.9 233.018 72.8333 233.298 72.7C233.591 72.5533 233.784 72.48 233.878 72.48C234.158 72.48 234.298 72.62 234.298 72.9C234.298 73.1667 234.051 73.4533 233.558 73.76C233.064 74.0533 232.578 74.2 232.098 74.2C230.938 74.2 230.358 73.3467 230.358 71.64L230.338 65.22C229.898 65.26 229.591 65.28 229.418 65.28C228.751 65.28 228.418 65.06 228.418 64.62C228.418 64.18 228.751 63.96 229.418 63.96C229.471 63.96 229.764 63.9733 230.298 64L230.258 61.76C230.258 61.0933 230.511 60.76 231.018 60.76C231.524 60.76 231.778 61.0933 231.778 61.76L231.718 64.02L233.338 63.94C234.004 63.94 234.338 64.1667 234.338 64.62C234.338 65.0467 234.004 65.26 233.338 65.26C233.218 65.26 232.664 65.2467 231.678 65.22ZM239.941 68.62C240.848 68.62 241.568 68.4667 242.101 68.16C242.648 67.8533 242.921 67.44 242.921 66.92C242.921 66.4 242.741 65.9533 242.381 65.58C242.034 65.1933 241.534 65 240.881 65C240.001 65 239.261 65.3333 238.661 66C238.061 66.6533 237.674 67.42 237.501 68.3C238.234 68.5133 239.048 68.62 239.941 68.62ZM240.701 63.7C241.781 63.7 242.654 64 243.321 64.6C244.001 65.2 244.341 65.98 244.341 66.94C244.341 67.9 243.921 68.6333 243.081 69.14C242.254 69.6333 241.234 69.88 240.021 69.88C239.328 69.88 238.481 69.78 237.481 69.58C237.561 70.5133 237.908 71.32 238.521 72C239.148 72.6667 239.841 73 240.601 73C241.054 73 241.474 72.94 241.861 72.82C242.248 72.6867 242.541 72.5467 242.741 72.4C243.274 71.9867 243.621 71.78 243.781 71.78C243.954 71.78 244.088 71.8333 244.181 71.94C244.288 72.0333 244.341 72.1533 244.341 72.3C244.341 72.6733 243.954 73.1 243.181 73.58C242.421 74.06 241.594 74.3 240.701 74.3C239.314 74.3 238.214 73.8133 237.401 72.84C236.588 71.8667 236.148 70.6933 236.081 69.32C235.374 69.1067 235.021 68.76 235.021 68.28C235.021 68.08 235.074 67.9267 235.181 67.82C235.301 67.7 235.441 67.64 235.601 67.64C235.761 67.64 235.961 67.7 236.201 67.82C236.494 66.62 237.048 65.6333 237.861 64.86C238.688 64.0867 239.634 63.7 240.701 63.7ZM259.428 69.16C259.428 70.16 259.501 70.98 259.648 71.62C259.795 72.2467 259.968 72.6 260.168 72.68C260.248 72.72 260.341 72.7467 260.448 72.76C260.568 72.7733 260.648 72.7933 260.688 72.82C260.741 72.8467 260.768 72.9 260.768 72.98C260.768 73.34 260.668 73.6333 260.468 73.86C260.281 74.0867 259.995 74.2 259.608 74.2C259.221 74.2 258.921 73.9533 258.708 73.46C258.495 72.9667 258.388 72.3333 258.388 71.56C258.055 72.3067 257.561 72.9333 256.908 73.44C256.268 73.9467 255.541 74.2 254.728 74.2C253.928 74.2 253.235 73.9333 252.648 73.4C251.581 72.4267 251.048 71.0333 251.048 69.22C251.048 67.7667 251.468 66.5 252.308 65.42C253.148 64.34 254.228 63.8 255.548 63.8C256.548 63.8 257.415 64.14 258.148 64.82C258.148 64.14 258.401 63.8 258.908 63.8C259.521 63.8 259.828 64.2733 259.828 65.22C259.828 66.1533 259.695 67.4667 259.428 69.16ZM258.268 69.34L258.168 66.26C257.368 65.4867 256.528 65.1 255.648 65.1C254.781 65.1 254.035 65.4933 253.408 66.28C252.781 67.0667 252.468 68.0133 252.468 69.12C252.468 70.2133 252.668 71.12 253.068 71.84C253.481 72.5467 254.061 72.9 254.808 72.9C255.555 72.9 256.235 72.5667 256.848 71.9C257.461 71.2333 257.935 70.38 258.268 69.34ZM92.9995 94.42L93.0595 98.18C93.0595 98.86 92.8062 99.2 92.2995 99.2C91.6862 99.2 91.3795 98.7333 91.3795 97.8C91.3795 96.8533 91.5129 95.5333 91.7795 93.84C91.7795 93.28 91.7195 92.5133 91.5995 91.54C91.4929 90.5667 91.4395 89.96 91.4395 89.72C91.4395 89.48 91.5062 89.2667 91.6395 89.08C91.7862 88.8933 91.9795 88.8 92.2195 88.8C92.4595 88.8 92.6462 88.8933 92.7795 89.08C92.9262 89.2667 92.9995 89.4733 92.9995 89.7C92.9995 89.9133 92.9929 90.1933 92.9795 90.54C92.9795 90.8733 92.9795 91.1533 92.9795 91.38C93.2462 90.7 93.6595 90.1 94.2195 89.58C94.7929 89.06 95.3795 88.8 95.9795 88.8C96.5795 88.8 97.0395 88.9267 97.3595 89.18C97.6929 89.42 97.8595 89.68 97.8595 89.96C97.8595 90.24 97.7862 90.46 97.6395 90.62C97.4929 90.78 97.2995 90.86 97.0595 90.86C96.8329 90.86 96.5795 90.74 96.2995 90.5C96.0329 90.2467 95.8195 90.12 95.6595 90.12C95.2195 90.12 94.7062 90.5933 94.1195 91.54C93.5329 92.4867 93.1595 93.4467 92.9995 94.42ZM102.978 93.62C103.885 93.62 104.605 93.4667 105.138 93.16C105.685 92.8533 105.958 92.44 105.958 91.92C105.958 91.4 105.778 90.9533 105.418 90.58C105.071 90.1933 104.571 90 103.918 90C103.038 90 102.298 90.3333 101.698 91C101.098 91.6533 100.711 92.42 100.538 93.3C101.271 93.5133 102.085 93.62 102.978 93.62ZM103.738 88.7C104.818 88.7 105.691 89 106.358 89.6C107.038 90.2 107.378 90.98 107.378 91.94C107.378 92.9 106.958 93.6333 106.118 94.14C105.291 94.6333 104.271 94.88 103.058 94.88C102.365 94.88 101.518 94.78 100.518 94.58C100.598 95.5133 100.945 96.32 101.558 97C102.185 97.6667 102.878 98 103.638 98C104.091 98 104.511 97.94 104.898 97.82C105.285 97.6867 105.578 97.5467 105.778 97.4C106.311 96.9867 106.658 96.78 106.818 96.78C106.991 96.78 107.125 96.8333 107.218 96.94C107.325 97.0333 107.378 97.1533 107.378 97.3C107.378 97.6733 106.991 98.1 106.218 98.58C105.458 99.06 104.631 99.3 103.738 99.3C102.351 99.3 101.251 98.8133 100.438 97.84C99.6248 96.8667 99.1848 95.6933 99.1181 94.32C98.4115 94.1067 98.0581 93.76 98.0581 93.28C98.0581 93.08 98.1115 92.9267 98.2181 92.82C98.3381 92.7 98.4781 92.64 98.6381 92.64C98.7981 92.64 98.9981 92.7 99.2381 92.82C99.5315 91.62 100.085 90.6333 100.898 89.86C101.725 89.0867 102.671 88.7 103.738 88.7ZM117.279 96.94C117.613 96.94 117.779 97.12 117.779 97.48C117.779 97.8267 117.393 98.22 116.619 98.66C115.846 99.0867 115.033 99.3 114.179 99.3C112.779 99.3 111.613 98.7867 110.679 97.76C109.746 96.72 109.279 95.4667 109.279 94C109.279 92.5333 109.746 91.2867 110.679 90.26C111.626 89.22 112.866 88.7 114.399 88.7C115.239 88.7 115.979 88.8933 116.619 89.28C117.273 89.6533 117.599 90.04 117.599 90.44C117.599 90.6533 117.533 90.8333 117.399 90.98C117.266 91.1133 117.113 91.18 116.939 91.18C116.766 91.18 116.566 91.08 116.339 90.88C115.646 90.2933 114.939 90 114.219 90C113.299 90 112.493 90.3867 111.799 91.16C111.119 91.9333 110.779 92.8733 110.779 93.98C110.779 95.0867 111.126 96.0333 111.819 96.82C112.513 97.6067 113.373 98 114.399 98C115.186 98 115.953 97.7333 116.699 97.2C116.953 97.0267 117.146 96.94 117.279 96.94ZM121.555 90.44L121.395 94.84C121.395 95.7467 121.588 96.4867 121.975 97.06C122.362 97.62 122.895 97.9 123.575 97.9C124.268 97.9 124.935 97.52 125.575 96.76C126.215 95.9867 126.662 95.12 126.915 94.16L126.855 89.82C126.855 89.14 127.108 88.8 127.615 88.8C128.228 88.8 128.535 89.2733 128.535 90.22C128.535 91.1533 128.402 92.4667 128.135 94.16C128.135 95.16 128.208 95.98 128.355 96.62C128.502 97.2467 128.675 97.6 128.875 97.68C128.955 97.72 129.048 97.7467 129.155 97.76C129.275 97.7733 129.355 97.7933 129.395 97.82C129.448 97.8467 129.475 97.9 129.475 97.98C129.475 98.34 129.362 98.6333 129.135 98.86C128.922 99.0867 128.648 99.2 128.315 99.2C127.475 99.2 127.055 98.3467 127.055 96.64C126.068 98.3467 124.828 99.2 123.335 99.2C122.268 99.2 121.442 98.8067 120.855 98.02C120.268 97.22 119.975 96.2467 119.975 95.1L120.095 92.08C120.095 91.5467 120.042 91.0533 119.935 90.6C119.828 90.1333 119.775 89.8 119.775 89.6C119.775 89.4 119.855 89.22 120.015 89.06C120.175 88.8867 120.382 88.8 120.635 88.8C121.248 88.8 121.555 89.3467 121.555 90.44ZM135.975 97.9C136.828 97.9 137.575 97.5067 138.215 96.72C138.868 95.9333 139.195 95.0133 139.195 93.96C139.195 92.8933 138.962 91.9867 138.495 91.24C138.028 90.48 137.395 90.1 136.595 90.1C135.195 90.1 134.042 91.2533 133.135 93.56V96.74C133.935 97.5133 134.882 97.9 135.975 97.9ZM131.895 95.2L131.915 94.44V94.12C131.915 93.56 131.855 92.74 131.735 91.66C131.615 90.58 131.555 89.9267 131.555 89.7C131.555 89.46 131.622 89.2533 131.755 89.08C131.902 88.8933 132.095 88.8 132.335 88.8C132.575 88.8 132.762 88.8933 132.895 89.08C133.042 89.2533 133.115 89.4533 133.115 89.68C133.115 89.9067 133.108 90.1933 133.095 90.54C133.095 90.8733 133.095 91.1533 133.095 91.38C133.535 90.5667 134.028 89.9333 134.575 89.48C135.122 89.0267 135.828 88.8 136.695 88.8C137.562 88.8 138.308 89.08 138.935 89.64C139.562 90.2 140.008 90.8467 140.275 91.58C140.542 92.3133 140.675 93.0467 140.675 93.78C140.675 95.2333 140.235 96.5 139.355 97.58C138.475 98.66 137.348 99.2 135.975 99.2C134.975 99.2 134.028 98.8733 133.135 98.22C133.108 99.8333 133.095 101.027 133.095 101.8C133.095 102.587 133.028 103.08 132.895 103.28C132.762 103.493 132.555 103.6 132.275 103.6C131.995 103.6 131.762 103.48 131.575 103.24C131.402 103.013 131.315 102.68 131.315 102.24C131.315 101.8 131.342 101.273 131.395 100.66C131.448 100.06 131.528 99.2667 131.635 98.28C131.742 97.28 131.828 96.38 131.895 95.58V95.2ZM147.021 93.62C147.928 93.62 148.648 93.4667 149.181 93.16C149.728 92.8533 150.001 92.44 150.001 91.92C150.001 91.4 149.821 90.9533 149.461 90.58C149.114 90.1933 148.614 90 147.961 90C147.081 90 146.341 90.3333 145.741 91C145.141 91.6533 144.754 92.42 144.581 93.3C145.314 93.5133 146.128 93.62 147.021 93.62ZM147.781 88.7C148.861 88.7 149.734 89 150.401 89.6C151.081 90.2 151.421 90.98 151.421 91.94C151.421 92.9 151.001 93.6333 150.161 94.14C149.334 94.6333 148.314 94.88 147.101 94.88C146.408 94.88 145.561 94.78 144.561 94.58C144.641 95.5133 144.988 96.32 145.601 97C146.228 97.6667 146.921 98 147.681 98C148.134 98 148.554 97.94 148.941 97.82C149.328 97.6867 149.621 97.5467 149.821 97.4C150.354 96.9867 150.701 96.78 150.861 96.78C151.034 96.78 151.168 96.8333 151.261 96.94C151.368 97.0333 151.421 97.1533 151.421 97.3C151.421 97.6733 151.034 98.1 150.261 98.58C149.501 99.06 148.674 99.3 147.781 99.3C146.394 99.3 145.294 98.8133 144.481 97.84C143.668 96.8667 143.228 95.6933 143.161 94.32C142.454 94.1067 142.101 93.76 142.101 93.28C142.101 93.08 142.154 92.9267 142.261 92.82C142.381 92.7 142.521 92.64 142.681 92.64C142.841 92.64 143.041 92.7 143.281 92.82C143.574 91.62 144.128 90.6333 144.941 89.86C145.768 89.0867 146.714 88.7 147.781 88.7ZM155.382 94.42L155.442 98.18C155.442 98.86 155.189 99.2 154.682 99.2C154.069 99.2 153.762 98.7333 153.762 97.8C153.762 96.8533 153.896 95.5333 154.162 93.84C154.162 93.28 154.102 92.5133 153.982 91.54C153.876 90.5667 153.822 89.96 153.822 89.72C153.822 89.48 153.889 89.2667 154.022 89.08C154.169 88.8933 154.362 88.8 154.602 88.8C154.842 88.8 155.029 88.8933 155.162 89.08C155.309 89.2667 155.382 89.4733 155.382 89.7C155.382 89.9133 155.376 90.1933 155.362 90.54C155.362 90.8733 155.362 91.1533 155.362 91.38C155.629 90.7 156.042 90.1 156.602 89.58C157.176 89.06 157.762 88.8 158.362 88.8C158.962 88.8 159.422 88.9267 159.742 89.18C160.076 89.42 160.242 89.68 160.242 89.96C160.242 90.24 160.169 90.46 160.022 90.62C159.876 90.78 159.682 90.86 159.442 90.86C159.216 90.86 158.962 90.74 158.682 90.5C158.416 90.2467 158.202 90.12 158.042 90.12C157.602 90.12 157.089 90.5933 156.502 91.54C155.916 92.4867 155.542 93.4467 155.382 94.42ZM169.692 94.16C169.692 95.16 169.765 95.98 169.912 96.62C170.058 97.2467 170.232 97.6 170.432 97.68C170.512 97.72 170.605 97.7467 170.712 97.76C170.832 97.7733 170.912 97.7933 170.952 97.82C171.005 97.8467 171.032 97.9 171.032 97.98C171.032 98.34 170.932 98.6333 170.732 98.86C170.545 99.0867 170.258 99.2 169.872 99.2C169.485 99.2 169.185 98.9533 168.972 98.46C168.758 97.9667 168.652 97.3333 168.652 96.56C168.318 97.3067 167.825 97.9333 167.172 98.44C166.532 98.9467 165.805 99.2 164.992 99.2C164.192 99.2 163.498 98.9333 162.912 98.4C161.845 97.4267 161.312 96.0333 161.312 94.22C161.312 92.7667 161.732 91.5 162.572 90.42C163.412 89.34 164.492 88.8 165.812 88.8C166.812 88.8 167.678 89.14 168.412 89.82C168.412 89.14 168.665 88.8 169.172 88.8C169.785 88.8 170.092 89.2733 170.092 90.22C170.092 91.1533 169.958 92.4667 169.692 94.16ZM168.532 94.34L168.432 91.26C167.632 90.4867 166.792 90.1 165.912 90.1C165.045 90.1 164.298 90.4933 163.672 91.28C163.045 92.0667 162.732 93.0133 162.732 94.12C162.732 95.2133 162.932 96.12 163.332 96.84C163.745 97.5467 164.325 97.9 165.072 97.9C165.818 97.9 166.498 97.5667 167.112 96.9C167.725 96.2333 168.198 95.38 168.532 94.34ZM174.757 94.42L174.817 98.18C174.817 98.86 174.564 99.2 174.057 99.2C173.444 99.2 173.137 98.7333 173.137 97.8C173.137 96.8533 173.271 95.5333 173.537 93.84C173.537 93.28 173.477 92.5133 173.357 91.54C173.251 90.5667 173.197 89.96 173.197 89.72C173.197 89.48 173.264 89.2667 173.397 89.08C173.544 88.8933 173.737 88.8 173.977 88.8C174.217 88.8 174.404 88.8933 174.537 89.08C174.684 89.2667 174.757 89.4733 174.757 89.7C174.757 89.9133 174.751 90.1933 174.737 90.54C174.737 90.8733 174.737 91.1533 174.737 91.38C175.004 90.7 175.417 90.1 175.977 89.58C176.551 89.06 177.137 88.8 177.737 88.8C178.337 88.8 178.797 88.9267 179.117 89.18C179.451 89.42 179.617 89.68 179.617 89.96C179.617 90.24 179.544 90.46 179.397 90.62C179.251 90.78 179.057 90.86 178.817 90.86C178.591 90.86 178.337 90.74 178.057 90.5C177.791 90.2467 177.577 90.12 177.417 90.12C176.977 90.12 176.464 90.5933 175.877 91.54C175.291 92.4867 174.917 93.4467 174.757 94.42ZM182.841 91.5L182.941 98.2C182.941 98.8667 182.688 99.2 182.181 99.2C181.675 99.2 181.421 98.8667 181.421 98.2L181.521 91.5L181.421 84.8C181.421 84.1333 181.675 83.8 182.181 83.8C182.688 83.8 182.941 84.1333 182.941 84.8L182.841 91.5ZM193.754 94.16C193.754 95.16 193.827 95.98 193.974 96.62C194.121 97.2467 194.294 97.6 194.494 97.68C194.574 97.72 194.667 97.7467 194.774 97.76C194.894 97.7733 194.974 97.7933 195.014 97.82C195.067 97.8467 195.094 97.9 195.094 97.98C195.094 98.34 194.994 98.6333 194.794 98.86C194.607 99.0867 194.321 99.2 193.934 99.2C193.547 99.2 193.247 98.9533 193.034 98.46C192.821 97.9667 192.714 97.3333 192.714 96.56C192.381 97.3067 191.887 97.9333 191.234 98.44C190.594 98.9467 189.867 99.2 189.054 99.2C188.254 99.2 187.561 98.9333 186.974 98.4C185.907 97.4267 185.374 96.0333 185.374 94.22C185.374 92.7667 185.794 91.5 186.634 90.42C187.474 89.34 188.554 88.8 189.874 88.8C190.874 88.8 191.741 89.14 192.474 89.82C192.474 89.14 192.727 88.8 193.234 88.8C193.847 88.8 194.154 89.2733 194.154 90.22C194.154 91.1533 194.021 92.4667 193.754 94.16ZM192.594 94.34L192.494 91.26C191.694 90.4867 190.854 90.1 189.974 90.1C189.107 90.1 188.361 90.4933 187.734 91.28C187.107 92.0667 186.794 93.0133 186.794 94.12C186.794 95.2133 186.994 96.12 187.394 96.84C187.807 97.5467 188.387 97.9 189.134 97.9C189.881 97.9 190.561 97.5667 191.174 96.9C191.787 96.2333 192.261 95.38 192.594 94.34ZM197.96 96.86C198.253 96.86 198.473 96.9667 198.62 97.18C198.767 97.38 198.84 97.64 198.84 97.96C198.84 98.2667 198.74 98.5533 198.54 98.82C198.353 99.0733 198.12 99.2 197.84 99.2C197.56 99.2 197.34 99.0933 197.18 98.88C197.033 98.6667 196.96 98.4067 196.96 98.1C196.96 97.78 197.053 97.4933 197.24 97.24C197.44 96.9867 197.68 96.86 197.96 96.86Z" fill="#DB6C9E"/>
</svg>
