<svg width="290" height="132" viewBox="0 0 290 132" fill="none" xmlns="http://www.w3.org/2000/svg">
<path d="M33.4818 15.072L33.3618 7.008C33.3618 6.656 33.4578 6.36 33.6498 6.12C33.8418 5.88 34.0818 5.76 34.3698 5.76C34.8818 5.76 35.2658 5.976 35.5218 6.408C35.6658 6.632 36.8418 8.736 39.0498 12.72C41.2738 16.688 42.7378 19.24 43.4418 20.376V15.072C43.4418 12.368 43.4178 10.376 43.3698 9.096C43.3378 7.816 43.3218 7.056 43.3218 6.816C43.3218 6.576 43.4178 6.344 43.6098 6.12C43.8018 5.88 44.0338 5.76 44.3058 5.76C44.5778 5.76 44.8098 5.88 45.0018 6.12C45.1938 6.344 45.2898 6.576 45.2898 6.816C45.2898 7.056 45.2818 7.56 45.2658 8.328C45.2018 10.12 45.1698 12.368 45.1698 15.072L45.2178 23.016C45.2178 23.384 45.1138 23.68 44.9058 23.904C44.7138 24.128 44.4418 24.24 44.0898 24.24C43.7378 24.24 43.4338 24.024 43.1778 23.592C43.0978 23.464 42.8018 22.944 42.2898 22.032C40.7378 19.184 39.5778 17.12 38.8098 15.84C38.0578 14.544 37.3378 13.272 36.6498 12.024C35.9618 10.76 35.4818 9.912 35.2098 9.48V15.072L35.3298 23.016C35.3298 23.368 35.2338 23.664 35.0418 23.904C34.8498 24.128 34.6178 24.24 34.3458 24.24C34.0738 24.24 33.8418 24.128 33.6498 23.904C33.4578 23.664 33.3618 23.368 33.3618 23.016L33.4818 15.072ZM55.5235 21.82C56.1768 21.0333 56.5035 20.0867 56.5035 18.98C56.5035 17.8733 56.1902 16.9333 55.5635 16.16C54.9502 15.3867 54.1835 15 53.2635 15C52.3435 15 51.5568 15.3933 50.9035 16.18C50.2635 16.9667 49.9435 17.9133 49.9435 19.02C49.9435 20.1267 50.2502 21.0667 50.8635 21.84C51.4902 22.6133 52.2635 23 53.1835 23C54.1035 23 54.8835 22.6067 55.5235 21.82ZM53.2235 13.7C54.5968 13.7 55.7235 14.2133 56.6035 15.24C57.4835 16.2533 57.9235 17.5 57.9235 18.98C57.9235 20.46 57.4768 21.72 56.5835 22.76C55.6902 23.7867 54.5635 24.3 53.2035 24.3C51.8435 24.3 50.7235 23.7933 49.8435 22.78C48.9635 21.7533 48.5235 20.5 48.5235 19.02C48.5235 17.54 48.9635 16.2867 49.8435 15.26C50.7368 14.22 51.8635 13.7 53.2235 13.7ZM67.154 21.12C67.154 22.0267 66.7807 22.7667 66.034 23.34C65.3007 23.9133 64.414 24.2 63.374 24.2C62.3473 24.2 61.454 23.9667 60.694 23.5C59.934 23.02 59.554 22.5467 59.554 22.08C59.554 21.88 59.614 21.72 59.734 21.6C59.854 21.4667 59.9873 21.4 60.134 21.4C60.294 21.4 60.4207 21.4333 60.514 21.5C60.6073 21.5533 60.734 21.6667 60.894 21.84C61.054 22.0133 61.194 22.16 61.314 22.28C61.4473 22.4 61.7073 22.5333 62.094 22.68C62.494 22.8267 62.8607 22.9 63.194 22.9C63.9273 22.9 64.5273 22.7533 64.994 22.46C65.474 22.1533 65.714 21.7133 65.714 21.14C65.714 20.4467 65.0473 19.8667 63.714 19.4C63.1673 19.2133 62.614 19.0133 62.054 18.8C61.5073 18.5733 61.0407 18.2667 60.654 17.88C60.2673 17.4933 60.074 17.0333 60.074 16.5C60.074 15.78 60.4007 15.1533 61.054 14.62C61.7073 14.0733 62.5073 13.8 63.454 13.8C64.4007 13.8 65.1473 13.9667 65.694 14.3C66.254 14.62 66.534 14.96 66.534 15.32C66.534 15.76 66.3007 15.98 65.834 15.98C65.634 15.98 65.434 15.9067 65.234 15.76C64.6073 15.32 64.0073 15.1 63.434 15.1C62.8607 15.1 62.394 15.2333 62.034 15.5C61.674 15.7533 61.494 16.0533 61.494 16.4C61.494 16.7333 61.6873 17.02 62.074 17.26C62.4607 17.5 62.9273 17.72 63.474 17.92C64.034 18.12 64.594 18.3467 65.154 18.6C65.714 18.84 66.1873 19.18 66.574 19.62C66.9607 20.0467 67.154 20.5467 67.154 21.12ZM78.1012 18.62C79.0078 18.62 79.7278 18.4667 80.2612 18.16C80.8078 17.8533 81.0812 17.44 81.0812 16.92C81.0812 16.4 80.9012 15.9533 80.5412 15.58C80.1945 15.1933 79.6945 15 79.0412 15C78.1612 15 77.4212 15.3333 76.8212 16C76.2212 16.6533 75.8345 17.42 75.6612 18.3C76.3945 18.5133 77.2078 18.62 78.1012 18.62ZM78.8612 13.7C79.9412 13.7 80.8145 14 81.4812 14.6C82.1612 15.2 82.5012 15.98 82.5012 16.94C82.5012 17.9 82.0812 18.6333 81.2412 19.14C80.4145 19.6333 79.3945 19.88 78.1812 19.88C77.4878 19.88 76.6412 19.78 75.6412 19.58C75.7212 20.5133 76.0678 21.32 76.6812 22C77.3078 22.6667 78.0012 23 78.7612 23C79.2145 23 79.6345 22.94 80.0212 22.82C80.4078 22.6867 80.7012 22.5467 80.9012 22.4C81.4345 21.9867 81.7812 21.78 81.9412 21.78C82.1145 21.78 82.2478 21.8333 82.3412 21.94C82.4478 22.0333 82.5012 22.1533 82.5012 22.3C82.5012 22.6733 82.1145 23.1 81.3412 23.58C80.5812 24.06 79.7545 24.3 78.8612 24.3C77.4745 24.3 76.3745 23.8133 75.5612 22.84C74.7478 21.8667 74.3078 20.6933 74.2412 19.32C73.5345 19.1067 73.1812 18.76 73.1812 18.28C73.1812 18.08 73.2345 17.9267 73.3412 17.82C73.4612 17.7 73.6012 17.64 73.7612 17.64C73.9212 17.64 74.1212 17.7 74.3612 17.82C74.6545 16.62 75.2078 15.6333 76.0212 14.86C76.8478 14.0867 77.7945 13.7 78.8612 13.7ZM93.4024 17.7L93.3024 20.84C93.3024 21.2133 93.3024 21.5 93.3024 21.7C93.3158 21.8867 93.3558 22.0867 93.4224 22.3C93.5024 22.5 93.5958 22.6267 93.7024 22.68C93.8091 22.72 93.9158 22.7467 94.0224 22.76C94.1424 22.7733 94.2224 22.7933 94.2624 22.82C94.3158 22.8467 94.3424 22.9 94.3424 22.98C94.3424 23.3267 94.2291 23.62 94.0024 23.86C93.7891 24.0867 93.5358 24.2 93.2424 24.2C92.7358 24.2 92.3824 24 92.1824 23.6C91.9958 23.2 91.9024 22.6133 91.9024 21.84L91.9824 18.16C91.9824 17.2533 91.7891 16.52 91.4024 15.96C91.0158 15.4 90.4758 15.12 89.7824 15.12C89.1024 15.12 88.4424 15.5 87.8024 16.26C87.1624 17.02 86.7158 17.88 86.4624 18.84L86.5224 23.18C86.5224 23.86 86.2691 24.2 85.7624 24.2C85.1491 24.2 84.8424 23.7333 84.8424 22.8C84.8424 21.8533 84.9758 20.5333 85.2424 18.84C85.2424 18.28 85.1824 17.5067 85.0624 16.52C84.9558 15.5333 84.9024 14.9267 84.9024 14.7C84.9024 14.46 84.9691 14.2533 85.1024 14.08C85.2491 13.8933 85.4424 13.8 85.6824 13.8C85.9224 13.8 86.1091 13.8933 86.2424 14.08C86.3891 14.2533 86.4624 14.4533 86.4624 14.68C86.4624 14.9067 86.4558 15.1867 86.4424 15.52C86.4424 15.84 86.4424 16.1133 86.4424 16.34C87.4158 14.6467 88.6158 13.8 90.0424 13.8C91.1091 13.8 91.9358 14.18 92.5224 14.94C93.1091 15.7 93.4024 16.62 93.4024 17.7ZM98.5487 15.22L98.5087 19.96C98.5087 21.1733 98.5553 21.9667 98.6487 22.34C98.7553 22.7133 99.022 22.9 99.4487 22.9C99.6487 22.9 99.8887 22.8333 100.169 22.7C100.462 22.5533 100.655 22.48 100.749 22.48C101.029 22.48 101.169 22.62 101.169 22.9C101.169 23.1667 100.922 23.4533 100.429 23.76C99.9353 24.0533 99.4487 24.2 98.9687 24.2C97.8087 24.2 97.2287 23.3467 97.2287 21.64L97.2087 15.22C96.7687 15.26 96.462 15.28 96.2887 15.28C95.622 15.28 95.2887 15.06 95.2887 14.62C95.2887 14.18 95.622 13.96 96.2887 13.96C96.342 13.96 96.6353 13.9733 97.1687 14L97.1287 11.76C97.1287 11.0933 97.382 10.76 97.8887 10.76C98.3953 10.76 98.6487 11.0933 98.6487 11.76L98.5887 14.02L100.209 13.94C100.875 13.94 101.209 14.1667 101.209 14.62C101.209 15.0467 100.875 15.26 100.209 15.26C100.089 15.26 99.5353 15.2467 98.5487 15.22ZM104.607 19.42L104.667 23.18C104.667 23.86 104.414 24.2 103.907 24.2C103.294 24.2 102.987 23.7333 102.987 22.8C102.987 21.8533 103.12 20.5333 103.387 18.84C103.387 18.28 103.327 17.5133 103.207 16.54C103.1 15.5667 103.047 14.96 103.047 14.72C103.047 14.48 103.114 14.2667 103.247 14.08C103.394 13.8933 103.587 13.8 103.827 13.8C104.067 13.8 104.254 13.8933 104.387 14.08C104.534 14.2667 104.607 14.4733 104.607 14.7C104.607 14.9133 104.6 15.1933 104.587 15.54C104.587 15.8733 104.587 16.1533 104.587 16.38C104.854 15.7 105.267 15.1 105.827 14.58C106.4 14.06 106.987 13.8 107.587 13.8C108.187 13.8 108.647 13.9267 108.967 14.18C109.3 14.42 109.467 14.68 109.467 14.96C109.467 15.24 109.394 15.46 109.247 15.62C109.1 15.78 108.907 15.86 108.667 15.86C108.44 15.86 108.187 15.74 107.907 15.5C107.64 15.2467 107.427 15.12 107.267 15.12C106.827 15.12 106.314 15.5933 105.727 16.54C105.14 17.4867 104.767 18.4467 104.607 19.42ZM112.131 9.5C112.411 9.5 112.618 9.59333 112.751 9.78C112.884 9.95333 112.951 10.18 112.951 10.46C112.951 10.7267 112.858 11 112.671 11.28C112.484 11.5467 112.251 11.68 111.971 11.68C111.691 11.68 111.478 11.5867 111.331 11.4C111.198 11.2133 111.131 10.9667 111.131 10.66C111.131 10.3533 111.224 10.0867 111.411 9.86C111.611 9.62 111.851 9.5 112.131 9.5ZM112.691 19L112.791 23.2C112.791 23.8667 112.538 24.2 112.031 24.2C111.524 24.2 111.271 23.8667 111.271 23.2L111.371 19L111.271 14.8C111.271 14.1333 111.524 13.8 112.031 13.8C112.538 13.8 112.791 14.1333 112.791 14.8L112.691 19ZM122.584 21.12C122.584 22.0267 122.21 22.7667 121.464 23.34C120.73 23.9133 119.844 24.2 118.804 24.2C117.777 24.2 116.884 23.9667 116.124 23.5C115.364 23.02 114.984 22.5467 114.984 22.08C114.984 21.88 115.044 21.72 115.164 21.6C115.284 21.4667 115.417 21.4 115.564 21.4C115.724 21.4 115.85 21.4333 115.944 21.5C116.037 21.5533 116.164 21.6667 116.324 21.84C116.484 22.0133 116.624 22.16 116.744 22.28C116.877 22.4 117.137 22.5333 117.524 22.68C117.924 22.8267 118.29 22.9 118.624 22.9C119.357 22.9 119.957 22.7533 120.424 22.46C120.904 22.1533 121.144 21.7133 121.144 21.14C121.144 20.4467 120.477 19.8667 119.144 19.4C118.597 19.2133 118.044 19.0133 117.484 18.8C116.937 18.5733 116.47 18.2667 116.084 17.88C115.697 17.4933 115.504 17.0333 115.504 16.5C115.504 15.78 115.83 15.1533 116.484 14.62C117.137 14.0733 117.937 13.8 118.884 13.8C119.83 13.8 120.577 13.9667 121.124 14.3C121.684 14.62 121.964 14.96 121.964 15.32C121.964 15.76 121.73 15.98 121.264 15.98C121.064 15.98 120.864 15.9067 120.664 15.76C120.037 15.32 119.437 15.1 118.864 15.1C118.29 15.1 117.824 15.2333 117.464 15.5C117.104 15.7533 116.924 16.0533 116.924 16.4C116.924 16.7333 117.117 17.02 117.504 17.26C117.89 17.5 118.357 17.72 118.904 17.92C119.464 18.12 120.024 18.3467 120.584 18.6C121.144 18.84 121.617 19.18 122.004 19.62C122.39 20.0467 122.584 20.5467 122.584 21.12ZM127.025 15.22L126.985 19.96C126.985 21.1733 127.032 21.9667 127.125 22.34C127.232 22.7133 127.499 22.9 127.925 22.9C128.125 22.9 128.365 22.8333 128.645 22.7C128.939 22.5533 129.132 22.48 129.225 22.48C129.505 22.48 129.645 22.62 129.645 22.9C129.645 23.1667 129.399 23.4533 128.905 23.76C128.412 24.0533 127.925 24.2 127.445 24.2C126.285 24.2 125.705 23.3467 125.705 21.64L125.685 15.22C125.245 15.26 124.939 15.28 124.765 15.28C124.099 15.28 123.765 15.06 123.765 14.62C123.765 14.18 124.099 13.96 124.765 13.96C124.819 13.96 125.112 13.9733 125.645 14L125.605 11.76C125.605 11.0933 125.859 10.76 126.365 10.76C126.872 10.76 127.125 11.0933 127.125 11.76L127.065 14.02L128.685 13.94C129.352 13.94 129.685 14.1667 129.685 14.62C129.685 15.0467 129.352 15.26 128.685 15.26C128.565 15.26 128.012 15.2467 127.025 15.22ZM135.289 18.62C136.195 18.62 136.915 18.4667 137.449 18.16C137.995 17.8533 138.269 17.44 138.269 16.92C138.269 16.4 138.089 15.9533 137.729 15.58C137.382 15.1933 136.882 15 136.229 15C135.349 15 134.609 15.3333 134.009 16C133.409 16.6533 133.022 17.42 132.849 18.3C133.582 18.5133 134.395 18.62 135.289 18.62ZM136.049 13.7C137.129 13.7 138.002 14 138.669 14.6C139.349 15.2 139.689 15.98 139.689 16.94C139.689 17.9 139.269 18.6333 138.429 19.14C137.602 19.6333 136.582 19.88 135.369 19.88C134.675 19.88 133.829 19.78 132.829 19.58C132.909 20.5133 133.255 21.32 133.869 22C134.495 22.6667 135.189 23 135.949 23C136.402 23 136.822 22.94 137.209 22.82C137.595 22.6867 137.889 22.5467 138.089 22.4C138.622 21.9867 138.969 21.78 139.129 21.78C139.302 21.78 139.435 21.8333 139.529 21.94C139.635 22.0333 139.689 22.1533 139.689 22.3C139.689 22.6733 139.302 23.1 138.529 23.58C137.769 24.06 136.942 24.3 136.049 24.3C134.662 24.3 133.562 23.8133 132.749 22.84C131.935 21.8667 131.495 20.6933 131.429 19.32C130.722 19.1067 130.369 18.76 130.369 18.28C130.369 18.08 130.422 17.9267 130.529 17.82C130.649 17.7 130.789 17.64 130.949 17.64C131.109 17.64 131.309 17.7 131.549 17.82C131.842 16.62 132.395 15.6333 133.209 14.86C134.035 14.0867 134.982 13.7 136.049 13.7ZM149.59 21.94C149.923 21.94 150.09 22.12 150.09 22.48C150.09 22.8267 149.703 23.22 148.93 23.66C148.157 24.0867 147.343 24.3 146.49 24.3C145.09 24.3 143.923 23.7867 142.99 22.76C142.057 21.72 141.59 20.4667 141.59 19C141.59 17.5333 142.057 16.2867 142.99 15.26C143.937 14.22 145.177 13.7 146.71 13.7C147.55 13.7 148.29 13.8933 148.93 14.28C149.583 14.6533 149.91 15.04 149.91 15.44C149.91 15.6533 149.843 15.8333 149.71 15.98C149.577 16.1133 149.423 16.18 149.25 16.18C149.077 16.18 148.877 16.08 148.65 15.88C147.957 15.2933 147.25 15 146.53 15C145.61 15 144.803 15.3867 144.11 16.16C143.43 16.9333 143.09 17.8733 143.09 18.98C143.09 20.0867 143.437 21.0333 144.13 21.82C144.823 22.6067 145.683 23 146.71 23C147.497 23 148.263 22.7333 149.01 22.2C149.263 22.0267 149.457 21.94 149.59 21.94ZM155.894 18.62C156.801 18.62 157.521 18.4667 158.054 18.16C158.601 17.8533 158.874 17.44 158.874 16.92C158.874 16.4 158.694 15.9533 158.334 15.58C157.987 15.1933 157.487 15 156.834 15C155.954 15 155.214 15.3333 154.614 16C154.014 16.6533 153.627 17.42 153.454 18.3C154.187 18.5133 155.001 18.62 155.894 18.62ZM156.654 13.7C157.734 13.7 158.607 14 159.274 14.6C159.954 15.2 160.294 15.98 160.294 16.94C160.294 17.9 159.874 18.6333 159.034 19.14C158.207 19.6333 157.187 19.88 155.974 19.88C155.281 19.88 154.434 19.78 153.434 19.58C153.514 20.5133 153.861 21.32 154.474 22C155.101 22.6667 155.794 23 156.554 23C157.007 23 157.427 22.94 157.814 22.82C158.201 22.6867 158.494 22.5467 158.694 22.4C159.227 21.9867 159.574 21.78 159.734 21.78C159.907 21.78 160.041 21.8333 160.134 21.94C160.241 22.0333 160.294 22.1533 160.294 22.3C160.294 22.6733 159.907 23.1 159.134 23.58C158.374 24.06 157.547 24.3 156.654 24.3C155.267 24.3 154.167 23.8133 153.354 22.84C152.541 21.8667 152.101 20.6933 152.034 19.32C151.327 19.1067 150.974 18.76 150.974 18.28C150.974 18.08 151.027 17.9267 151.134 17.82C151.254 17.7 151.394 17.64 151.554 17.64C151.714 17.64 151.914 17.7 152.154 17.82C152.447 16.62 153.001 15.6333 153.814 14.86C154.641 14.0867 155.587 13.7 156.654 13.7ZM167.001 19.22C167.001 17.7667 167.421 16.5 168.261 15.42C169.101 14.34 170.181 13.8 171.501 13.8C172.501 13.8 173.368 14.14 174.101 14.82C174.101 14.14 174.354 13.8 174.861 13.8C175.474 13.8 175.781 14.2733 175.781 15.22C175.781 16.1533 175.648 17.4667 175.381 19.16C175.381 20 175.441 21.5933 175.561 23.94C175.681 26.2867 175.741 27.56 175.741 27.76C175.741 27.96 175.668 28.1467 175.521 28.32C175.388 28.5067 175.201 28.6 174.961 28.6C174.721 28.6 174.528 28.5067 174.381 28.32C174.248 28.1467 174.181 27.9067 174.181 27.6V21.88C173.821 22.56 173.334 23.12 172.721 23.56C172.121 23.9867 171.428 24.2 170.641 24.2C169.868 24.2 169.188 23.9333 168.601 23.4C167.534 22.4267 167.001 21.0333 167.001 19.22ZM171.601 15.1C170.734 15.1 169.988 15.4933 169.361 16.28C168.734 17.0667 168.421 18.0133 168.421 19.12C168.421 20.2133 168.621 21.12 169.021 21.84C169.434 22.5467 170.014 22.9 170.761 22.9C171.508 22.9 172.188 22.5667 172.801 21.9C173.414 21.2333 173.888 20.38 174.221 19.34L174.121 16.26C173.321 15.4867 172.481 15.1 171.601 15.1ZM180.116 15.44L179.956 19.84C179.956 20.7467 180.149 21.4867 180.536 22.06C180.922 22.62 181.456 22.9 182.136 22.9C182.829 22.9 183.496 22.52 184.136 21.76C184.776 20.9867 185.222 20.12 185.476 19.16L185.416 14.82C185.416 14.14 185.669 13.8 186.176 13.8C186.789 13.8 187.096 14.2733 187.096 15.22C187.096 16.1533 186.962 17.4667 186.696 19.16C186.696 20.16 186.769 20.98 186.916 21.62C187.062 22.2467 187.236 22.6 187.436 22.68C187.516 22.72 187.609 22.7467 187.716 22.76C187.836 22.7733 187.916 22.7933 187.956 22.82C188.009 22.8467 188.036 22.9 188.036 22.98C188.036 23.34 187.922 23.6333 187.696 23.86C187.482 24.0867 187.209 24.2 186.876 24.2C186.036 24.2 185.616 23.3467 185.616 21.64C184.629 23.3467 183.389 24.2 181.896 24.2C180.829 24.2 180.002 23.8067 179.416 23.02C178.829 22.22 178.536 21.2467 178.536 20.1L178.656 17.08C178.656 16.5467 178.602 16.0533 178.496 15.6C178.389 15.1333 178.336 14.8 178.336 14.6C178.336 14.4 178.416 14.22 178.576 14.06C178.736 13.8867 178.942 13.8 179.196 13.8C179.809 13.8 180.116 14.3467 180.116 15.44ZM194.078 18.62C194.984 18.62 195.704 18.4667 196.238 18.16C196.784 17.8533 197.058 17.44 197.058 16.92C197.058 16.4 196.878 15.9533 196.518 15.58C196.171 15.1933 195.671 15 195.018 15C194.138 15 193.398 15.3333 192.798 16C192.198 16.6533 191.811 17.42 191.638 18.3C192.371 18.5133 193.184 18.62 194.078 18.62ZM194.838 13.7C195.918 13.7 196.791 14 197.458 14.6C198.138 15.2 198.478 15.98 198.478 16.94C198.478 17.9 198.058 18.6333 197.218 19.14C196.391 19.6333 195.371 19.88 194.158 19.88C193.464 19.88 192.618 19.78 191.618 19.58C191.698 20.5133 192.044 21.32 192.658 22C193.284 22.6667 193.978 23 194.738 23C195.191 23 195.611 22.94 195.998 22.82C196.384 22.6867 196.678 22.5467 196.878 22.4C197.411 21.9867 197.758 21.78 197.918 21.78C198.091 21.78 198.224 21.8333 198.318 21.94C198.424 22.0333 198.478 22.1533 198.478 22.3C198.478 22.6733 198.091 23.1 197.318 23.58C196.558 24.06 195.731 24.3 194.838 24.3C193.451 24.3 192.351 23.8133 191.538 22.84C190.724 21.8667 190.284 20.6933 190.218 19.32C189.511 19.1067 189.158 18.76 189.158 18.28C189.158 18.08 189.211 17.9267 189.318 17.82C189.438 17.7 189.578 17.64 189.738 17.64C189.898 17.64 190.098 17.7 190.338 17.82C190.631 16.62 191.184 15.6333 191.998 14.86C192.824 14.0867 193.771 13.7 194.838 13.7ZM214.105 17.7L214.005 20.84C214.005 21.2133 214.005 21.5 214.005 21.7C214.018 21.8867 214.058 22.0867 214.125 22.3C214.205 22.5 214.298 22.6267 214.405 22.68C214.511 22.72 214.618 22.7467 214.725 22.76C214.845 22.7733 214.925 22.7933 214.965 22.82C215.018 22.8467 215.045 22.9 215.045 22.98C215.045 23.3267 214.931 23.62 214.705 23.86C214.491 24.0867 214.238 24.2 213.945 24.2C213.438 24.2 213.085 24 212.885 23.6C212.698 23.2 212.605 22.6133 212.605 21.84L212.685 18.16C212.685 17.2533 212.491 16.52 212.105 15.96C211.718 15.4 211.178 15.12 210.485 15.12C209.805 15.12 209.145 15.5 208.505 16.26C207.865 17.02 207.418 17.88 207.165 18.84L207.225 23.18C207.225 23.86 206.971 24.2 206.465 24.2C205.851 24.2 205.545 23.7333 205.545 22.8C205.545 21.8533 205.678 20.5333 205.945 18.84C205.945 17.9333 205.885 16.2267 205.765 13.72C205.645 11.2 205.585 9.84 205.585 9.64C205.585 9.44 205.651 9.25333 205.785 9.08C205.931 8.89333 206.125 8.8 206.365 8.8C206.605 8.8 206.791 8.89333 206.925 9.08C207.071 9.25333 207.145 9.49333 207.145 9.8V16.34C208.118 14.6467 209.318 13.8 210.745 13.8C211.811 13.8 212.638 14.18 213.225 14.94C213.811 15.7 214.105 16.62 214.105 17.7ZM225.108 19.16C225.108 20.16 225.181 20.98 225.328 21.62C225.474 22.2467 225.648 22.6 225.848 22.68C225.928 22.72 226.021 22.7467 226.128 22.76C226.248 22.7733 226.328 22.7933 226.368 22.82C226.421 22.8467 226.448 22.9 226.448 22.98C226.448 23.34 226.348 23.6333 226.148 23.86C225.961 24.0867 225.674 24.2 225.288 24.2C224.901 24.2 224.601 23.9533 224.388 23.46C224.174 22.9667 224.068 22.3333 224.068 21.56C223.734 22.3067 223.241 22.9333 222.588 23.44C221.948 23.9467 221.221 24.2 220.408 24.2C219.608 24.2 218.914 23.9333 218.328 23.4C217.261 22.4267 216.728 21.0333 216.728 19.22C216.728 17.7667 217.148 16.5 217.988 15.42C218.828 14.34 219.908 13.8 221.228 13.8C222.228 13.8 223.094 14.14 223.828 14.82C223.828 14.14 224.081 13.8 224.588 13.8C225.201 13.8 225.508 14.2733 225.508 15.22C225.508 16.1533 225.374 17.4667 225.108 19.16ZM223.948 19.34L223.848 16.26C223.048 15.4867 222.208 15.1 221.328 15.1C220.461 15.1 219.714 15.4933 219.088 16.28C218.461 17.0667 218.148 18.0133 218.148 19.12C218.148 20.2133 218.348 21.12 218.748 21.84C219.161 22.5467 219.741 22.9 220.488 22.9C221.234 22.9 221.914 22.5667 222.528 21.9C223.141 21.2333 223.614 20.38 223.948 19.34ZM235.476 19.16L235.416 14.82C235.416 14.14 235.669 13.8 236.176 13.8C236.789 13.8 237.096 14.3 237.096 15.3C237.096 16.0867 236.956 17.3733 236.676 19.16C236.836 20.7867 236.916 22 236.916 22.8C236.916 24.5467 236.489 25.9467 235.636 27C234.782 28.0667 233.582 28.6 232.036 28.6C231.209 28.6 230.429 28.4267 229.696 28.08C228.962 27.7467 228.596 27.4067 228.596 27.06C228.596 26.7267 228.749 26.56 229.056 26.56C229.189 26.56 229.556 26.68 230.156 26.92C230.769 27.1733 231.396 27.3 232.036 27.3C233.156 27.3 234.042 26.9 234.696 26.1C235.349 25.3 235.676 24.2667 235.676 23C235.676 22.5333 235.656 22.08 235.616 21.64C234.629 23.3467 233.389 24.2 231.896 24.2C230.829 24.2 230.002 23.8067 229.416 23.02C228.829 22.22 228.536 21.2467 228.536 20.1L228.656 17.08C228.656 16.5467 228.602 16.0533 228.496 15.6C228.389 15.1333 228.336 14.8 228.336 14.6C228.336 14.4 228.416 14.22 228.576 14.06C228.736 13.8867 228.942 13.8 229.196 13.8C229.809 13.8 230.116 14.3467 230.116 15.44L229.956 19.84C229.956 20.7467 230.149 21.4867 230.536 22.06C230.922 22.62 231.456 22.9 232.136 22.9C232.829 22.9 233.496 22.52 234.136 21.76C234.776 20.9867 235.222 20.12 235.476 19.16ZM247.803 19.16C247.803 20.16 247.876 20.98 248.023 21.62C248.17 22.2467 248.343 22.6 248.543 22.68C248.623 22.72 248.716 22.7467 248.823 22.76C248.943 22.7733 249.023 22.7933 249.063 22.82C249.116 22.8467 249.143 22.9 249.143 22.98C249.143 23.34 249.043 23.6333 248.843 23.86C248.656 24.0867 248.37 24.2 247.983 24.2C247.596 24.2 247.296 23.9533 247.083 23.46C246.87 22.9667 246.763 22.3333 246.763 21.56C246.43 22.3067 245.936 22.9333 245.283 23.44C244.643 23.9467 243.916 24.2 243.103 24.2C242.303 24.2 241.61 23.9333 241.023 23.4C239.956 22.4267 239.423 21.0333 239.423 19.22C239.423 17.7667 239.843 16.5 240.683 15.42C241.523 14.34 242.603 13.8 243.923 13.8C244.923 13.8 245.79 14.14 246.523 14.82C246.523 14.14 246.776 13.8 247.283 13.8C247.896 13.8 248.203 14.2733 248.203 15.22C248.203 16.1533 248.07 17.4667 247.803 19.16ZM246.643 19.34L246.543 16.26C245.743 15.4867 244.903 15.1 244.023 15.1C243.156 15.1 242.41 15.4933 241.783 16.28C241.156 17.0667 240.843 18.0133 240.843 19.12C240.843 20.2133 241.043 21.12 241.443 21.84C241.856 22.5467 242.436 22.9 243.183 22.9C243.93 22.9 244.61 22.5667 245.223 21.9C245.836 21.2333 246.31 20.38 246.643 19.34ZM258.209 21.12C258.209 22.0267 257.835 22.7667 257.089 23.34C256.355 23.9133 255.469 24.2 254.429 24.2C253.402 24.2 252.509 23.9667 251.749 23.5C250.989 23.02 250.609 22.5467 250.609 22.08C250.609 21.88 250.669 21.72 250.789 21.6C250.909 21.4667 251.042 21.4 251.189 21.4C251.349 21.4 251.475 21.4333 251.569 21.5C251.662 21.5533 251.789 21.6667 251.949 21.84C252.109 22.0133 252.249 22.16 252.369 22.28C252.502 22.4 252.762 22.5333 253.149 22.68C253.549 22.8267 253.915 22.9 254.249 22.9C254.982 22.9 255.582 22.7533 256.049 22.46C256.529 22.1533 256.769 21.7133 256.769 21.14C256.769 20.4467 256.102 19.8667 254.769 19.4C254.222 19.2133 253.669 19.0133 253.109 18.8C252.562 18.5733 252.095 18.2667 251.709 17.88C251.322 17.4933 251.129 17.0333 251.129 16.5C251.129 15.78 251.455 15.1533 252.109 14.62C252.762 14.0733 253.562 13.8 254.509 13.8C255.455 13.8 256.202 13.9667 256.749 14.3C257.309 14.62 257.589 14.96 257.589 15.32C257.589 15.76 257.355 15.98 256.889 15.98C256.689 15.98 256.489 15.9067 256.289 15.76C255.662 15.32 255.062 15.1 254.489 15.1C253.915 15.1 253.449 15.2333 253.089 15.5C252.729 15.7533 252.549 16.0533 252.549 16.4C252.549 16.7333 252.742 17.02 253.129 17.26C253.515 17.5 253.982 17.72 254.529 17.92C255.089 18.12 255.649 18.3467 256.209 18.6C256.769 18.84 257.242 19.18 257.629 19.62C258.015 20.0467 258.209 20.5467 258.209 21.12ZM12.6173 46.82C13.2706 46.0333 13.5973 45.0867 13.5973 43.98C13.5973 42.8733 13.2839 41.9333 12.6573 41.16C12.0439 40.3867 11.2773 40 10.3573 40C9.43727 40 8.6506 40.3933 7.99727 41.18C7.35727 41.9667 7.03727 42.9133 7.03727 44.02C7.03727 45.1267 7.34393 46.0667 7.95727 46.84C8.58393 47.6133 9.35727 48 10.2773 48C11.1973 48 11.9773 47.6067 12.6173 46.82ZM10.3173 38.7C11.6906 38.7 12.8173 39.2133 13.6973 40.24C14.5773 41.2533 15.0173 42.5 15.0173 43.98C15.0173 45.46 14.5706 46.72 13.6773 47.76C12.7839 48.7867 11.6573 49.3 10.2973 49.3C8.93727 49.3 7.81727 48.7933 6.93727 47.78C6.05727 46.7533 5.61727 45.5 5.61727 44.02C5.61727 42.54 6.05727 41.2867 6.93727 40.26C7.8306 39.22 8.95727 38.7 10.3173 38.7ZM18.8277 41.5L18.9277 48.2C18.9277 48.8667 18.6744 49.2 18.1677 49.2C17.6611 49.2 17.4077 48.8667 17.4077 48.2L17.5077 41.5L17.4077 34.8C17.4077 34.1333 17.6611 33.8 18.1677 33.8C18.6744 33.8 18.9277 34.1333 18.9277 34.8L18.8277 41.5ZM25.1004 47.2C25.1804 47.3333 25.2404 47.4 25.2804 47.4C25.3204 47.4 25.3737 47.3333 25.4404 47.2C25.5204 47.0533 25.6204 46.8267 25.7404 46.52C25.8604 46.2133 25.9604 45.94 26.0404 45.7C26.1337 45.46 26.2671 45.1067 26.4404 44.64L26.7804 43.66C26.9937 43.0733 27.2604 42.28 27.5804 41.28C27.9004 40.2667 28.0937 39.68 28.1604 39.52C28.3471 39.04 28.6071 38.8 28.9404 38.8C29.1404 38.8 29.3071 38.8667 29.4404 39C29.5871 39.12 29.6604 39.2733 29.6604 39.46C29.6604 39.6333 29.6004 39.8733 29.4804 40.18C29.3737 40.4733 29.1671 41.0067 28.8604 41.78C28.5671 42.54 28.1404 43.6933 27.5804 45.24C27.0337 46.7867 26.6204 47.8333 26.3404 48.38C26.0604 48.9267 25.6871 49.2 25.2204 49.2C24.7671 49.2 24.4204 48.96 24.1804 48.48C24.0871 48.2933 23.7404 47.4133 23.1404 45.84C22.5404 44.2533 22.1404 43.2067 21.9404 42.7C21.7404 42.1933 21.5804 41.8 21.4604 41.52C21.3537 41.24 21.2537 40.96 21.1604 40.68C20.9604 40.12 20.8604 39.7333 20.8604 39.52C20.8604 39.2933 20.9271 39.12 21.0604 39C21.1937 38.8667 21.3604 38.8 21.5604 38.8C21.9204 38.8 22.1937 39.0333 22.3804 39.5C22.4471 39.66 22.6404 40.2467 22.9604 41.26C23.2937 42.26 23.5337 42.96 23.6804 43.36C23.8271 43.7467 23.9804 44.1667 24.1404 44.62C24.3004 45.0733 24.4204 45.4267 24.5004 45.68C24.5937 45.9333 24.7004 46.2133 24.8204 46.52C24.9404 46.8267 25.0337 47.0533 25.1004 47.2ZM32.4474 34.5C32.7274 34.5 32.9341 34.5933 33.0674 34.78C33.2008 34.9533 33.2674 35.18 33.2674 35.46C33.2674 35.7267 33.1741 36 32.9874 36.28C32.8008 36.5467 32.5674 36.68 32.2874 36.68C32.0074 36.68 31.7941 36.5867 31.6474 36.4C31.5141 36.2133 31.4474 35.9667 31.4474 35.66C31.4474 35.3533 31.5408 35.0867 31.7274 34.86C31.9274 34.62 32.1674 34.5 32.4474 34.5ZM33.0074 44L33.1074 48.2C33.1074 48.8667 32.8541 49.2 32.3474 49.2C31.8408 49.2 31.5874 48.8667 31.5874 48.2L31.6874 44L31.5874 39.8C31.5874 39.1333 31.8408 38.8 32.3474 38.8C32.8541 38.8 33.1074 39.1333 33.1074 39.8L33.0074 44ZM43.0601 44.44V41.26C42.2601 40.4867 41.3134 40.1 40.2201 40.1C39.3667 40.1 38.6134 40.4933 37.9601 41.28C37.3201 42.0667 37.0001 42.9933 37.0001 44.06C37.0001 45.1133 37.2334 46.02 37.7001 46.78C38.1667 47.5267 38.8001 47.9 39.6001 47.9C41.0001 47.9 42.1534 46.7467 43.0601 44.44ZM45.1801 47.72C45.5267 47.72 45.7001 47.82 45.7001 48.02C45.7001 48.2733 45.6067 48.5333 45.4201 48.8C45.2467 49.0667 44.9667 49.2 44.5801 49.2C44.1934 49.2 43.8867 48.9867 43.6601 48.56C43.4467 48.1333 43.2934 47.4533 43.2001 46.52C42.2267 48.3067 40.9934 49.2 39.5001 49.2C38.6334 49.2 37.8867 48.92 37.2601 48.36C36.6334 47.8 36.1867 47.1533 35.9201 46.42C35.6534 45.6867 35.5201 44.9533 35.5201 44.22C35.5201 42.7667 35.9601 41.5 36.8401 40.42C37.7201 39.34 38.8467 38.8 40.2201 38.8C41.2201 38.8 42.1667 39.1267 43.0601 39.78C43.0867 37.9267 43.1001 36.5733 43.1001 35.72C43.1001 34.8533 43.1601 34.32 43.2801 34.12C43.4134 33.9067 43.6201 33.8 43.9001 33.8C44.1934 33.8 44.4267 33.92 44.6001 34.16C44.7867 34.3867 44.8801 34.7267 44.8801 35.18C44.8801 35.6333 44.8534 36.1933 44.8001 36.86C44.7467 37.5133 44.6667 38.3867 44.5601 39.48C44.4534 40.56 44.3667 41.54 44.3001 42.42C44.3001 44.0467 44.3601 45.32 44.4801 46.24C44.6001 47.16 44.8334 47.6533 45.1801 47.72ZM55.6779 44.16C55.6779 45.16 55.7512 45.98 55.8979 46.62C56.0446 47.2467 56.2179 47.6 56.4179 47.68C56.4979 47.72 56.5912 47.7467 56.6979 47.76C56.8179 47.7733 56.8979 47.7933 56.9379 47.82C56.9912 47.8467 57.0179 47.9 57.0179 47.98C57.0179 48.34 56.9179 48.6333 56.7179 48.86C56.5312 49.0867 56.2446 49.2 55.8579 49.2C55.4712 49.2 55.1712 48.9533 54.9579 48.46C54.7446 47.9667 54.6379 47.3333 54.6379 46.56C54.3046 47.3067 53.8112 47.9333 53.1579 48.44C52.5179 48.9467 51.7912 49.2 50.9779 49.2C50.1779 49.2 49.4846 48.9333 48.8979 48.4C47.8312 47.4267 47.2979 46.0333 47.2979 44.22C47.2979 42.7667 47.7179 41.5 48.5579 40.42C49.3979 39.34 50.4779 38.8 51.7979 38.8C52.7979 38.8 53.6646 39.14 54.3979 39.82C54.3979 39.14 54.6512 38.8 55.1579 38.8C55.7712 38.8 56.0779 39.2733 56.0779 40.22C56.0779 41.1533 55.9446 42.4667 55.6779 44.16ZM54.5179 44.34L54.4179 41.26C53.6179 40.4867 52.7779 40.1 51.8979 40.1C51.0312 40.1 50.2846 40.4933 49.6579 41.28C49.0312 42.0667 48.7179 43.0133 48.7179 44.12C48.7179 45.2133 48.9179 46.12 49.3179 46.84C49.7312 47.5467 50.3112 47.9 51.0579 47.9C51.8046 47.9 52.4846 47.5667 53.0979 46.9C53.7112 46.2333 54.1846 45.38 54.5179 44.34ZM66.1655 44.44V41.26C65.3655 40.4867 64.4189 40.1 63.3255 40.1C62.4722 40.1 61.7189 40.4933 61.0655 41.28C60.4255 42.0667 60.1055 42.9933 60.1055 44.06C60.1055 45.1133 60.3389 46.02 60.8055 46.78C61.2722 47.5267 61.9055 47.9 62.7055 47.9C64.1055 47.9 65.2589 46.7467 66.1655 44.44ZM68.2855 47.72C68.6322 47.72 68.8055 47.82 68.8055 48.02C68.8055 48.2733 68.7122 48.5333 68.5255 48.8C68.3522 49.0667 68.0722 49.2 67.6855 49.2C67.2989 49.2 66.9922 48.9867 66.7655 48.56C66.5522 48.1333 66.3989 47.4533 66.3055 46.52C65.3322 48.3067 64.0989 49.2 62.6055 49.2C61.7389 49.2 60.9922 48.92 60.3655 48.36C59.7389 47.8 59.2922 47.1533 59.0255 46.42C58.7589 45.6867 58.6255 44.9533 58.6255 44.22C58.6255 42.7667 59.0655 41.5 59.9455 40.42C60.8255 39.34 61.9522 38.8 63.3255 38.8C64.3255 38.8 65.2722 39.1267 66.1655 39.78C66.1922 37.9267 66.2055 36.5733 66.2055 35.72C66.2055 34.8533 66.2655 34.32 66.3855 34.12C66.5189 33.9067 66.7255 33.8 67.0055 33.8C67.2989 33.8 67.5322 33.92 67.7055 34.16C67.8922 34.3867 67.9855 34.7267 67.9855 35.18C67.9855 35.6333 67.9589 36.1933 67.9055 36.86C67.8522 37.5133 67.7722 38.3867 67.6655 39.48C67.5589 40.56 67.4722 41.54 67.4055 42.42C67.4055 44.0467 67.4655 45.32 67.5855 46.24C67.7055 47.16 67.9389 47.6533 68.2855 47.72ZM77.3634 46.82C78.0167 46.0333 78.3434 45.0867 78.3434 43.98C78.3434 42.8733 78.03 41.9333 77.4034 41.16C76.79 40.3867 76.0234 40 75.1034 40C74.1834 40 73.3967 40.3933 72.7434 41.18C72.1034 41.9667 71.7834 42.9133 71.7834 44.02C71.7834 45.1267 72.09 46.0667 72.7034 46.84C73.33 47.6133 74.1034 48 75.0234 48C75.9434 48 76.7234 47.6067 77.3634 46.82ZM75.0634 38.7C76.4367 38.7 77.5634 39.2133 78.4434 40.24C79.3234 41.2533 79.7634 42.5 79.7634 43.98C79.7634 45.46 79.3167 46.72 78.4234 47.76C77.53 48.7867 76.4034 49.3 75.0434 49.3C73.6834 49.3 72.5634 48.7933 71.6834 47.78C70.8034 46.7533 70.3634 45.5 70.3634 44.02C70.3634 42.54 70.8034 41.2867 71.6834 40.26C72.5767 39.22 73.7034 38.7 75.0634 38.7ZM89.0995 40.22L89.0595 44.96C89.0595 46.1733 89.1061 46.9667 89.1995 47.34C89.3061 47.7133 89.5728 47.9 89.9995 47.9C90.1995 47.9 90.4395 47.8333 90.7195 47.7C91.0128 47.5533 91.2061 47.48 91.2995 47.48C91.5795 47.48 91.7195 47.62 91.7195 47.9C91.7195 48.1667 91.4728 48.4533 90.9795 48.76C90.4861 49.0533 89.9995 49.2 89.5195 49.2C88.3595 49.2 87.7795 48.3467 87.7795 46.64L87.7595 40.22C87.3195 40.26 87.0128 40.28 86.8395 40.28C86.1728 40.28 85.8395 40.06 85.8395 39.62C85.8395 39.18 86.1728 38.96 86.8395 38.96C86.8928 38.96 87.1861 38.9733 87.7195 39L87.6795 36.76C87.6795 36.0933 87.9328 35.76 88.4395 35.76C88.9461 35.76 89.1995 36.0933 89.1995 36.76L89.1395 39.02L90.7595 38.94C91.4261 38.94 91.7595 39.1667 91.7595 39.62C91.7595 40.0467 91.4261 40.26 90.7595 40.26C90.6395 40.26 90.0861 40.2467 89.0995 40.22ZM95.1977 40.44L95.0377 44.84C95.0377 45.7467 95.2311 46.4867 95.6177 47.06C96.0044 47.62 96.5377 47.9 97.2177 47.9C97.9111 47.9 98.5777 47.52 99.2177 46.76C99.8577 45.9867 100.304 45.12 100.558 44.16L100.498 39.82C100.498 39.14 100.751 38.8 101.258 38.8C101.871 38.8 102.178 39.2733 102.178 40.22C102.178 41.1533 102.044 42.4667 101.778 44.16C101.778 45.16 101.851 45.98 101.998 46.62C102.144 47.2467 102.318 47.6 102.518 47.68C102.598 47.72 102.691 47.7467 102.798 47.76C102.918 47.7733 102.998 47.7933 103.038 47.82C103.091 47.8467 103.118 47.9 103.118 47.98C103.118 48.34 103.004 48.6333 102.778 48.86C102.564 49.0867 102.291 49.2 101.958 49.2C101.118 49.2 100.698 48.3467 100.698 46.64C99.7111 48.3467 98.4711 49.2 96.9777 49.2C95.9111 49.2 95.0844 48.8067 94.4977 48.02C93.9111 47.22 93.6177 46.2467 93.6177 45.1L93.7377 42.08C93.7377 41.5467 93.6844 41.0533 93.5777 40.6C93.4711 40.1333 93.4177 39.8 93.4177 39.6C93.4177 39.4 93.4977 39.22 93.6577 39.06C93.8177 38.8867 94.0244 38.8 94.2777 38.8C94.8911 38.8 95.1977 39.3467 95.1977 40.44ZM117.543 46.94C117.876 46.94 118.043 47.12 118.043 47.48C118.043 47.8267 117.656 48.22 116.883 48.66C116.11 49.0867 115.296 49.3 114.443 49.3C113.043 49.3 111.876 48.7867 110.943 47.76C110.01 46.72 109.543 45.4667 109.543 44C109.543 42.5333 110.01 41.2867 110.943 40.26C111.89 39.22 113.13 38.7 114.663 38.7C115.503 38.7 116.243 38.8933 116.883 39.28C117.536 39.6533 117.863 40.04 117.863 40.44C117.863 40.6533 117.796 40.8333 117.663 40.98C117.53 41.1133 117.376 41.18 117.203 41.18C117.03 41.18 116.83 41.08 116.603 40.88C115.91 40.2933 115.203 40 114.483 40C113.563 40 112.756 40.3867 112.063 41.16C111.383 41.9333 111.043 42.8733 111.043 43.98C111.043 45.0867 111.39 46.0333 112.083 46.82C112.776 47.6067 113.636 48 114.663 48C115.45 48 116.216 47.7333 116.963 47.2C117.216 47.0267 117.41 46.94 117.543 46.94ZM126.543 46.82C127.196 46.0333 127.523 45.0867 127.523 43.98C127.523 42.8733 127.21 41.9333 126.583 41.16C125.97 40.3867 125.203 40 124.283 40C123.363 40 122.576 40.3933 121.923 41.18C121.283 41.9667 120.963 42.9133 120.963 44.02C120.963 45.1267 121.27 46.0667 121.883 46.84C122.51 47.6133 123.283 48 124.203 48C125.123 48 125.903 47.6067 126.543 46.82ZM124.243 38.7C125.616 38.7 126.743 39.2133 127.623 40.24C128.503 41.2533 128.943 42.5 128.943 43.98C128.943 45.46 128.496 46.72 127.603 47.76C126.71 48.7867 125.583 49.3 124.223 49.3C122.863 49.3 121.743 48.7933 120.863 47.78C119.983 46.7533 119.543 45.5 119.543 44.02C119.543 42.54 119.983 41.2867 120.863 40.26C121.756 39.22 122.883 38.7 124.243 38.7ZM139.774 42.7L139.674 45.84C139.674 46.2133 139.674 46.5 139.674 46.7C139.687 46.8867 139.727 47.0867 139.794 47.3C139.874 47.5 139.967 47.6267 140.074 47.68C140.18 47.72 140.287 47.7467 140.394 47.76C140.514 47.7733 140.594 47.7933 140.634 47.82C140.687 47.8467 140.714 47.9 140.714 47.98C140.714 48.3267 140.6 48.62 140.374 48.86C140.16 49.0867 139.907 49.2 139.614 49.2C139.107 49.2 138.754 49 138.554 48.6C138.367 48.2 138.274 47.6133 138.274 46.84L138.354 43.16C138.354 42.2533 138.16 41.52 137.774 40.96C137.387 40.4 136.847 40.12 136.154 40.12C135.474 40.12 134.814 40.5 134.174 41.26C133.534 42.02 133.087 42.88 132.834 43.84L132.894 48.18C132.894 48.86 132.64 49.2 132.134 49.2C131.52 49.2 131.214 48.7333 131.214 47.8C131.214 46.8533 131.347 45.5333 131.614 43.84C131.614 43.28 131.554 42.5067 131.434 41.52C131.327 40.5333 131.274 39.9267 131.274 39.7C131.274 39.46 131.34 39.2533 131.474 39.08C131.62 38.8933 131.814 38.8 132.054 38.8C132.294 38.8 132.48 38.8933 132.614 39.08C132.76 39.2533 132.834 39.4533 132.834 39.68C132.834 39.9067 132.827 40.1867 132.814 40.52C132.814 40.84 132.814 41.1133 132.814 41.34C133.787 39.6467 134.987 38.8 136.414 38.8C137.48 38.8 138.307 39.18 138.894 39.94C139.48 40.7 139.774 41.62 139.774 42.7ZM144.92 40.22L144.88 44.96C144.88 46.1733 144.926 46.9667 145.02 47.34C145.126 47.7133 145.393 47.9 145.82 47.9C146.02 47.9 146.26 47.8333 146.54 47.7C146.833 47.5533 147.026 47.48 147.12 47.48C147.4 47.48 147.54 47.62 147.54 47.9C147.54 48.1667 147.293 48.4533 146.8 48.76C146.306 49.0533 145.82 49.2 145.34 49.2C144.18 49.2 143.6 48.3467 143.6 46.64L143.58 40.22C143.14 40.26 142.833 40.28 142.66 40.28C141.993 40.28 141.66 40.06 141.66 39.62C141.66 39.18 141.993 38.96 142.66 38.96C142.713 38.96 143.006 38.9733 143.54 39L143.5 36.76C143.5 36.0933 143.753 35.76 144.26 35.76C144.766 35.76 145.02 36.0933 145.02 36.76L144.96 39.02L146.58 38.94C147.246 38.94 147.58 39.1667 147.58 39.62C147.58 40.0467 147.246 40.26 146.58 40.26C146.46 40.26 145.906 40.2467 144.92 40.22ZM150.978 44.42L151.038 48.18C151.038 48.86 150.785 49.2 150.278 49.2C149.665 49.2 149.358 48.7333 149.358 47.8C149.358 46.8533 149.491 45.5333 149.758 43.84C149.758 43.28 149.698 42.5133 149.578 41.54C149.471 40.5667 149.418 39.96 149.418 39.72C149.418 39.48 149.485 39.2667 149.618 39.08C149.765 38.8933 149.958 38.8 150.198 38.8C150.438 38.8 150.625 38.8933 150.758 39.08C150.905 39.2667 150.978 39.4733 150.978 39.7C150.978 39.9133 150.971 40.1933 150.958 40.54C150.958 40.8733 150.958 41.1533 150.958 41.38C151.225 40.7 151.638 40.1 152.198 39.58C152.771 39.06 153.358 38.8 153.958 38.8C154.558 38.8 155.018 38.9267 155.338 39.18C155.671 39.42 155.838 39.68 155.838 39.96C155.838 40.24 155.765 40.46 155.618 40.62C155.471 40.78 155.278 40.86 155.038 40.86C154.811 40.86 154.558 40.74 154.278 40.5C154.011 40.2467 153.798 40.12 153.638 40.12C153.198 40.12 152.685 40.5933 152.098 41.54C151.511 42.4867 151.138 43.4467 150.978 44.42ZM165.287 44.16C165.287 45.16 165.361 45.98 165.507 46.62C165.654 47.2467 165.827 47.6 166.027 47.68C166.107 47.72 166.201 47.7467 166.307 47.76C166.427 47.7733 166.507 47.7933 166.547 47.82C166.601 47.8467 166.627 47.9 166.627 47.98C166.627 48.34 166.527 48.6333 166.327 48.86C166.141 49.0867 165.854 49.2 165.467 49.2C165.081 49.2 164.781 48.9533 164.567 48.46C164.354 47.9667 164.247 47.3333 164.247 46.56C163.914 47.3067 163.421 47.9333 162.767 48.44C162.127 48.9467 161.401 49.2 160.587 49.2C159.787 49.2 159.094 48.9333 158.507 48.4C157.441 47.4267 156.907 46.0333 156.907 44.22C156.907 42.7667 157.327 41.5 158.167 40.42C159.007 39.34 160.087 38.8 161.407 38.8C162.407 38.8 163.274 39.14 164.007 39.82C164.007 39.14 164.261 38.8 164.767 38.8C165.381 38.8 165.687 39.2733 165.687 40.22C165.687 41.1533 165.554 42.4667 165.287 44.16ZM164.127 44.34L164.027 41.26C163.227 40.4867 162.387 40.1 161.507 40.1C160.641 40.1 159.894 40.4933 159.267 41.28C158.641 42.0667 158.327 43.0133 158.327 44.12C158.327 45.2133 158.527 46.12 158.927 46.84C159.341 47.5467 159.921 47.9 160.667 47.9C161.414 47.9 162.094 47.5667 162.707 46.9C163.321 46.2333 163.794 45.38 164.127 44.34ZM175.693 46.12C175.693 47.0267 175.32 47.7667 174.573 48.34C173.84 48.9133 172.953 49.2 171.913 49.2C170.886 49.2 169.993 48.9667 169.233 48.5C168.473 48.02 168.093 47.5467 168.093 47.08C168.093 46.88 168.153 46.72 168.273 46.6C168.393 46.4667 168.526 46.4 168.673 46.4C168.833 46.4 168.96 46.4333 169.053 46.5C169.146 46.5533 169.273 46.6667 169.433 46.84C169.593 47.0133 169.733 47.16 169.853 47.28C169.986 47.4 170.246 47.5333 170.633 47.68C171.033 47.8267 171.4 47.9 171.733 47.9C172.466 47.9 173.066 47.7533 173.533 47.46C174.013 47.1533 174.253 46.7133 174.253 46.14C174.253 45.4467 173.586 44.8667 172.253 44.4C171.706 44.2133 171.153 44.0133 170.593 43.8C170.046 43.5733 169.58 43.2667 169.193 42.88C168.806 42.4933 168.613 42.0333 168.613 41.5C168.613 40.78 168.94 40.1533 169.593 39.62C170.246 39.0733 171.046 38.8 171.993 38.8C172.94 38.8 173.686 38.9667 174.233 39.3C174.793 39.62 175.073 39.96 175.073 40.32C175.073 40.76 174.84 40.98 174.373 40.98C174.173 40.98 173.973 40.9067 173.773 40.76C173.146 40.32 172.546 40.1 171.973 40.1C171.4 40.1 170.933 40.2333 170.573 40.5C170.213 40.7533 170.033 41.0533 170.033 41.4C170.033 41.7333 170.226 42.02 170.613 42.26C171 42.5 171.466 42.72 172.013 42.92C172.573 43.12 173.133 43.3467 173.693 43.6C174.253 43.84 174.726 44.18 175.113 44.62C175.5 45.0467 175.693 45.5467 175.693 46.12ZM181.875 43.62C182.781 43.62 183.501 43.4667 184.035 43.16C184.581 42.8533 184.855 42.44 184.855 41.92C184.855 41.4 184.675 40.9533 184.315 40.58C183.968 40.1933 183.468 40 182.815 40C181.935 40 181.195 40.3333 180.595 41C179.995 41.6533 179.608 42.42 179.435 43.3C180.168 43.5133 180.981 43.62 181.875 43.62ZM182.635 38.7C183.715 38.7 184.588 39 185.255 39.6C185.935 40.2 186.275 40.98 186.275 41.94C186.275 42.9 185.855 43.6333 185.015 44.14C184.188 44.6333 183.168 44.88 181.955 44.88C181.261 44.88 180.415 44.78 179.415 44.58C179.495 45.5133 179.841 46.32 180.455 47C181.081 47.6667 181.775 48 182.535 48C182.988 48 183.408 47.94 183.795 47.82C184.181 47.6867 184.475 47.5467 184.675 47.4C185.208 46.9867 185.555 46.78 185.715 46.78C185.888 46.78 186.021 46.8333 186.115 46.94C186.221 47.0333 186.275 47.1533 186.275 47.3C186.275 47.6733 185.888 48.1 185.115 48.58C184.355 49.06 183.528 49.3 182.635 49.3C181.248 49.3 180.148 48.8133 179.335 47.84C178.521 46.8667 178.081 45.6933 178.015 44.32C177.308 44.1067 176.955 43.76 176.955 43.28C176.955 43.08 177.008 42.9267 177.115 42.82C177.235 42.7 177.375 42.64 177.535 42.64C177.695 42.64 177.895 42.7 178.135 42.82C178.428 41.62 178.981 40.6333 179.795 39.86C180.621 39.0867 181.568 38.7 182.635 38.7ZM197.176 42.7L197.076 45.84C197.076 46.2133 197.076 46.5 197.076 46.7C197.089 46.8867 197.129 47.0867 197.196 47.3C197.276 47.5 197.369 47.6267 197.476 47.68C197.583 47.72 197.689 47.7467 197.796 47.76C197.916 47.7733 197.996 47.7933 198.036 47.82C198.089 47.8467 198.116 47.9 198.116 47.98C198.116 48.3267 198.003 48.62 197.776 48.86C197.563 49.0867 197.309 49.2 197.016 49.2C196.509 49.2 196.156 49 195.956 48.6C195.769 48.2 195.676 47.6133 195.676 46.84L195.756 43.16C195.756 42.2533 195.563 41.52 195.176 40.96C194.789 40.4 194.249 40.12 193.556 40.12C192.876 40.12 192.216 40.5 191.576 41.26C190.936 42.02 190.489 42.88 190.236 43.84L190.296 48.18C190.296 48.86 190.043 49.2 189.536 49.2C188.923 49.2 188.616 48.7333 188.616 47.8C188.616 46.8533 188.749 45.5333 189.016 43.84C189.016 43.28 188.956 42.5067 188.836 41.52C188.729 40.5333 188.676 39.9267 188.676 39.7C188.676 39.46 188.743 39.2533 188.876 39.08C189.023 38.8933 189.216 38.8 189.456 38.8C189.696 38.8 189.883 38.8933 190.016 39.08C190.163 39.2533 190.236 39.4533 190.236 39.68C190.236 39.9067 190.229 40.1867 190.216 40.52C190.216 40.84 190.216 41.1133 190.216 41.34C191.189 39.6467 192.389 38.8 193.816 38.8C194.883 38.8 195.709 39.18 196.296 39.94C196.883 40.7 197.176 41.62 197.176 42.7ZM196.476 35.36C196.476 35.8133 196.303 36.2133 195.956 36.56C195.623 36.8933 195.223 37.06 194.756 37.06C194.303 37.06 193.756 36.88 193.116 36.52C192.476 36.1467 192.016 35.96 191.736 35.96C191.469 35.96 191.243 36.06 191.056 36.26C190.883 36.46 190.716 36.6667 190.556 36.88C190.396 37.08 190.216 37.18 190.016 37.18C189.829 37.18 189.669 37.1067 189.536 36.96C189.403 36.8133 189.336 36.6467 189.336 36.46C189.336 35.9933 189.549 35.5867 189.976 35.24C190.403 34.88 190.889 34.7 191.436 34.7C191.996 34.7 192.616 34.8867 193.296 35.26C193.989 35.6333 194.476 35.82 194.756 35.82C195.049 35.82 195.309 35.6533 195.536 35.32C195.763 34.9733 195.936 34.8 196.056 34.8C196.176 34.8 196.276 34.86 196.356 34.98C196.436 35.0867 196.476 35.2133 196.476 35.36ZM208.178 44.16C208.178 45.16 208.251 45.98 208.398 46.62C208.545 47.2467 208.718 47.6 208.918 47.68C208.998 47.72 209.091 47.7467 209.198 47.76C209.318 47.7733 209.398 47.7933 209.438 47.82C209.491 47.8467 209.518 47.9 209.518 47.98C209.518 48.34 209.418 48.6333 209.218 48.86C209.031 49.0867 208.745 49.2 208.358 49.2C207.971 49.2 207.671 48.9533 207.458 48.46C207.245 47.9667 207.138 47.3333 207.138 46.56C206.805 47.3067 206.311 47.9333 205.658 48.44C205.018 48.9467 204.291 49.2 203.478 49.2C202.678 49.2 201.985 48.9333 201.398 48.4C200.331 47.4267 199.798 46.0333 199.798 44.22C199.798 42.7667 200.218 41.5 201.058 40.42C201.898 39.34 202.978 38.8 204.298 38.8C205.298 38.8 206.165 39.14 206.898 39.82C206.898 39.14 207.151 38.8 207.658 38.8C208.271 38.8 208.578 39.2733 208.578 40.22C208.578 41.1533 208.445 42.4667 208.178 44.16ZM207.018 44.34L206.918 41.26C206.118 40.4867 205.278 40.1 204.398 40.1C203.531 40.1 202.785 40.4933 202.158 41.28C201.531 42.0667 201.218 43.0133 201.218 44.12C201.218 45.2133 201.418 46.12 201.818 46.84C202.231 47.5467 202.811 47.9 203.558 47.9C204.305 47.9 204.985 47.5667 205.598 46.9C206.211 46.2333 206.685 45.38 207.018 44.34ZM213.284 48.02C213.284 48.9267 213.05 49.8267 212.584 50.72C212.13 51.6133 211.677 52.06 211.224 52.06C211.117 52.06 211.024 52.02 210.944 51.94C210.864 51.8733 210.824 51.7867 210.824 51.68C210.824 51.5867 210.944 51.3267 211.184 50.9C211.437 50.4867 211.564 50.1067 211.564 49.76C211.564 49.4267 211.537 49.14 211.484 48.9C211.43 48.6467 211.404 48.3867 211.404 48.12C211.404 47.8533 211.497 47.5933 211.684 47.34C211.884 47.0867 212.124 46.96 212.404 46.96C212.697 46.96 212.917 47.0667 213.064 47.28C213.21 47.48 213.284 47.7267 213.284 48.02ZM221.569 34.5C221.849 34.5 222.055 34.5933 222.189 34.78C222.322 34.9533 222.389 35.18 222.389 35.46C222.389 35.7267 222.295 36 222.109 36.28C221.922 36.5467 221.689 36.68 221.409 36.68C221.129 36.68 220.915 36.5867 220.769 36.4C220.635 36.2133 220.569 35.9667 220.569 35.66C220.569 35.3533 220.662 35.0867 220.849 34.86C221.049 34.62 221.289 34.5 221.569 34.5ZM222.129 44L222.229 48.2C222.229 48.8667 221.975 49.2 221.469 49.2C220.962 49.2 220.709 48.8667 220.709 48.2L220.809 44L220.709 39.8C220.709 39.1333 220.962 38.8 221.469 38.8C221.975 38.8 222.229 39.1333 222.229 39.8L222.129 44ZM233.621 42.7L233.521 45.84C233.521 46.2133 233.521 46.5 233.521 46.7C233.535 46.8867 233.575 47.0867 233.641 47.3C233.721 47.5 233.815 47.6267 233.921 47.68C234.028 47.72 234.135 47.7467 234.241 47.76C234.361 47.7733 234.441 47.7933 234.481 47.82C234.535 47.8467 234.561 47.9 234.561 47.98C234.561 48.3267 234.448 48.62 234.221 48.86C234.008 49.0867 233.755 49.2 233.461 49.2C232.955 49.2 232.601 49 232.401 48.6C232.215 48.2 232.121 47.6133 232.121 46.84L232.201 43.16C232.201 42.2533 232.008 41.52 231.621 40.96C231.235 40.4 230.695 40.12 230.001 40.12C229.321 40.12 228.661 40.5 228.021 41.26C227.381 42.02 226.935 42.88 226.681 43.84L226.741 48.18C226.741 48.86 226.488 49.2 225.981 49.2C225.368 49.2 225.061 48.7333 225.061 47.8C225.061 46.8533 225.195 45.5333 225.461 43.84C225.461 43.28 225.401 42.5067 225.281 41.52C225.175 40.5333 225.121 39.9267 225.121 39.7C225.121 39.46 225.188 39.2533 225.321 39.08C225.468 38.8933 225.661 38.8 225.901 38.8C226.141 38.8 226.328 38.8933 226.461 39.08C226.608 39.2533 226.681 39.4533 226.681 39.68C226.681 39.9067 226.675 40.1867 226.661 40.52C226.661 40.84 226.661 41.1133 226.661 41.34C227.635 39.6467 228.835 38.8 230.261 38.8C231.328 38.8 232.155 39.18 232.741 39.94C233.328 40.7 233.621 41.62 233.621 42.7ZM243.443 44.32V41.26C242.71 40.4867 241.897 40.1 241.003 40.1C240.123 40.1 239.35 40.5 238.683 41.3C238.03 42.0867 237.703 43.0267 237.703 44.12C237.703 45.2 237.91 46.1 238.323 46.82C238.737 47.54 239.303 47.9 240.023 47.9C240.757 47.9 241.43 47.56 242.043 46.88C242.657 46.2 243.123 45.3467 243.443 44.32ZM243.403 39.74C243.43 39.1133 243.683 38.8 244.163 38.8C244.777 38.8 245.083 39.2733 245.083 40.22C245.083 41.1533 244.95 42.4667 244.683 44.16C244.843 45.7867 244.923 47 244.923 47.8C244.923 49.5467 244.51 50.9467 243.683 52C242.87 53.0667 241.723 53.6 240.243 53.6C239.417 53.6 238.637 53.4267 237.903 53.08C237.17 52.7467 236.803 52.4067 236.803 52.06C236.803 51.7267 236.957 51.56 237.263 51.56C237.383 51.56 237.723 51.68 238.283 51.92C238.857 52.1733 239.51 52.3 240.243 52.3C241.31 52.3 242.15 51.9 242.763 51.1C243.377 50.3 243.683 49.2667 243.683 48C243.683 47.48 243.65 47 243.583 46.56C243.29 47.28 242.81 47.9 242.143 48.42C241.49 48.94 240.81 49.2 240.103 49.2C239.41 49.2 238.817 49.0467 238.323 48.74C237.83 48.4333 237.43 48.0333 237.123 47.54C236.523 46.54 236.223 45.38 236.223 44.06C236.223 42.7267 236.67 41.52 237.563 40.44C238.47 39.3467 239.583 38.8 240.903 38.8C241.823 38.8 242.657 39.1133 243.403 39.74ZM249.416 44.42L249.476 48.18C249.476 48.86 249.222 49.2 248.716 49.2C248.102 49.2 247.796 48.7333 247.796 47.8C247.796 46.8533 247.929 45.5333 248.196 43.84C248.196 43.28 248.136 42.5133 248.016 41.54C247.909 40.5667 247.856 39.96 247.856 39.72C247.856 39.48 247.922 39.2667 248.056 39.08C248.202 38.8933 248.396 38.8 248.636 38.8C248.876 38.8 249.062 38.8933 249.196 39.08C249.342 39.2667 249.416 39.4733 249.416 39.7C249.416 39.9133 249.409 40.1933 249.396 40.54C249.396 40.8733 249.396 41.1533 249.396 41.38C249.662 40.7 250.076 40.1 250.636 39.58C251.209 39.06 251.796 38.8 252.396 38.8C252.996 38.8 253.456 38.9267 253.776 39.18C254.109 39.42 254.276 39.68 254.276 39.96C254.276 40.24 254.202 40.46 254.056 40.62C253.909 40.78 253.716 40.86 253.476 40.86C253.249 40.86 252.996 40.74 252.716 40.5C252.449 40.2467 252.236 40.12 252.076 40.12C251.636 40.12 251.122 40.5933 250.536 41.54C249.949 42.4867 249.576 43.4467 249.416 44.42ZM259.394 43.62C260.301 43.62 261.021 43.4667 261.554 43.16C262.101 42.8533 262.374 42.44 262.374 41.92C262.374 41.4 262.194 40.9533 261.834 40.58C261.487 40.1933 260.987 40 260.334 40C259.454 40 258.714 40.3333 258.114 41C257.514 41.6533 257.127 42.42 256.954 43.3C257.687 43.5133 258.501 43.62 259.394 43.62ZM260.154 38.7C261.234 38.7 262.107 39 262.774 39.6C263.454 40.2 263.794 40.98 263.794 41.94C263.794 42.9 263.374 43.6333 262.534 44.14C261.707 44.6333 260.687 44.88 259.474 44.88C258.781 44.88 257.934 44.78 256.934 44.58C257.014 45.5133 257.361 46.32 257.974 47C258.601 47.6667 259.294 48 260.054 48C260.507 48 260.927 47.94 261.314 47.82C261.701 47.6867 261.994 47.5467 262.194 47.4C262.727 46.9867 263.074 46.78 263.234 46.78C263.407 46.78 263.541 46.8333 263.634 46.94C263.741 47.0333 263.794 47.1533 263.794 47.3C263.794 47.6733 263.407 48.1 262.634 48.58C261.874 49.06 261.047 49.3 260.154 49.3C258.767 49.3 257.667 48.8133 256.854 47.84C256.041 46.8667 255.601 45.6933 255.534 44.32C254.827 44.1067 254.474 43.76 254.474 43.28C254.474 43.08 254.527 42.9267 254.634 42.82C254.754 42.7 254.894 42.64 255.054 42.64C255.214 42.64 255.414 42.7 255.654 42.82C255.947 41.62 256.501 40.6333 257.314 39.86C258.141 39.0867 259.087 38.7 260.154 38.7ZM273.095 46.12C273.095 47.0267 272.722 47.7667 271.975 48.34C271.242 48.9133 270.355 49.2 269.315 49.2C268.289 49.2 267.395 48.9667 266.635 48.5C265.875 48.02 265.495 47.5467 265.495 47.08C265.495 46.88 265.555 46.72 265.675 46.6C265.795 46.4667 265.929 46.4 266.075 46.4C266.235 46.4 266.362 46.4333 266.455 46.5C266.549 46.5533 266.675 46.6667 266.835 46.84C266.995 47.0133 267.135 47.16 267.255 47.28C267.389 47.4 267.649 47.5333 268.035 47.68C268.435 47.8267 268.802 47.9 269.135 47.9C269.869 47.9 270.469 47.7533 270.935 47.46C271.415 47.1533 271.655 46.7133 271.655 46.14C271.655 45.4467 270.989 44.8667 269.655 44.4C269.109 44.2133 268.555 44.0133 267.995 43.8C267.449 43.5733 266.982 43.2667 266.595 42.88C266.209 42.4933 266.015 42.0333 266.015 41.5C266.015 40.78 266.342 40.1533 266.995 39.62C267.649 39.0733 268.449 38.8 269.395 38.8C270.342 38.8 271.089 38.9667 271.635 39.3C272.195 39.62 272.475 39.96 272.475 40.32C272.475 40.76 272.242 40.98 271.775 40.98C271.575 40.98 271.375 40.9067 271.175 40.76C270.549 40.32 269.949 40.1 269.375 40.1C268.802 40.1 268.335 40.2333 267.975 40.5C267.615 40.7533 267.435 41.0533 267.435 41.4C267.435 41.7333 267.629 42.02 268.015 42.26C268.402 42.5 268.869 42.72 269.415 42.92C269.975 43.12 270.535 43.3467 271.095 43.6C271.655 43.84 272.129 44.18 272.515 44.62C272.902 45.0467 273.095 45.5467 273.095 46.12ZM283.217 44.16C283.217 45.16 283.29 45.98 283.437 46.62C283.584 47.2467 283.757 47.6 283.957 47.68C284.037 47.72 284.13 47.7467 284.237 47.76C284.357 47.7733 284.437 47.7933 284.477 47.82C284.53 47.8467 284.557 47.9 284.557 47.98C284.557 48.34 284.457 48.6333 284.257 48.86C284.07 49.0867 283.784 49.2 283.397 49.2C283.01 49.2 282.71 48.9533 282.497 48.46C282.284 47.9667 282.177 47.3333 282.177 46.56C281.844 47.3067 281.35 47.9333 280.697 48.44C280.057 48.9467 279.33 49.2 278.517 49.2C277.717 49.2 277.024 48.9333 276.437 48.4C275.37 47.4267 274.837 46.0333 274.837 44.22C274.837 42.7667 275.257 41.5 276.097 40.42C276.937 39.34 278.017 38.8 279.337 38.8C280.337 38.8 281.204 39.14 281.937 39.82C281.937 39.14 282.19 38.8 282.697 38.8C283.31 38.8 283.617 39.2733 283.617 40.22C283.617 41.1533 283.484 42.4667 283.217 44.16ZM282.057 44.34L281.957 41.26C281.157 40.4867 280.317 40.1 279.437 40.1C278.57 40.1 277.824 40.4933 277.197 41.28C276.57 42.0667 276.257 43.0133 276.257 44.12C276.257 45.2133 276.457 46.12 276.857 46.84C277.27 47.5467 277.85 47.9 278.597 47.9C279.344 47.9 280.024 47.5667 280.637 46.9C281.25 46.2333 281.724 45.38 282.057 44.34ZM32.1463 65.22L32.1063 69.96C32.1063 71.1733 32.153 71.9667 32.2463 72.34C32.353 72.7133 32.6197 72.9 33.0463 72.9C33.2463 72.9 33.4863 72.8333 33.7663 72.7C34.0597 72.5533 34.253 72.48 34.3463 72.48C34.6263 72.48 34.7663 72.62 34.7663 72.9C34.7663 73.1667 34.5197 73.4533 34.0263 73.76C33.533 74.0533 33.0463 74.2 32.5663 74.2C31.4063 74.2 30.8263 73.3467 30.8263 71.64L30.8063 65.22C30.3663 65.26 30.0597 65.28 29.8863 65.28C29.2197 65.28 28.8863 65.06 28.8863 64.62C28.8863 64.18 29.2197 63.96 29.8863 63.96C29.9397 63.96 30.233 63.9733 30.7663 64L30.7263 61.76C30.7263 61.0933 30.9797 60.76 31.4863 60.76C31.993 60.76 32.2463 61.0933 32.2463 61.76L32.1863 64.02L33.8063 63.94C34.473 63.94 34.8063 64.1667 34.8063 64.62C34.8063 65.0467 34.473 65.26 33.8063 65.26C33.6863 65.26 33.133 65.2467 32.1463 65.22ZM38.2446 65.44L38.0846 69.84C38.0846 70.7467 38.2779 71.4867 38.6646 72.06C39.0513 72.62 39.5846 72.9 40.2646 72.9C40.9579 72.9 41.6246 72.52 42.2646 71.76C42.9046 70.9867 43.3513 70.12 43.6046 69.16L43.5446 64.82C43.5446 64.14 43.7979 63.8 44.3046 63.8C44.9179 63.8 45.2246 64.2733 45.2246 65.22C45.2246 66.1533 45.0913 67.4667 44.8246 69.16C44.8246 70.16 44.8979 70.98 45.0446 71.62C45.1913 72.2467 45.3646 72.6 45.5646 72.68C45.6446 72.72 45.7379 72.7467 45.8446 72.76C45.9646 72.7733 46.0446 72.7933 46.0846 72.82C46.1379 72.8467 46.1646 72.9 46.1646 72.98C46.1646 73.34 46.0513 73.6333 45.8246 73.86C45.6113 74.0867 45.3379 74.2 45.0046 74.2C44.1646 74.2 43.7446 73.3467 43.7446 71.64C42.7579 73.3467 41.5179 74.2 40.0246 74.2C38.9579 74.2 38.1313 73.8067 37.5446 73.02C36.9579 72.22 36.6646 71.2467 36.6646 70.1L36.7846 67.08C36.7846 66.5467 36.7313 66.0533 36.6246 65.6C36.5179 65.1333 36.4646 64.8 36.4646 64.6C36.4646 64.4 36.5446 64.22 36.7046 64.06C36.8646 63.8867 37.0713 63.8 37.3246 63.8C37.9379 63.8 38.2446 64.3467 38.2446 65.44ZM60.5899 71.94C60.9233 71.94 61.0899 72.12 61.0899 72.48C61.0899 72.8267 60.7033 73.22 59.9299 73.66C59.1566 74.0867 58.3433 74.3 57.4899 74.3C56.0899 74.3 54.9233 73.7867 53.9899 72.76C53.0566 71.72 52.5899 70.4667 52.5899 69C52.5899 67.5333 53.0566 66.2867 53.9899 65.26C54.9366 64.22 56.1766 63.7 57.7099 63.7C58.5499 63.7 59.2899 63.8933 59.9299 64.28C60.5833 64.6533 60.9099 65.04 60.9099 65.44C60.9099 65.6533 60.8433 65.8333 60.7099 65.98C60.5766 66.1133 60.4233 66.18 60.2499 66.18C60.0766 66.18 59.8766 66.08 59.6499 65.88C58.9566 65.2933 58.2499 65 57.5299 65C56.6099 65 55.8033 65.3867 55.1099 66.16C54.4299 66.9333 54.0899 67.8733 54.0899 68.98C54.0899 70.0867 54.4366 71.0333 55.1299 71.82C55.8233 72.6067 56.6833 73 57.7099 73C58.4966 73 59.2633 72.7333 60.0099 72.2C60.2633 72.0267 60.4566 71.94 60.5899 71.94ZM69.5899 71.82C70.2433 71.0333 70.5699 70.0867 70.5699 68.98C70.5699 67.8733 70.2566 66.9333 69.6299 66.16C69.0166 65.3867 68.2499 65 67.3299 65C66.4099 65 65.6233 65.3933 64.9699 66.18C64.3299 66.9667 64.0099 67.9133 64.0099 69.02C64.0099 70.1267 64.3166 71.0667 64.9299 71.84C65.5566 72.6133 66.3299 73 67.2499 73C68.1699 73 68.9499 72.6067 69.5899 71.82ZM67.2899 63.7C68.6633 63.7 69.7899 64.2133 70.6699 65.24C71.5499 66.2533 71.9899 67.5 71.9899 68.98C71.9899 70.46 71.5433 71.72 70.6499 72.76C69.7566 73.7867 68.6299 74.3 67.2699 74.3C65.9099 74.3 64.7899 73.7933 63.9099 72.78C63.0299 71.7533 62.5899 70.5 62.5899 69.02C62.5899 67.54 63.0299 66.2867 63.9099 65.26C64.8033 64.22 65.9299 63.7 67.2899 63.7ZM75.8804 69.42L75.9404 73.18C75.9404 73.86 75.6871 74.2 75.1804 74.2C74.5671 74.2 74.2604 73.7333 74.2604 72.8C74.2604 71.8533 74.3937 70.5333 74.6604 68.84C74.6604 68.28 74.6004 67.5133 74.4804 66.54C74.3737 65.5667 74.3204 64.96 74.3204 64.72C74.3204 64.48 74.3871 64.2667 74.5204 64.08C74.6671 63.8933 74.8604 63.8 75.1004 63.8C75.3404 63.8 75.5271 63.8933 75.6604 64.08C75.8071 64.2667 75.8804 64.4733 75.8804 64.7C75.8804 64.9133 75.8737 65.1933 75.8604 65.54C75.8604 65.8733 75.8604 66.1533 75.8604 66.38C76.1271 65.7 76.5404 65.1 77.1004 64.58C77.6737 64.06 78.2604 63.8 78.8604 63.8C79.4604 63.8 79.9204 63.9267 80.2404 64.18C80.5737 64.42 80.7404 64.68 80.7404 64.96C80.7404 65.24 80.6671 65.46 80.5204 65.62C80.3737 65.78 80.1804 65.86 79.9404 65.86C79.7137 65.86 79.4604 65.74 79.1804 65.5C78.9137 65.2467 78.7004 65.12 78.5404 65.12C78.1004 65.12 77.5871 65.5933 77.0004 66.54C76.4137 67.4867 76.0404 68.4467 75.8804 69.42ZM84.0445 69.42L84.1045 73.18C84.1045 73.86 83.8511 74.2 83.3445 74.2C82.7311 74.2 82.4245 73.7333 82.4245 72.8C82.4245 71.8533 82.5578 70.5333 82.8245 68.84C82.8245 68.28 82.7645 67.5133 82.6445 66.54C82.5378 65.5667 82.4845 64.96 82.4845 64.72C82.4845 64.48 82.5511 64.2667 82.6845 64.08C82.8311 63.8933 83.0245 63.8 83.2645 63.8C83.5045 63.8 83.6911 63.8933 83.8245 64.08C83.9711 64.2667 84.0445 64.4733 84.0445 64.7C84.0445 64.9133 84.0378 65.1933 84.0245 65.54C84.0245 65.8733 84.0245 66.1533 84.0245 66.38C84.2911 65.7 84.7045 65.1 85.2645 64.58C85.8378 64.06 86.4245 63.8 87.0245 63.8C87.6245 63.8 88.0845 63.9267 88.4045 64.18C88.7378 64.42 88.9045 64.68 88.9045 64.96C88.9045 65.24 88.8311 65.46 88.6845 65.62C88.5378 65.78 88.3445 65.86 88.1045 65.86C87.8778 65.86 87.6245 65.74 87.3445 65.5C87.0778 65.2467 86.8645 65.12 86.7045 65.12C86.2645 65.12 85.7511 65.5933 85.1645 66.54C84.5778 67.4867 84.2045 68.4467 84.0445 69.42ZM94.023 68.62C94.9297 68.62 95.6497 68.4667 96.183 68.16C96.7297 67.8533 97.003 67.44 97.003 66.92C97.003 66.4 96.823 65.9533 96.463 65.58C96.1164 65.1933 95.6164 65 94.963 65C94.083 65 93.343 65.3333 92.743 66C92.143 66.6533 91.7564 67.42 91.583 68.3C92.3164 68.5133 93.1297 68.62 94.023 68.62ZM94.783 63.7C95.863 63.7 96.7364 64 97.403 64.6C98.083 65.2 98.423 65.98 98.423 66.94C98.423 67.9 98.003 68.6333 97.163 69.14C96.3364 69.6333 95.3164 69.88 94.103 69.88C93.4097 69.88 92.563 69.78 91.563 69.58C91.643 70.5133 91.9897 71.32 92.603 72C93.2297 72.6667 93.923 73 94.683 73C95.1364 73 95.5564 72.94 95.943 72.82C96.3297 72.6867 96.623 72.5467 96.823 72.4C97.3564 71.9867 97.703 71.78 97.863 71.78C98.0364 71.78 98.1697 71.8333 98.263 71.94C98.3697 72.0333 98.423 72.1533 98.423 72.3C98.423 72.6733 98.0364 73.1 97.263 73.58C96.503 74.06 95.6764 74.3 94.783 74.3C93.3964 74.3 92.2964 73.8133 91.483 72.84C90.6697 71.8667 90.2297 70.6933 90.163 69.32C89.4564 69.1067 89.103 68.76 89.103 68.28C89.103 68.08 89.1564 67.9267 89.263 67.82C89.383 67.7 89.523 67.64 89.683 67.64C89.843 67.64 90.043 67.7 90.283 67.82C90.5764 66.62 91.1297 65.6333 91.943 64.86C92.7697 64.0867 93.7164 63.7 94.783 63.7ZM107.324 71.82C107.978 71.0333 108.304 70.0867 108.304 68.98C108.304 67.8733 107.991 66.9333 107.364 66.16C106.751 65.3867 105.984 65 105.064 65C104.144 65 103.358 65.3933 102.704 66.18C102.064 66.9667 101.744 67.9133 101.744 69.02C101.744 70.1267 102.051 71.0667 102.664 71.84C103.291 72.6133 104.064 73 104.984 73C105.904 73 106.684 72.6067 107.324 71.82ZM105.024 63.7C106.398 63.7 107.524 64.2133 108.404 65.24C109.284 66.2533 109.724 67.5 109.724 68.98C109.724 70.46 109.278 71.72 108.384 72.76C107.491 73.7867 106.364 74.3 105.004 74.3C103.644 74.3 102.524 73.7933 101.644 72.78C100.764 71.7533 100.324 70.5 100.324 69.02C100.324 67.54 100.764 66.2867 101.644 65.26C102.538 64.22 103.664 63.7 105.024 63.7ZM121.16 72.9C122.014 72.9 122.76 72.5067 123.4 71.72C124.054 70.9333 124.38 70.0133 124.38 68.96C124.38 67.8933 124.147 66.9867 123.68 66.24C123.214 65.48 122.58 65.1 121.78 65.1C120.38 65.1 119.227 66.2533 118.32 68.56V71.74C119.12 72.5133 120.067 72.9 121.16 72.9ZM117.08 70.2L117.1 69.44V69.12C117.1 68.56 117.04 67.74 116.92 66.66C116.8 65.58 116.74 64.9267 116.74 64.7C116.74 64.46 116.807 64.2533 116.94 64.08C117.087 63.8933 117.28 63.8 117.52 63.8C117.76 63.8 117.947 63.8933 118.08 64.08C118.227 64.2533 118.3 64.4533 118.3 64.68C118.3 64.9067 118.294 65.1933 118.28 65.54C118.28 65.8733 118.28 66.1533 118.28 66.38C118.72 65.5667 119.214 64.9333 119.76 64.48C120.307 64.0267 121.014 63.8 121.88 63.8C122.747 63.8 123.494 64.08 124.12 64.64C124.747 65.2 125.194 65.8467 125.46 66.58C125.727 67.3133 125.86 68.0467 125.86 68.78C125.86 70.2333 125.42 71.5 124.54 72.58C123.66 73.66 122.534 74.2 121.16 74.2C120.16 74.2 119.214 73.8733 118.32 73.22C118.294 74.8333 118.28 76.0267 118.28 76.8C118.28 77.5867 118.214 78.08 118.08 78.28C117.947 78.4933 117.74 78.6 117.46 78.6C117.18 78.6 116.947 78.48 116.76 78.24C116.587 78.0133 116.5 77.68 116.5 77.24C116.5 76.8 116.527 76.2733 116.58 75.66C116.634 75.06 116.714 74.2667 116.82 73.28C116.927 72.28 117.014 71.38 117.08 70.58V70.2ZM136.147 69.16C136.147 70.16 136.22 70.98 136.367 71.62C136.513 72.2467 136.687 72.6 136.887 72.68C136.967 72.72 137.06 72.7467 137.167 72.76C137.287 72.7733 137.367 72.7933 137.407 72.82C137.46 72.8467 137.487 72.9 137.487 72.98C137.487 73.34 137.387 73.6333 137.187 73.86C137 74.0867 136.713 74.2 136.327 74.2C135.94 74.2 135.64 73.9533 135.427 73.46C135.213 72.9667 135.107 72.3333 135.107 71.56C134.773 72.3067 134.28 72.9333 133.627 73.44C132.987 73.9467 132.26 74.2 131.447 74.2C130.647 74.2 129.953 73.9333 129.367 73.4C128.3 72.4267 127.767 71.0333 127.767 69.22C127.767 67.7667 128.187 66.5 129.027 65.42C129.867 64.34 130.947 63.8 132.267 63.8C133.267 63.8 134.133 64.14 134.867 64.82C134.867 64.14 135.12 63.8 135.627 63.8C136.24 63.8 136.547 64.2733 136.547 65.22C136.547 66.1533 136.413 67.4667 136.147 69.16ZM134.987 69.34L134.887 66.26C134.087 65.4867 133.247 65.1 132.367 65.1C131.5 65.1 130.753 65.4933 130.127 66.28C129.5 67.0667 129.187 68.0133 129.187 69.12C129.187 70.2133 129.387 71.12 129.787 71.84C130.2 72.5467 130.78 72.9 131.527 72.9C132.273 72.9 132.953 72.5667 133.567 71.9C134.18 71.2333 134.653 70.38 134.987 69.34ZM141.212 69.42L141.272 73.18C141.272 73.86 141.019 74.2 140.512 74.2C139.899 74.2 139.592 73.7333 139.592 72.8C139.592 71.8533 139.726 70.5333 139.992 68.84C139.992 68.28 139.932 67.5133 139.812 66.54C139.706 65.5667 139.652 64.96 139.652 64.72C139.652 64.48 139.719 64.2667 139.852 64.08C139.999 63.8933 140.192 63.8 140.432 63.8C140.672 63.8 140.859 63.8933 140.992 64.08C141.139 64.2667 141.212 64.4733 141.212 64.7C141.212 64.9133 141.206 65.1933 141.192 65.54C141.192 65.8733 141.192 66.1533 141.192 66.38C141.459 65.7 141.872 65.1 142.432 64.58C143.006 64.06 143.592 63.8 144.192 63.8C144.792 63.8 145.252 63.9267 145.572 64.18C145.906 64.42 146.072 64.68 146.072 64.96C146.072 65.24 145.999 65.46 145.852 65.62C145.706 65.78 145.512 65.86 145.272 65.86C145.046 65.86 144.792 65.74 144.512 65.5C144.246 65.2467 144.032 65.12 143.872 65.12C143.432 65.12 142.919 65.5933 142.332 66.54C141.746 67.4867 141.372 68.4467 141.212 69.42ZM155.522 69.16C155.522 70.16 155.595 70.98 155.742 71.62C155.888 72.2467 156.062 72.6 156.262 72.68C156.342 72.72 156.435 72.7467 156.542 72.76C156.662 72.7733 156.742 72.7933 156.782 72.82C156.835 72.8467 156.862 72.9 156.862 72.98C156.862 73.34 156.762 73.6333 156.562 73.86C156.375 74.0867 156.088 74.2 155.702 74.2C155.315 74.2 155.015 73.9533 154.802 73.46C154.588 72.9667 154.482 72.3333 154.482 71.56C154.148 72.3067 153.655 72.9333 153.002 73.44C152.362 73.9467 151.635 74.2 150.822 74.2C150.022 74.2 149.328 73.9333 148.742 73.4C147.675 72.4267 147.142 71.0333 147.142 69.22C147.142 67.7667 147.562 66.5 148.402 65.42C149.242 64.34 150.322 63.8 151.642 63.8C152.642 63.8 153.508 64.14 154.242 64.82C154.242 64.14 154.495 63.8 155.002 63.8C155.615 63.8 155.922 64.2733 155.922 65.22C155.922 66.1533 155.788 67.4667 155.522 69.16ZM154.362 69.34L154.262 66.26C153.462 65.4867 152.622 65.1 151.742 65.1C150.875 65.1 150.128 65.4933 149.502 66.28C148.875 67.0667 148.562 68.0133 148.562 69.12C148.562 70.2133 148.762 71.12 149.162 71.84C149.575 72.5467 150.155 72.9 150.902 72.9C151.648 72.9 152.328 72.5667 152.942 71.9C153.555 71.2333 154.028 70.38 154.362 69.34ZM171.713 69.16C171.713 70.16 171.786 70.98 171.933 71.62C172.08 72.2467 172.253 72.6 172.453 72.68C172.533 72.72 172.626 72.7467 172.733 72.76C172.853 72.7733 172.933 72.7933 172.973 72.82C173.026 72.8467 173.053 72.9 173.053 72.98C173.053 73.34 172.953 73.6333 172.753 73.86C172.566 74.0867 172.28 74.2 171.893 74.2C171.506 74.2 171.206 73.9533 170.993 73.46C170.78 72.9667 170.673 72.3333 170.673 71.56C170.34 72.3067 169.846 72.9333 169.193 73.44C168.553 73.9467 167.826 74.2 167.013 74.2C166.213 74.2 165.52 73.9333 164.933 73.4C163.866 72.4267 163.333 71.0333 163.333 69.22C163.333 67.7667 163.753 66.5 164.593 65.42C165.433 64.34 166.513 63.8 167.833 63.8C168.833 63.8 169.7 64.14 170.433 64.82C170.433 64.14 170.686 63.8 171.193 63.8C171.806 63.8 172.113 64.2733 172.113 65.22C172.113 66.1533 171.98 67.4667 171.713 69.16ZM170.553 69.34L170.453 66.26C169.653 65.4867 168.813 65.1 167.933 65.1C167.066 65.1 166.32 65.4933 165.693 66.28C165.066 67.0667 164.753 68.0133 164.753 69.12C164.753 70.2133 164.953 71.12 165.353 71.84C165.766 72.5467 166.346 72.9 167.093 72.9C167.84 72.9 168.52 72.5667 169.133 71.9C169.746 71.2333 170.22 70.38 170.553 69.34ZM182.081 69.16L182.021 64.82C182.021 64.14 182.275 63.8 182.781 63.8C183.395 63.8 183.701 64.3 183.701 65.3C183.701 66.0867 183.561 67.3733 183.281 69.16C183.441 70.7867 183.521 72 183.521 72.8C183.521 74.5467 183.095 75.9467 182.241 77C181.388 78.0667 180.188 78.6 178.641 78.6C177.815 78.6 177.035 78.4267 176.301 78.08C175.568 77.7467 175.201 77.4067 175.201 77.06C175.201 76.7267 175.355 76.56 175.661 76.56C175.795 76.56 176.161 76.68 176.761 76.92C177.375 77.1733 178.001 77.3 178.641 77.3C179.761 77.3 180.648 76.9 181.301 76.1C181.955 75.3 182.281 74.2667 182.281 73C182.281 72.5333 182.261 72.08 182.221 71.64C181.235 73.3467 179.995 74.2 178.501 74.2C177.435 74.2 176.608 73.8067 176.021 73.02C175.435 72.22 175.141 71.2467 175.141 70.1L175.261 67.08C175.261 66.5467 175.208 66.0533 175.101 65.6C174.995 65.1333 174.941 64.8 174.941 64.6C174.941 64.4 175.021 64.22 175.181 64.06C175.341 63.8867 175.548 63.8 175.801 63.8C176.415 63.8 176.721 64.3467 176.721 65.44L176.561 69.84C176.561 70.7467 176.755 71.4867 177.141 72.06C177.528 72.62 178.061 72.9 178.741 72.9C179.435 72.9 180.101 72.52 180.741 71.76C181.381 70.9867 181.828 70.12 182.081 69.16ZM188.088 65.44L187.928 69.84C187.928 70.7467 188.122 71.4867 188.508 72.06C188.895 72.62 189.428 72.9 190.108 72.9C190.802 72.9 191.468 72.52 192.108 71.76C192.748 70.9867 193.195 70.12 193.448 69.16L193.388 64.82C193.388 64.14 193.642 63.8 194.148 63.8C194.762 63.8 195.068 64.2733 195.068 65.22C195.068 66.1533 194.935 67.4667 194.668 69.16C194.668 70.16 194.742 70.98 194.888 71.62C195.035 72.2467 195.208 72.6 195.408 72.68C195.488 72.72 195.582 72.7467 195.688 72.76C195.808 72.7733 195.888 72.7933 195.928 72.82C195.982 72.8467 196.008 72.9 196.008 72.98C196.008 73.34 195.895 73.6333 195.668 73.86C195.455 74.0867 195.182 74.2 194.848 74.2C194.008 74.2 193.588 73.3467 193.588 71.64C192.602 73.3467 191.362 74.2 189.868 74.2C188.802 74.2 187.975 73.8067 187.388 73.02C186.802 72.22 186.508 71.2467 186.508 70.1L186.628 67.08C186.628 66.5467 186.575 66.0533 186.468 65.6C186.362 65.1333 186.308 64.8 186.308 64.6C186.308 64.4 186.388 64.22 186.548 64.06C186.708 63.8867 186.915 63.8 187.168 63.8C187.782 63.8 188.088 64.3467 188.088 65.44ZM205.15 69.44V66.26C204.35 65.4867 203.403 65.1 202.31 65.1C201.457 65.1 200.703 65.4933 200.05 66.28C199.41 67.0667 199.09 67.9933 199.09 69.06C199.09 70.1133 199.323 71.02 199.79 71.78C200.257 72.5267 200.89 72.9 201.69 72.9C203.09 72.9 204.243 71.7467 205.15 69.44ZM207.27 72.72C207.617 72.72 207.79 72.82 207.79 73.02C207.79 73.2733 207.697 73.5333 207.51 73.8C207.337 74.0667 207.057 74.2 206.67 74.2C206.283 74.2 205.977 73.9867 205.75 73.56C205.537 73.1333 205.383 72.4533 205.29 71.52C204.317 73.3067 203.083 74.2 201.59 74.2C200.723 74.2 199.977 73.92 199.35 73.36C198.723 72.8 198.277 72.1533 198.01 71.42C197.743 70.6867 197.61 69.9533 197.61 69.22C197.61 67.7667 198.05 66.5 198.93 65.42C199.81 64.34 200.937 63.8 202.31 63.8C203.31 63.8 204.257 64.1267 205.15 64.78C205.177 62.9267 205.19 61.5733 205.19 60.72C205.19 59.8533 205.25 59.32 205.37 59.12C205.503 58.9067 205.71 58.8 205.99 58.8C206.283 58.8 206.517 58.92 206.69 59.16C206.877 59.3867 206.97 59.7267 206.97 60.18C206.97 60.6333 206.943 61.1933 206.89 61.86C206.837 62.5133 206.757 63.3867 206.65 64.48C206.543 65.56 206.457 66.54 206.39 67.42C206.39 69.0467 206.45 70.32 206.57 71.24C206.69 72.16 206.923 72.6533 207.27 72.72ZM217.768 69.16C217.768 70.16 217.841 70.98 217.988 71.62C218.134 72.2467 218.308 72.6 218.508 72.68C218.588 72.72 218.681 72.7467 218.788 72.76C218.908 72.7733 218.988 72.7933 219.028 72.82C219.081 72.8467 219.108 72.9 219.108 72.98C219.108 73.34 219.008 73.6333 218.808 73.86C218.621 74.0867 218.334 74.2 217.948 74.2C217.561 74.2 217.261 73.9533 217.048 73.46C216.834 72.9667 216.728 72.3333 216.728 71.56C216.394 72.3067 215.901 72.9333 215.248 73.44C214.608 73.9467 213.881 74.2 213.068 74.2C212.268 74.2 211.574 73.9333 210.988 73.4C209.921 72.4267 209.388 71.0333 209.388 69.22C209.388 67.7667 209.808 66.5 210.648 65.42C211.488 64.34 212.568 63.8 213.888 63.8C214.888 63.8 215.754 64.14 216.488 64.82C216.488 64.14 216.741 63.8 217.248 63.8C217.861 63.8 218.168 64.2733 218.168 65.22C218.168 66.1533 218.034 67.4667 217.768 69.16ZM216.608 69.34L216.508 66.26C215.708 65.4867 214.868 65.1 213.988 65.1C213.121 65.1 212.374 65.4933 211.748 66.28C211.121 67.0667 210.808 68.0133 210.808 69.12C210.808 70.2133 211.008 71.12 211.408 71.84C211.821 72.5467 212.401 72.9 213.148 72.9C213.894 72.9 214.574 72.5667 215.188 71.9C215.801 71.2333 216.274 70.38 216.608 69.34ZM222.834 69.42L222.894 73.18C222.894 73.86 222.64 74.2 222.134 74.2C221.52 74.2 221.214 73.7333 221.214 72.8C221.214 71.8533 221.347 70.5333 221.614 68.84C221.614 68.28 221.554 67.5133 221.434 66.54C221.327 65.5667 221.274 64.96 221.274 64.72C221.274 64.48 221.34 64.2667 221.474 64.08C221.62 63.8933 221.814 63.8 222.054 63.8C222.294 63.8 222.48 63.8933 222.614 64.08C222.76 64.2667 222.834 64.4733 222.834 64.7C222.834 64.9133 222.827 65.1933 222.814 65.54C222.814 65.8733 222.814 66.1533 222.814 66.38C223.08 65.7 223.494 65.1 224.054 64.58C224.627 64.06 225.214 63.8 225.814 63.8C226.414 63.8 226.874 63.9267 227.194 64.18C227.527 64.42 227.694 64.68 227.694 64.96C227.694 65.24 227.62 65.46 227.474 65.62C227.327 65.78 227.134 65.86 226.894 65.86C226.667 65.86 226.414 65.74 226.134 65.5C225.867 65.2467 225.654 65.12 225.494 65.12C225.054 65.12 224.54 65.5933 223.954 66.54C223.367 67.4867 222.994 68.4467 222.834 69.42ZM231.678 65.22L231.638 69.96C231.638 71.1733 231.684 71.9667 231.778 72.34C231.884 72.7133 232.151 72.9 232.578 72.9C232.778 72.9 233.018 72.8333 233.298 72.7C233.591 72.5533 233.784 72.48 233.878 72.48C234.158 72.48 234.298 72.62 234.298 72.9C234.298 73.1667 234.051 73.4533 233.558 73.76C233.064 74.0533 232.578 74.2 232.098 74.2C230.938 74.2 230.358 73.3467 230.358 71.64L230.338 65.22C229.898 65.26 229.591 65.28 229.418 65.28C228.751 65.28 228.418 65.06 228.418 64.62C228.418 64.18 228.751 63.96 229.418 63.96C229.471 63.96 229.764 63.9733 230.298 64L230.258 61.76C230.258 61.0933 230.511 60.76 231.018 60.76C231.524 60.76 231.778 61.0933 231.778 61.76L231.718 64.02L233.338 63.94C234.004 63.94 234.338 64.1667 234.338 64.62C234.338 65.0467 234.004 65.26 233.338 65.26C233.218 65.26 232.664 65.2467 231.678 65.22ZM239.941 68.62C240.848 68.62 241.568 68.4667 242.101 68.16C242.648 67.8533 242.921 67.44 242.921 66.92C242.921 66.4 242.741 65.9533 242.381 65.58C242.034 65.1933 241.534 65 240.881 65C240.001 65 239.261 65.3333 238.661 66C238.061 66.6533 237.674 67.42 237.501 68.3C238.234 68.5133 239.048 68.62 239.941 68.62ZM240.701 63.7C241.781 63.7 242.654 64 243.321 64.6C244.001 65.2 244.341 65.98 244.341 66.94C244.341 67.9 243.921 68.6333 243.081 69.14C242.254 69.6333 241.234 69.88 240.021 69.88C239.328 69.88 238.481 69.78 237.481 69.58C237.561 70.5133 237.908 71.32 238.521 72C239.148 72.6667 239.841 73 240.601 73C241.054 73 241.474 72.94 241.861 72.82C242.248 72.6867 242.541 72.5467 242.741 72.4C243.274 71.9867 243.621 71.78 243.781 71.78C243.954 71.78 244.088 71.8333 244.181 71.94C244.288 72.0333 244.341 72.1533 244.341 72.3C244.341 72.6733 243.954 73.1 243.181 73.58C242.421 74.06 241.594 74.3 240.701 74.3C239.314 74.3 238.214 73.8133 237.401 72.84C236.588 71.8667 236.148 70.6933 236.081 69.32C235.374 69.1067 235.021 68.76 235.021 68.28C235.021 68.08 235.074 67.9267 235.181 67.82C235.301 67.7 235.441 67.64 235.601 67.64C235.761 67.64 235.961 67.7 236.201 67.82C236.494 66.62 237.048 65.6333 237.861 64.86C238.688 64.0867 239.634 63.7 240.701 63.7ZM259.428 69.16C259.428 70.16 259.501 70.98 259.648 71.62C259.795 72.2467 259.968 72.6 260.168 72.68C260.248 72.72 260.341 72.7467 260.448 72.76C260.568 72.7733 260.648 72.7933 260.688 72.82C260.741 72.8467 260.768 72.9 260.768 72.98C260.768 73.34 260.668 73.6333 260.468 73.86C260.281 74.0867 259.995 74.2 259.608 74.2C259.221 74.2 258.921 73.9533 258.708 73.46C258.495 72.9667 258.388 72.3333 258.388 71.56C258.055 72.3067 257.561 72.9333 256.908 73.44C256.268 73.9467 255.541 74.2 254.728 74.2C253.928 74.2 253.235 73.9333 252.648 73.4C251.581 72.4267 251.048 71.0333 251.048 69.22C251.048 67.7667 251.468 66.5 252.308 65.42C253.148 64.34 254.228 63.8 255.548 63.8C256.548 63.8 257.415 64.14 258.148 64.82C258.148 64.14 258.401 63.8 258.908 63.8C259.521 63.8 259.828 64.2733 259.828 65.22C259.828 66.1533 259.695 67.4667 259.428 69.16ZM258.268 69.34L258.168 66.26C257.368 65.4867 256.528 65.1 255.648 65.1C254.781 65.1 254.035 65.4933 253.408 66.28C252.781 67.0667 252.468 68.0133 252.468 69.12C252.468 70.2133 252.668 71.12 253.068 71.84C253.481 72.5467 254.061 72.9 254.808 72.9C255.555 72.9 256.235 72.5667 256.848 71.9C257.461 71.2333 257.935 70.38 258.268 69.34ZM92.9995 94.42L93.0595 98.18C93.0595 98.86 92.8062 99.2 92.2995 99.2C91.6862 99.2 91.3795 98.7333 91.3795 97.8C91.3795 96.8533 91.5129 95.5333 91.7795 93.84C91.7795 93.28 91.7195 92.5133 91.5995 91.54C91.4929 90.5667 91.4395 89.96 91.4395 89.72C91.4395 89.48 91.5062 89.2667 91.6395 89.08C91.7862 88.8933 91.9795 88.8 92.2195 88.8C92.4595 88.8 92.6462 88.8933 92.7795 89.08C92.9262 89.2667 92.9995 89.4733 92.9995 89.7C92.9995 89.9133 92.9929 90.1933 92.9795 90.54C92.9795 90.8733 92.9795 91.1533 92.9795 91.38C93.2462 90.7 93.6595 90.1 94.2195 89.58C94.7929 89.06 95.3795 88.8 95.9795 88.8C96.5795 88.8 97.0395 88.9267 97.3595 89.18C97.6929 89.42 97.8595 89.68 97.8595 89.96C97.8595 90.24 97.7862 90.46 97.6395 90.62C97.4929 90.78 97.2995 90.86 97.0595 90.86C96.8329 90.86 96.5795 90.74 96.2995 90.5C96.0329 90.2467 95.8195 90.12 95.6595 90.12C95.2195 90.12 94.7062 90.5933 94.1195 91.54C93.5329 92.4867 93.1595 93.4467 92.9995 94.42ZM102.978 93.62C103.885 93.62 104.605 93.4667 105.138 93.16C105.685 92.8533 105.958 92.44 105.958 91.92C105.958 91.4 105.778 90.9533 105.418 90.58C105.071 90.1933 104.571 90 103.918 90C103.038 90 102.298 90.3333 101.698 91C101.098 91.6533 100.711 92.42 100.538 93.3C101.271 93.5133 102.085 93.62 102.978 93.62ZM103.738 88.7C104.818 88.7 105.691 89 106.358 89.6C107.038 90.2 107.378 90.98 107.378 91.94C107.378 92.9 106.958 93.6333 106.118 94.14C105.291 94.6333 104.271 94.88 103.058 94.88C102.365 94.88 101.518 94.78 100.518 94.58C100.598 95.5133 100.945 96.32 101.558 97C102.185 97.6667 102.878 98 103.638 98C104.091 98 104.511 97.94 104.898 97.82C105.285 97.6867 105.578 97.5467 105.778 97.4C106.311 96.9867 106.658 96.78 106.818 96.78C106.991 96.78 107.125 96.8333 107.218 96.94C107.325 97.0333 107.378 97.1533 107.378 97.3C107.378 97.6733 106.991 98.1 106.218 98.58C105.458 99.06 104.631 99.3 103.738 99.3C102.351 99.3 101.251 98.8133 100.438 97.84C99.6248 96.8667 99.1848 95.6933 99.1181 94.32C98.4115 94.1067 98.0581 93.76 98.0581 93.28C98.0581 93.08 98.1115 92.9267 98.2181 92.82C98.3381 92.7 98.4781 92.64 98.6381 92.64C98.7981 92.64 98.9981 92.7 99.2381 92.82C99.5315 91.62 100.085 90.6333 100.898 89.86C101.725 89.0867 102.671 88.7 103.738 88.7ZM117.279 96.94C117.613 96.94 117.779 97.12 117.779 97.48C117.779 97.8267 117.393 98.22 116.619 98.66C115.846 99.0867 115.033 99.3 114.179 99.3C112.779 99.3 111.613 98.7867 110.679 97.76C109.746 96.72 109.279 95.4667 109.279 94C109.279 92.5333 109.746 91.2867 110.679 90.26C111.626 89.22 112.866 88.7 114.399 88.7C115.239 88.7 115.979 88.8933 116.619 89.28C117.273 89.6533 117.599 90.04 117.599 90.44C117.599 90.6533 117.533 90.8333 117.399 90.98C117.266 91.1133 117.113 91.18 116.939 91.18C116.766 91.18 116.566 91.08 116.339 90.88C115.646 90.2933 114.939 90 114.219 90C113.299 90 112.493 90.3867 111.799 91.16C111.119 91.9333 110.779 92.8733 110.779 93.98C110.779 95.0867 111.126 96.0333 111.819 96.82C112.513 97.6067 113.373 98 114.399 98C115.186 98 115.953 97.7333 116.699 97.2C116.953 97.0267 117.146 96.94 117.279 96.94ZM121.555 90.44L121.395 94.84C121.395 95.7467 121.588 96.4867 121.975 97.06C122.362 97.62 122.895 97.9 123.575 97.9C124.268 97.9 124.935 97.52 125.575 96.76C126.215 95.9867 126.662 95.12 126.915 94.16L126.855 89.82C126.855 89.14 127.108 88.8 127.615 88.8C128.228 88.8 128.535 89.2733 128.535 90.22C128.535 91.1533 128.402 92.4667 128.135 94.16C128.135 95.16 128.208 95.98 128.355 96.62C128.502 97.2467 128.675 97.6 128.875 97.68C128.955 97.72 129.048 97.7467 129.155 97.76C129.275 97.7733 129.355 97.7933 129.395 97.82C129.448 97.8467 129.475 97.9 129.475 97.98C129.475 98.34 129.362 98.6333 129.135 98.86C128.922 99.0867 128.648 99.2 128.315 99.2C127.475 99.2 127.055 98.3467 127.055 96.64C126.068 98.3467 124.828 99.2 123.335 99.2C122.268 99.2 121.442 98.8067 120.855 98.02C120.268 97.22 119.975 96.2467 119.975 95.1L120.095 92.08C120.095 91.5467 120.042 91.0533 119.935 90.6C119.828 90.1333 119.775 89.8 119.775 89.6C119.775 89.4 119.855 89.22 120.015 89.06C120.175 88.8867 120.382 88.8 120.635 88.8C121.248 88.8 121.555 89.3467 121.555 90.44ZM135.975 97.9C136.828 97.9 137.575 97.5067 138.215 96.72C138.868 95.9333 139.195 95.0133 139.195 93.96C139.195 92.8933 138.962 91.9867 138.495 91.24C138.028 90.48 137.395 90.1 136.595 90.1C135.195 90.1 134.042 91.2533 133.135 93.56V96.74C133.935 97.5133 134.882 97.9 135.975 97.9ZM131.895 95.2L131.915 94.44V94.12C131.915 93.56 131.855 92.74 131.735 91.66C131.615 90.58 131.555 89.9267 131.555 89.7C131.555 89.46 131.622 89.2533 131.755 89.08C131.902 88.8933 132.095 88.8 132.335 88.8C132.575 88.8 132.762 88.8933 132.895 89.08C133.042 89.2533 133.115 89.4533 133.115 89.68C133.115 89.9067 133.108 90.1933 133.095 90.54C133.095 90.8733 133.095 91.1533 133.095 91.38C133.535 90.5667 134.028 89.9333 134.575 89.48C135.122 89.0267 135.828 88.8 136.695 88.8C137.562 88.8 138.308 89.08 138.935 89.64C139.562 90.2 140.008 90.8467 140.275 91.58C140.542 92.3133 140.675 93.0467 140.675 93.78C140.675 95.2333 140.235 96.5 139.355 97.58C138.475 98.66 137.348 99.2 135.975 99.2C134.975 99.2 134.028 98.8733 133.135 98.22C133.108 99.8333 133.095 101.027 133.095 101.8C133.095 102.587 133.028 103.08 132.895 103.28C132.762 103.493 132.555 103.6 132.275 103.6C131.995 103.6 131.762 103.48 131.575 103.24C131.402 103.013 131.315 102.68 131.315 102.24C131.315 101.8 131.342 101.273 131.395 100.66C131.448 100.06 131.528 99.2667 131.635 98.28C131.742 97.28 131.828 96.38 131.895 95.58V95.2ZM147.021 93.62C147.928 93.62 148.648 93.4667 149.181 93.16C149.728 92.8533 150.001 92.44 150.001 91.92C150.001 91.4 149.821 90.9533 149.461 90.58C149.114 90.1933 148.614 90 147.961 90C147.081 90 146.341 90.3333 145.741 91C145.141 91.6533 144.754 92.42 144.581 93.3C145.314 93.5133 146.128 93.62 147.021 93.62ZM147.781 88.7C148.861 88.7 149.734 89 150.401 89.6C151.081 90.2 151.421 90.98 151.421 91.94C151.421 92.9 151.001 93.6333 150.161 94.14C149.334 94.6333 148.314 94.88 147.101 94.88C146.408 94.88 145.561 94.78 144.561 94.58C144.641 95.5133 144.988 96.32 145.601 97C146.228 97.6667 146.921 98 147.681 98C148.134 98 148.554 97.94 148.941 97.82C149.328 97.6867 149.621 97.5467 149.821 97.4C150.354 96.9867 150.701 96.78 150.861 96.78C151.034 96.78 151.168 96.8333 151.261 96.94C151.368 97.0333 151.421 97.1533 151.421 97.3C151.421 97.6733 151.034 98.1 150.261 98.58C149.501 99.06 148.674 99.3 147.781 99.3C146.394 99.3 145.294 98.8133 144.481 97.84C143.668 96.8667 143.228 95.6933 143.161 94.32C142.454 94.1067 142.101 93.76 142.101 93.28C142.101 93.08 142.154 92.9267 142.261 92.82C142.381 92.7 142.521 92.64 142.681 92.64C142.841 92.64 143.041 92.7 143.281 92.82C143.574 91.62 144.128 90.6333 144.941 89.86C145.768 89.0867 146.714 88.7 147.781 88.7ZM155.382 94.42L155.442 98.18C155.442 98.86 155.189 99.2 154.682 99.2C154.069 99.2 153.762 98.7333 153.762 97.8C153.762 96.8533 153.896 95.5333 154.162 93.84C154.162 93.28 154.102 92.5133 153.982 91.54C153.876 90.5667 153.822 89.96 153.822 89.72C153.822 89.48 153.889 89.2667 154.022 89.08C154.169 88.8933 154.362 88.8 154.602 88.8C154.842 88.8 155.029 88.8933 155.162 89.08C155.309 89.2667 155.382 89.4733 155.382 89.7C155.382 89.9133 155.376 90.1933 155.362 90.54C155.362 90.8733 155.362 91.1533 155.362 91.38C155.629 90.7 156.042 90.1 156.602 89.58C157.176 89.06 157.762 88.8 158.362 88.8C158.962 88.8 159.422 88.9267 159.742 89.18C160.076 89.42 160.242 89.68 160.242 89.96C160.242 90.24 160.169 90.46 160.022 90.62C159.876 90.78 159.682 90.86 159.442 90.86C159.216 90.86 158.962 90.74 158.682 90.5C158.416 90.2467 158.202 90.12 158.042 90.12C157.602 90.12 157.089 90.5933 156.502 91.54C155.916 92.4867 155.542 93.4467 155.382 94.42ZM169.692 94.16C169.692 95.16 169.765 95.98 169.912 96.62C170.058 97.2467 170.232 97.6 170.432 97.68C170.512 97.72 170.605 97.7467 170.712 97.76C170.832 97.7733 170.912 97.7933 170.952 97.82C171.005 97.8467 171.032 97.9 171.032 97.98C171.032 98.34 170.932 98.6333 170.732 98.86C170.545 99.0867 170.258 99.2 169.872 99.2C169.485 99.2 169.185 98.9533 168.972 98.46C168.758 97.9667 168.652 97.3333 168.652 96.56C168.318 97.3067 167.825 97.9333 167.172 98.44C166.532 98.9467 165.805 99.2 164.992 99.2C164.192 99.2 163.498 98.9333 162.912 98.4C161.845 97.4267 161.312 96.0333 161.312 94.22C161.312 92.7667 161.732 91.5 162.572 90.42C163.412 89.34 164.492 88.8 165.812 88.8C166.812 88.8 167.678 89.14 168.412 89.82C168.412 89.14 168.665 88.8 169.172 88.8C169.785 88.8 170.092 89.2733 170.092 90.22C170.092 91.1533 169.958 92.4667 169.692 94.16ZM168.532 94.34L168.432 91.26C167.632 90.4867 166.792 90.1 165.912 90.1C165.045 90.1 164.298 90.4933 163.672 91.28C163.045 92.0667 162.732 93.0133 162.732 94.12C162.732 95.2133 162.932 96.12 163.332 96.84C163.745 97.5467 164.325 97.9 165.072 97.9C165.818 97.9 166.498 97.5667 167.112 96.9C167.725 96.2333 168.198 95.38 168.532 94.34ZM174.757 94.42L174.817 98.18C174.817 98.86 174.564 99.2 174.057 99.2C173.444 99.2 173.137 98.7333 173.137 97.8C173.137 96.8533 173.271 95.5333 173.537 93.84C173.537 93.28 173.477 92.5133 173.357 91.54C173.251 90.5667 173.197 89.96 173.197 89.72C173.197 89.48 173.264 89.2667 173.397 89.08C173.544 88.8933 173.737 88.8 173.977 88.8C174.217 88.8 174.404 88.8933 174.537 89.08C174.684 89.2667 174.757 89.4733 174.757 89.7C174.757 89.9133 174.751 90.1933 174.737 90.54C174.737 90.8733 174.737 91.1533 174.737 91.38C175.004 90.7 175.417 90.1 175.977 89.58C176.551 89.06 177.137 88.8 177.737 88.8C178.337 88.8 178.797 88.9267 179.117 89.18C179.451 89.42 179.617 89.68 179.617 89.96C179.617 90.24 179.544 90.46 179.397 90.62C179.251 90.78 179.057 90.86 178.817 90.86C178.591 90.86 178.337 90.74 178.057 90.5C177.791 90.2467 177.577 90.12 177.417 90.12C176.977 90.12 176.464 90.5933 175.877 91.54C175.291 92.4867 174.917 93.4467 174.757 94.42ZM182.841 91.5L182.941 98.2C182.941 98.8667 182.688 99.2 182.181 99.2C181.675 99.2 181.421 98.8667 181.421 98.2L181.521 91.5L181.421 84.8C181.421 84.1333 181.675 83.8 182.181 83.8C182.688 83.8 182.941 84.1333 182.941 84.8L182.841 91.5ZM193.754 94.16C193.754 95.16 193.827 95.98 193.974 96.62C194.121 97.2467 194.294 97.6 194.494 97.68C194.574 97.72 194.667 97.7467 194.774 97.76C194.894 97.7733 194.974 97.7933 195.014 97.82C195.067 97.8467 195.094 97.9 195.094 97.98C195.094 98.34 194.994 98.6333 194.794 98.86C194.607 99.0867 194.321 99.2 193.934 99.2C193.547 99.2 193.247 98.9533 193.034 98.46C192.821 97.9667 192.714 97.3333 192.714 96.56C192.381 97.3067 191.887 97.9333 191.234 98.44C190.594 98.9467 189.867 99.2 189.054 99.2C188.254 99.2 187.561 98.9333 186.974 98.4C185.907 97.4267 185.374 96.0333 185.374 94.22C185.374 92.7667 185.794 91.5 186.634 90.42C187.474 89.34 188.554 88.8 189.874 88.8C190.874 88.8 191.741 89.14 192.474 89.82C192.474 89.14 192.727 88.8 193.234 88.8C193.847 88.8 194.154 89.2733 194.154 90.22C194.154 91.1533 194.021 92.4667 193.754 94.16ZM192.594 94.34L192.494 91.26C191.694 90.4867 190.854 90.1 189.974 90.1C189.107 90.1 188.361 90.4933 187.734 91.28C187.107 92.0667 186.794 93.0133 186.794 94.12C186.794 95.2133 186.994 96.12 187.394 96.84C187.807 97.5467 188.387 97.9 189.134 97.9C189.881 97.9 190.561 97.5667 191.174 96.9C191.787 96.2333 192.261 95.38 192.594 94.34ZM197.96 96.86C198.253 96.86 198.473 96.9667 198.62 97.18C198.767 97.38 198.84 97.64 198.84 97.96C198.84 98.2667 198.74 98.5533 198.54 98.82C198.353 99.0733 198.12 99.2 197.84 99.2C197.56 99.2 197.34 99.0933 197.18 98.88C197.033 98.6667 196.96 98.4067 196.96 98.1C196.96 97.78 197.053 97.4933 197.24 97.24C197.44 96.9867 197.68 96.86 197.96 96.86Z" fill="#9485AC"/>
</svg>
