<svg width="24" height="24" viewBox="0 0 24 24" fill="none" xmlns="http://www.w3.org/2000/svg">
<path fill-rule="evenodd" clip-rule="evenodd" d="M9 5C5.36364 5 2.25818 7.26182 1 10.4545C2.25818 13.6473 5.36364 15.9091 9 15.9091C12.6364 15.9091 15.7418 13.6473 17 10.4545C15.7418 7.26182 12.6364 5 9 5ZM9 14.0909C6.99273 14.0909 5.36364 12.4618 5.36364 10.4545C5.36364 8.44727 6.99273 6.81818 9 6.81818C11.0073 6.81818 12.6364 8.44727 12.6364 10.4545C12.6364 12.4618 11.0073 14.0909 9 14.0909ZM9 8.27273C7.79273 8.27273 6.81818 9.24727 6.81818 10.4545C6.81818 11.6618 7.79273 12.6364 9 12.6364C10.2073 12.6364 11.1818 11.6618 11.1818 10.4545C11.1818 9.24727 10.2073 8.27273 9 8.27273Z" fill="#DB6C9E"/>
</svg>
