<svg width="165" height="47" viewBox="0 0 165 47" fill="none" xmlns="http://www.w3.org/2000/svg">
<path d="M7.33984 9.04297C7.33984 8.66536 7.30729 8.39193 7.24219 8.22266C7.1901 8.05339 7.16406 7.89714 7.16406 7.75391C7.16406 7.55859 7.26823 7.39583 7.47656 7.26562C7.6849 7.13542 7.93229 7.07031 8.21875 7.07031C8.88281 7.07031 9.41667 7.24609 9.82031 7.59766C10.237 7.9362 10.4453 8.35286 10.4453 8.84766V21.9141C10.901 21.862 11.4154 21.7318 11.9883 21.5234C12.5742 21.3151 13.1732 21.0286 13.7852 20.6641C14.3971 20.2865 14.9896 19.8242 15.5625 19.2773C16.1484 18.7305 16.6693 18.0924 17.125 17.3633C17.5807 16.6341 17.9453 15.8138 18.2188 14.9023C18.5052 13.9779 18.6484 12.9557 18.6484 11.8359C18.6484 11.0807 18.5247 10.2995 18.2773 9.49219C18.043 8.6849 17.6654 7.94922 17.1445 7.28516C16.6237 6.62109 15.9466 6.07422 15.1133 5.64453C14.293 5.21484 13.2969 5 12.125 5C10.5234 5 9.14974 5.2474 8.00391 5.74219C6.85807 6.23698 5.92057 6.90104 5.19141 7.73438C4.47526 8.56771 3.94792 9.53776 3.60938 10.6445C3.27083 11.7383 3.10156 12.8971 3.10156 14.1211C3.10156 15.0065 3.17318 15.7552 3.31641 16.3672C3.47266 16.9661 3.64193 17.4609 3.82422 17.8516C4.00651 18.2292 4.17578 18.5091 4.33203 18.6914C4.48828 18.8737 4.57943 18.9779 4.60547 19.0039C4.82682 18.9388 4.98307 18.9648 5.07422 19.082C5.16536 19.1992 5.21094 19.3555 5.21094 19.5508C5.21094 19.7331 5.14583 20.0065 5.01562 20.3711C4.89844 20.7357 4.73568 21.0807 4.52734 21.4062C4.31901 21.7188 4.07812 21.9596 3.80469 22.1289C3.53125 22.2852 3.2513 22.2526 2.96484 22.0312C2.80859 21.888 2.56771 21.6276 2.24219 21.25C1.91667 20.8724 1.59115 20.3711 1.26562 19.7461C0.953125 19.1081 0.673177 18.3464 0.425781 17.4609C0.178385 16.5625 0.0546875 15.5273 0.0546875 14.3555C0.0546875 12.4805 0.347656 10.7878 0.933594 9.27734C1.51953 7.75391 2.33984 6.45182 3.39453 5.37109C4.46224 4.29036 5.73177 3.45703 7.20312 2.87109C8.67448 2.28516 10.3021 1.99219 12.0859 1.99219C13.5443 1.99219 14.8659 2.23307 16.0508 2.71484C17.2487 3.19661 18.2643 3.8737 19.0977 4.74609C19.944 5.60547 20.5951 6.63411 21.0508 7.83203C21.5065 9.02995 21.7344 10.3385 21.7344 11.7578C21.7344 13.5026 21.4219 15.1172 20.7969 16.6016C20.1719 18.0729 19.3385 19.3815 18.2969 20.5273C17.2552 21.6732 16.0508 22.6237 14.6836 23.3789C13.3294 24.1341 11.9167 24.6484 10.4453 24.9219V30.1953C10.4453 30.5339 10.3346 30.7682 10.1133 30.8984C9.89193 31.0417 9.63151 31.1133 9.33203 31.1133C9.09766 31.1133 8.86328 31.0807 8.62891 31.0156C8.39453 30.9505 8.17969 30.8659 7.98438 30.7617C7.80208 30.6576 7.64583 30.5339 7.51562 30.3906C7.39844 30.2604 7.33984 30.1172 7.33984 29.9609V9.04297ZM32.2422 18.3594C32.2422 19.1016 32.112 19.8633 31.8516 20.6445C31.6042 21.4258 31.2266 22.168 30.7188 22.8711C30.224 23.5612 29.6055 24.1862 28.8633 24.7461C28.1341 25.293 27.2878 25.7096 26.3242 25.9961C26.4544 26.3346 26.6237 26.6602 26.832 26.9727C27.0534 27.2721 27.3138 27.5326 27.6133 27.7539C27.9128 27.9753 28.2578 28.151 28.6484 28.2812C29.0521 28.4115 29.5143 28.4766 30.0352 28.4766C30.8164 28.4766 31.487 28.3333 32.0469 28.0469C32.6068 27.7474 33.0755 27.3568 33.4531 26.875C33.8438 26.3932 34.1562 25.8529 34.3906 25.2539C34.625 24.6549 34.8008 24.0495 34.918 23.4375C35.0091 22.9948 35.1914 22.7018 35.4648 22.5586C35.7513 22.4023 36.0378 22.3633 36.3242 22.4414C36.6237 22.5195 36.8776 22.6888 37.0859 22.9492C37.3073 23.1966 37.3984 23.4961 37.3594 23.8477C37.3073 24.2513 37.2161 24.7135 37.0859 25.2344C36.9688 25.7552 36.7865 26.2826 36.5391 26.8164C36.2917 27.3503 35.9727 27.8776 35.582 28.3984C35.2044 28.9062 34.7357 29.362 34.1758 29.7656C33.6159 30.1693 32.9583 30.4948 32.2031 30.7422C31.4479 30.9896 30.582 31.1133 29.6055 31.1133C28.694 31.1133 27.8086 30.931 26.9492 30.5664C26.1029 30.2148 25.3477 29.707 24.6836 29.043C24.0326 28.3659 23.5052 27.5391 23.1016 26.5625C22.7109 25.5729 22.5156 24.4531 22.5156 23.2031C22.5156 21.9401 22.6914 20.7682 23.043 19.6875C23.3945 18.5938 23.8568 17.6497 24.4297 16.8555C25.0026 16.0612 25.6536 15.4427 26.3828 15C27.112 14.5443 27.8607 14.3164 28.6289 14.3164C29.1888 14.3164 29.6901 14.4141 30.1328 14.6094C30.5885 14.8047 30.9727 15.0846 31.2852 15.4492C31.5977 15.8008 31.832 16.224 31.9883 16.7188C32.1576 17.2135 32.2422 17.7604 32.2422 18.3594ZM25.7969 23.0859C25.7969 23.2031 25.8034 23.3203 25.8164 23.4375C25.8294 23.5547 25.8359 23.6784 25.8359 23.8086C26.3307 23.5742 26.7799 23.2747 27.1836 22.9102C27.5872 22.5456 27.9323 22.1289 28.2188 21.6602C28.5052 21.1914 28.7266 20.6836 28.8828 20.1367C29.0391 19.5768 29.1172 18.9974 29.1172 18.3984C29.1172 17.9557 29.0391 17.6107 28.8828 17.3633C28.7396 17.1159 28.5378 16.9922 28.2773 16.9922C27.9518 16.9922 27.6589 17.1029 27.3984 17.3242C27.151 17.5456 26.9297 17.8385 26.7344 18.2031C26.5521 18.5547 26.3958 18.9583 26.2656 19.4141C26.1484 19.8568 26.0508 20.306 25.9727 20.7617C25.8945 21.2174 25.8424 21.6536 25.8164 22.0703C25.7904 22.474 25.7839 22.8125 25.7969 23.0859ZM31.3047 11.1914C31.6042 11.2174 31.9362 11.237 32.3008 11.25C32.6133 11.276 32.9909 11.2956 33.4336 11.3086C33.8763 11.3086 34.3711 11.3151 34.918 11.3281V4.55078C34.918 4.26432 34.8919 4.03646 34.8398 3.86719C34.8008 3.69792 34.7552 3.56771 34.7031 3.47656C34.6641 3.3724 34.6185 3.29427 34.5664 3.24219C34.5273 3.17708 34.5078 3.11198 34.5078 3.04688C34.5078 2.96875 34.5469 2.90365 34.625 2.85156C34.7031 2.79948 34.8073 2.75391 34.9375 2.71484C35.0677 2.67578 35.2044 2.64974 35.3477 2.63672C35.5039 2.61068 35.6536 2.59766 35.7969 2.59766C36.4609 2.59766 36.9818 2.77344 37.3594 3.125C37.75 3.46354 37.9453 3.8737 37.9453 4.35547V11.3672C39.1693 11.3672 40.4583 11.3542 41.8125 11.3281C43.1797 11.3021 44.5469 11.2565 45.9141 11.1914C46.0964 10.9961 46.2396 10.9245 46.3438 10.9766C46.4609 11.0286 46.5326 11.1523 46.5586 11.3477C46.5977 11.543 46.6042 11.7839 46.5781 12.0703C46.5521 12.3568 46.5 12.6367 46.4219 12.9102C46.3438 13.1706 46.2331 13.3984 46.0898 13.5938C45.9596 13.7891 45.8099 13.8867 45.6406 13.8867C44.0391 13.9258 42.6198 13.9518 41.3828 13.9648C40.1589 13.9648 39.013 13.9648 37.9453 13.9648V26.6406C37.9453 27.2917 38.069 27.7604 38.3164 28.0469C38.5638 28.3333 38.8958 28.4766 39.3125 28.4766C39.7161 28.4766 40.0612 28.3333 40.3477 28.0469C40.6471 27.7604 40.901 27.4023 41.1094 26.9727C41.3307 26.543 41.5065 26.0807 41.6367 25.5859C41.7799 25.0781 41.8971 24.6029 41.9883 24.1602C42.0664 23.7435 42.1966 23.444 42.3789 23.2617C42.5612 23.0664 42.75 22.9688 42.9453 22.9688C43.1016 22.9688 43.2643 23.0208 43.4336 23.125C43.6029 23.2161 43.7526 23.3398 43.8828 23.4961C44.026 23.6523 44.1367 23.8281 44.2148 24.0234C44.306 24.2188 44.3516 24.4141 44.3516 24.6094C44.3516 24.6354 44.3516 24.668 44.3516 24.707C44.3516 24.7461 44.3385 24.8047 44.3125 24.8828C44.1432 25.5469 43.9089 26.2435 43.6094 26.9727C43.3229 27.7018 42.9453 28.3724 42.4766 28.9844C42.0208 29.5964 41.474 30.1042 40.8359 30.5078C40.1979 30.9115 39.4492 31.1133 38.5898 31.1133C38.056 31.1133 37.5612 31.0286 37.1055 30.8594C36.6628 30.7031 36.2786 30.4427 35.9531 30.0781C35.6276 29.7266 35.3737 29.2708 35.1914 28.7109C35.0091 28.151 34.918 27.474 34.918 26.6797V13.9648C34.4753 13.9648 34.0781 13.9648 33.7266 13.9648C33.388 13.9518 33.1016 13.9388 32.8672 13.9258C32.5938 13.9128 32.3529 13.8997 32.1445 13.8867C31.832 13.8867 31.5586 13.75 31.3242 13.4766C31.0768 13.1901 30.9076 12.8776 30.8164 12.5391C30.7122 12.2005 30.6992 11.8945 30.7773 11.6211C30.8424 11.3346 31.0182 11.1914 31.3047 11.1914ZM70.8359 29.2383C70.9922 29.3424 71.0247 29.4987 70.9336 29.707C70.8424 29.9154 70.6732 30.1237 70.4258 30.332C70.1784 30.5534 69.8854 30.7422 69.5469 30.8984C69.2083 31.0547 68.8698 31.1263 68.5312 31.1133C68.2057 31.1003 67.8867 31.0026 67.5742 30.8203C67.2617 30.638 66.9818 30.3581 66.7344 29.9805C66.5 29.5898 66.3047 29.1081 66.1484 28.5352C66.0052 27.9622 65.9336 27.2786 65.9336 26.4844V7.96875C65.9336 7.21354 65.8555 6.6276 65.6992 6.21094C65.556 5.79427 65.3802 5.49479 65.1719 5.3125C64.9766 5.11719 64.7682 5.00651 64.5469 4.98047C64.3385 4.94141 64.1693 4.92188 64.0391 4.92188C63.8958 4.92188 63.7135 4.94141 63.4922 4.98047C63.2708 5.01953 63.056 5.14974 62.8477 5.37109C62.6523 5.57943 62.4831 5.91797 62.3398 6.38672C62.1966 6.84245 62.125 7.5 62.125 8.35938V29.9609C62.1641 29.9609 62.2031 29.9805 62.2422 30.0195C62.2943 30.0716 62.3203 30.1172 62.3203 30.1562C62.3203 30.2604 62.2422 30.3646 62.0859 30.4688C61.9427 30.5859 61.7604 30.6901 61.5391 30.7812C61.3177 30.8854 61.0638 30.9635 60.7773 31.0156C60.5039 31.0807 60.2435 31.1133 59.9961 31.1133C59.7357 31.1133 59.5013 31.0807 59.293 31.0156C59.0977 30.9505 59 30.7292 59 30.3516V7.96875C59 7.21354 58.9284 6.6276 58.7852 6.21094C58.6549 5.79427 58.4922 5.49479 58.2969 5.3125C58.1016 5.11719 57.8932 5.00651 57.6719 4.98047C57.4635 4.94141 57.2812 4.92188 57.125 4.92188C56.9948 4.92188 56.819 4.94141 56.5977 4.98047C56.3893 5.00651 56.181 5.11719 55.9727 5.3125C55.7643 5.49479 55.582 5.79427 55.4258 6.21094C55.2826 6.6276 55.2109 7.21354 55.2109 7.96875V25.6836C55.2109 27.4544 54.918 28.8021 54.332 29.7266C53.7461 30.651 52.8932 31.1133 51.7734 31.1133C51.3958 31.1133 51.0833 31.0482 50.8359 30.918C50.6016 30.7878 50.4128 30.625 50.2695 30.4297C50.1263 30.2344 50.0221 30.026 49.957 29.8047C49.9049 29.5833 49.8789 29.3815 49.8789 29.1992C49.8789 29.1081 49.9049 29.0495 49.957 29.0234C50.0221 28.9974 50.1068 28.9844 50.2109 28.9844C50.3151 28.9844 50.4323 28.9844 50.5625 28.9844C50.6927 28.9714 50.8294 28.9388 50.9727 28.8867C51.1029 28.8346 51.2331 28.7305 51.3633 28.5742C51.5065 28.418 51.6302 28.1901 51.7344 27.8906C51.8385 27.5911 51.9232 27.2135 51.9883 26.7578C52.0534 26.3021 52.0859 25.7422 52.0859 25.0781V8.35938C52.0859 7.1875 52.2292 6.19792 52.5156 5.39062C52.8151 4.58333 53.1992 3.92578 53.668 3.41797C54.1367 2.91016 54.6641 2.54557 55.25 2.32422C55.849 2.10286 56.4479 1.99219 57.0469 1.99219C57.2161 1.99219 57.444 2.01172 57.7305 2.05078C58.0169 2.07682 58.3294 2.14844 58.668 2.26562C59.0195 2.38281 59.3711 2.55208 59.7227 2.77344C60.0742 2.98177 60.4062 3.26823 60.7188 3.63281C60.9661 3.26823 61.2396 2.98177 61.5391 2.77344C61.8385 2.55208 62.1315 2.38281 62.418 2.26562C62.7174 2.14844 62.9974 2.07682 63.2578 2.05078C63.5312 2.01172 63.7656 1.99219 63.9609 1.99219C64.5859 1.99219 65.1979 2.10286 65.7969 2.32422C66.4089 2.54557 66.9492 2.91016 67.418 3.41797C67.8997 3.92578 68.2904 4.58333 68.5898 5.39062C68.8893 6.19792 69.0391 7.1875 69.0391 8.35938V26.1523C69.0391 26.569 69.0846 26.9466 69.1758 27.2852C69.2799 27.6107 69.4102 27.9036 69.5664 28.1641C69.7357 28.4115 69.931 28.6263 70.1523 28.8086C70.3737 28.9779 70.6016 29.1211 70.8359 29.2383ZM87.125 24.1602C87.2422 23.7435 87.3789 23.444 87.5352 23.2617C87.6914 23.0664 87.8737 22.9688 88.082 22.9688C88.2383 22.9688 88.401 23.0208 88.5703 23.125C88.7396 23.2161 88.8893 23.3398 89.0195 23.4961C89.1628 23.6523 89.2734 23.8281 89.3516 24.0234C89.4427 24.2188 89.4883 24.4141 89.4883 24.6094C89.4883 24.6354 89.4883 24.6875 89.4883 24.7656C89.4883 24.8438 89.4753 24.9219 89.4492 25C89.1107 26.1589 88.7135 27.1875 88.2578 28.0859C87.8151 28.9714 87.3333 29.7656 86.8125 30.4688C86.3047 31.1719 85.7773 31.7969 85.2305 32.3438C84.6836 32.9036 84.1367 33.418 83.5898 33.8867V40.8008C83.5898 41.8555 83.4661 42.7409 83.2188 43.457C82.9844 44.1862 82.6719 44.7721 82.2812 45.2148C81.8906 45.6706 81.4479 45.9961 80.9531 46.1914C80.4583 46.3867 79.957 46.4844 79.4492 46.4844C78.8893 46.4844 78.375 46.3607 77.9062 46.1133C77.4375 45.8789 77.0273 45.5534 76.6758 45.1367C76.3372 44.7201 76.0703 44.2318 75.875 43.6719C75.6927 43.112 75.6016 42.513 75.6016 41.875C75.6016 40.8594 75.7318 39.9609 75.9922 39.1797C76.2656 38.3984 76.6302 37.6823 77.0859 37.0312C77.5417 36.3802 78.069 35.7682 78.668 35.1953C79.2669 34.6354 79.8984 34.0625 80.5625 33.4766V28.3984C80.0807 29.2057 79.5208 29.8633 78.8828 30.3711C78.2448 30.8919 77.4961 31.1523 76.6367 31.1523C75.9727 31.1523 75.3737 31.0156 74.8398 30.7422C74.319 30.4688 73.8763 30.0846 73.5117 29.5898C73.1471 29.082 72.8672 28.4766 72.6719 27.7734C72.4896 27.0573 72.3984 26.263 72.3984 25.3906C72.3984 24.3359 72.4701 23.2747 72.6133 22.207C72.7695 21.1393 72.9388 20.1758 73.1211 19.3164C73.3294 18.3138 73.5703 17.3438 73.8438 16.4062C73.9089 16.237 73.9544 16.0677 73.9805 15.8984C74.0195 15.7161 74.0977 15.5534 74.2148 15.4102C74.332 15.2669 74.5143 15.1497 74.7617 15.0586C75.0221 14.9674 75.4193 14.9219 75.9531 14.9219C76.4479 14.9219 76.7669 15.013 76.9102 15.1953C77.0534 15.3646 77.1055 15.5664 77.0664 15.8008C77.0404 16.0352 76.9622 16.276 76.832 16.5234C76.7148 16.7708 76.6367 16.9727 76.5977 17.1289C76.4154 17.8711 76.2526 18.5482 76.1094 19.1602C75.9661 19.7721 75.8424 20.3906 75.7383 21.0156C75.6471 21.6276 75.5755 22.2721 75.5234 22.9492C75.4714 23.6133 75.4453 24.362 75.4453 25.1953C75.4453 26.2891 75.6016 27.1159 75.9141 27.6758C76.2396 28.2357 76.6953 28.5156 77.2812 28.5156C77.6849 28.5156 78.056 28.3659 78.3945 28.0664C78.7461 27.7669 79.0586 27.3698 79.332 26.875C79.6185 26.3672 79.8659 25.7943 80.0742 25.1562C80.2826 24.5052 80.4453 23.8281 80.5625 23.125V16.6797C80.5625 16.3021 80.5365 16.0286 80.4844 15.8594C80.4323 15.6901 80.4062 15.5339 80.4062 15.3906C80.4062 15.1953 80.5039 15.0391 80.6992 14.9219C80.9076 14.7917 81.1549 14.7266 81.4414 14.7266C82.1055 14.7266 82.6263 14.9023 83.0039 15.2539C83.3945 15.5924 83.5898 16.0026 83.5898 16.4844V30.5273C84.319 29.7201 84.9896 28.8021 85.6016 27.7734C86.2135 26.7448 86.7214 25.5404 87.125 24.1602ZM79.4492 43.9648C79.7617 43.9648 79.9961 43.8346 80.1523 43.5742C80.3086 43.3138 80.4128 43.0078 80.4648 42.6562C80.5299 42.3177 80.5625 41.9727 80.5625 41.6211C80.5625 41.2695 80.5625 40.9961 80.5625 40.8008V36.5234C79.9115 37.1745 79.3841 37.9102 78.9805 38.7305C78.5898 39.5508 78.3945 40.5599 78.3945 41.7578C78.3945 42.3828 78.4857 42.9036 78.668 43.3203C78.8633 43.75 79.1237 43.9648 79.4492 43.9648ZM101.383 17.9297H107.613V4.27734C107.613 2.85807 107.815 1.79036 108.219 1.07422C108.635 0.358073 109.13 0 109.703 0C109.99 0 110.257 0.0846354 110.504 0.253906C110.764 0.423177 110.992 0.625 111.188 0.859375C111.383 1.08073 111.533 1.3151 111.637 1.5625C111.754 1.79688 111.812 1.98568 111.812 2.12891C111.812 2.27214 111.754 2.35677 111.637 2.38281C111.533 2.39583 111.409 2.46745 111.266 2.59766C111.135 2.71484 111.012 2.95573 110.895 3.32031C110.79 3.6849 110.738 4.28385 110.738 5.11719V30.1953C110.738 30.5339 110.621 30.7682 110.387 30.8984C110.165 31.0417 109.905 31.1133 109.605 31.1133C109.371 31.1133 109.137 31.0807 108.902 31.0156C108.668 30.9505 108.453 30.8659 108.258 30.7617C108.076 30.6576 107.919 30.5339 107.789 30.3906C107.672 30.2604 107.613 30.1172 107.613 29.9609V20.7227H101.383V30.1953C101.383 30.5339 101.266 30.7682 101.031 30.8984C100.81 31.0417 100.549 31.1133 100.25 31.1133C100.016 31.1133 99.7812 31.0807 99.5469 31.0156C99.3125 30.9505 99.0977 30.8659 98.9023 30.7617C98.7201 30.6576 98.5638 30.5339 98.4336 30.3906C98.3164 30.2604 98.2578 30.1172 98.2578 29.9609V20.7227H95.4062C95.1979 20.7227 95.0026 20.6576 94.8203 20.5273C94.651 20.3971 94.5013 20.2344 94.3711 20.0391C94.2539 19.8307 94.1562 19.6094 94.0781 19.375C94.013 19.1406 93.9805 18.9193 93.9805 18.7109C93.9805 18.4896 94.026 18.3073 94.1172 18.1641C94.2214 18.0078 94.3711 17.9297 94.5664 17.9297H98.2578V5C97.0208 5 95.8815 5.20833 94.8398 5.625C93.8112 6.02865 92.9193 6.61458 92.1641 7.38281C91.4219 8.13802 90.8359 9.05599 90.4062 10.1367C89.9896 11.2174 89.7812 12.4284 89.7812 13.7695C89.7812 14.6159 89.8659 15.3776 90.0352 16.0547C90.2044 16.7318 90.4062 17.3112 90.6406 17.793C90.875 18.2617 91.1094 18.6263 91.3438 18.8867C91.5781 19.1471 91.7604 19.2773 91.8906 19.2773C92.0078 19.2773 92.0924 19.2448 92.1445 19.1797C92.1966 19.1146 92.2747 19.082 92.3789 19.082C92.4831 19.082 92.5482 19.1536 92.5742 19.2969C92.6003 19.4401 92.6133 19.5833 92.6133 19.7266C92.6133 20.1432 92.5286 20.5404 92.3594 20.918C92.1901 21.2826 91.9753 21.582 91.7148 21.8164C91.4674 22.0378 91.1875 22.1745 90.875 22.2266C90.5625 22.2786 90.263 22.2005 89.9766 21.9922C89.625 21.7448 89.2474 21.3932 88.8438 20.9375C88.4531 20.4688 88.0885 19.8958 87.75 19.2188C87.4245 18.5417 87.151 17.7604 86.9297 16.875C86.7214 15.9766 86.6172 14.9805 86.6172 13.8867C86.6172 12.4674 86.7995 11.1914 87.1641 10.0586C87.5417 8.91276 88.043 7.90365 88.668 7.03125C89.306 6.14583 90.0547 5.39062 90.9141 4.76562C91.7734 4.1276 92.6849 3.60677 93.6484 3.20312C94.625 2.78646 95.6341 2.48047 96.6758 2.28516C97.7305 2.08984 98.7656 1.99219 99.7812 1.99219C99.9896 1.99219 100.191 2.03776 100.387 2.12891C100.582 2.20703 100.751 2.32422 100.895 2.48047C101.038 2.6237 101.155 2.79948 101.246 3.00781C101.337 3.21615 101.383 3.4375 101.383 3.67188V17.9297ZM123.648 18.3594C123.648 19.1016 123.518 19.8633 123.258 20.6445C123.01 21.4258 122.633 22.168 122.125 22.8711C121.63 23.5612 121.012 24.1862 120.27 24.7461C119.54 25.293 118.694 25.7096 117.73 25.9961C117.861 26.3346 118.03 26.6602 118.238 26.9727C118.46 27.2721 118.72 27.5326 119.02 27.7539C119.319 27.9753 119.664 28.151 120.055 28.2812C120.458 28.4115 120.921 28.4766 121.441 28.4766C122.223 28.4766 122.893 28.3333 123.453 28.0469C124.013 27.7474 124.482 27.3568 124.859 26.875C125.25 26.3932 125.562 25.8529 125.797 25.2539C126.031 24.6549 126.207 24.0495 126.324 23.4375C126.415 22.9948 126.598 22.7018 126.871 22.5586C127.158 22.4023 127.444 22.3633 127.73 22.4414C128.03 22.5195 128.284 22.6888 128.492 22.9492C128.714 23.1966 128.805 23.4961 128.766 23.8477C128.714 24.2513 128.622 24.7135 128.492 25.2344C128.375 25.7552 128.193 26.2826 127.945 26.8164C127.698 27.3503 127.379 27.8776 126.988 28.3984C126.611 28.9062 126.142 29.362 125.582 29.7656C125.022 30.1693 124.365 30.4948 123.609 30.7422C122.854 30.9896 121.988 31.1133 121.012 31.1133C120.1 31.1133 119.215 30.931 118.355 30.5664C117.509 30.2148 116.754 29.707 116.09 29.043C115.439 28.3659 114.911 27.5391 114.508 26.5625C114.117 25.5729 113.922 24.4531 113.922 23.2031C113.922 21.9401 114.098 20.7682 114.449 19.6875C114.801 18.5938 115.263 17.6497 115.836 16.8555C116.409 16.0612 117.06 15.4427 117.789 15C118.518 14.5443 119.267 14.3164 120.035 14.3164C120.595 14.3164 121.096 14.4141 121.539 14.6094C121.995 14.8047 122.379 15.0846 122.691 15.4492C123.004 15.8008 123.238 16.224 123.395 16.7188C123.564 17.2135 123.648 17.7604 123.648 18.3594ZM117.203 23.0859C117.203 23.2031 117.21 23.3203 117.223 23.4375C117.236 23.5547 117.242 23.6784 117.242 23.8086C117.737 23.5742 118.186 23.2747 118.59 22.9102C118.993 22.5456 119.339 22.1289 119.625 21.6602C119.911 21.1914 120.133 20.6836 120.289 20.1367C120.445 19.5768 120.523 18.9974 120.523 18.3984C120.523 17.9557 120.445 17.6107 120.289 17.3633C120.146 17.1159 119.944 16.9922 119.684 16.9922C119.358 16.9922 119.065 17.1029 118.805 17.3242C118.557 17.5456 118.336 17.8385 118.141 18.2031C117.958 18.5547 117.802 18.9583 117.672 19.4141C117.555 19.8568 117.457 20.306 117.379 20.7617C117.301 21.2174 117.249 21.6536 117.223 22.0703C117.197 22.474 117.19 22.8125 117.203 23.0859ZM137.633 28.4766C138.036 28.4766 138.382 28.3333 138.668 28.0469C138.967 27.7604 139.221 27.4023 139.43 26.9727C139.651 26.543 139.827 26.0807 139.957 25.5859C140.1 25.0781 140.217 24.6029 140.309 24.1602C140.4 23.7435 140.53 23.444 140.699 23.2617C140.882 23.0664 141.077 22.9688 141.285 22.9688C141.441 22.9688 141.598 23.0208 141.754 23.125C141.923 23.2161 142.073 23.3398 142.203 23.4961C142.346 23.6523 142.457 23.8281 142.535 24.0234C142.626 24.2188 142.672 24.4141 142.672 24.6094C142.672 24.6354 142.672 24.668 142.672 24.707C142.672 24.7461 142.659 24.8047 142.633 24.8828C142.464 25.5469 142.229 26.2435 141.93 26.9727C141.643 27.7018 141.272 28.3724 140.816 28.9844C140.361 29.5964 139.807 30.1042 139.156 30.5078C138.518 30.9115 137.77 31.1133 136.91 31.1133C136.207 31.1133 135.595 30.9635 135.074 30.6641C134.553 30.3646 134.143 29.9674 133.844 29.4727C133.44 29.9284 132.952 30.3125 132.379 30.625C131.819 30.9505 131.161 31.1133 130.406 31.1133C129.625 31.1133 128.935 30.957 128.336 30.6445C127.75 30.332 127.255 29.9089 126.852 29.375C126.448 28.8281 126.142 28.1901 125.934 27.4609C125.738 26.7188 125.641 25.9245 125.641 25.0781C125.641 23.4115 125.908 21.9141 126.441 20.5859C126.975 19.2578 127.685 18.1315 128.57 17.207C129.456 16.2695 130.465 15.5534 131.598 15.0586C132.743 14.5638 133.928 14.3164 135.152 14.3164C135.699 14.3164 136.142 14.4661 136.48 14.7656C136.819 15.0651 136.988 15.4753 136.988 15.9961C136.988 16.3346 136.949 16.5755 136.871 16.7188C136.806 16.849 136.676 16.9141 136.48 16.9141C136.298 16.9141 136.109 16.901 135.914 16.875C135.719 16.849 135.517 16.8359 135.309 16.8359C134.553 16.8359 133.785 17.0052 133.004 17.3438C132.223 17.6693 131.513 18.1771 130.875 18.8672C130.25 19.5443 129.736 20.4102 129.332 21.4648C128.928 22.5065 128.727 23.75 128.727 25.1953C128.727 26.25 128.928 27.0638 129.332 27.6367C129.736 28.1966 130.289 28.4766 130.992 28.4766C131.539 28.4766 131.995 28.2747 132.359 27.8711C132.724 27.4544 133.017 26.9661 133.238 26.4062V20.2344C133.238 20.0391 133.225 19.8763 133.199 19.7461C133.186 19.6159 133.167 19.5052 133.141 19.4141C133.128 19.3229 133.115 19.2448 133.102 19.1797C133.089 19.1016 133.082 19.0299 133.082 18.9648C133.082 18.7565 133.18 18.5938 133.375 18.4766C133.583 18.3464 133.831 18.2812 134.117 18.2812C134.781 18.2812 135.309 18.457 135.699 18.8086C136.09 19.1471 136.285 19.5573 136.285 20.0391V26.6406C136.285 26.862 136.311 27.0833 136.363 27.3047C136.415 27.513 136.493 27.7083 136.598 27.8906C136.702 28.0599 136.839 28.2031 137.008 28.3203C137.19 28.4245 137.398 28.4766 137.633 28.4766ZM149.215 31.1133C148.746 31.1133 148.264 31.0417 147.77 30.8984C147.288 30.7552 146.845 30.5078 146.441 30.1562C146.051 29.8047 145.725 29.3424 145.465 28.7695C145.217 28.1836 145.094 27.4479 145.094 26.5625C145.094 25.2734 145.263 23.9128 145.602 22.4805C145.953 21.0352 146.454 19.4466 147.105 17.7148H144.059H143.609C143.596 18.1055 143.57 18.6003 143.531 19.1992C143.505 19.7982 143.453 20.4362 143.375 21.1133C143.297 21.7904 143.193 22.474 143.062 23.1641C142.945 23.8542 142.796 24.4922 142.613 25.0781C142.483 25.4948 142.275 25.7357 141.988 25.8008C141.715 25.8659 141.441 25.8203 141.168 25.6641C140.895 25.4948 140.673 25.2539 140.504 24.9414C140.335 24.6289 140.296 24.3034 140.387 23.9648C140.491 23.5612 140.582 23.0729 140.66 22.5C140.738 21.9141 140.797 21.3021 140.836 20.6641C140.888 20.013 140.927 19.3685 140.953 18.7305C140.979 18.0794 140.999 17.5 141.012 16.9922C140.517 16.7188 140.107 16.3737 139.781 15.957C139.456 15.5273 139.293 15.0195 139.293 14.4336C139.293 14.1602 139.345 13.9128 139.449 13.6914C139.566 13.457 139.716 13.2617 139.898 13.1055C140.081 12.9362 140.296 12.8125 140.543 12.7344C140.79 12.6432 141.044 12.5977 141.305 12.5977C141.539 12.5977 141.78 12.6302 142.027 12.6953C142.288 12.7604 142.529 12.8776 142.75 13.0469C142.984 13.2161 143.193 13.4375 143.375 13.7109C143.557 13.9844 143.707 14.3229 143.824 14.7266C144.15 14.7656 144.423 14.7982 144.645 14.8242C144.879 14.8372 145.074 14.8503 145.23 14.8633C145.387 14.8763 145.517 14.8828 145.621 14.8828C145.725 14.8828 145.829 14.8828 145.934 14.8828H148.023C148.141 14.8828 148.31 14.9544 148.531 15.0977C148.766 15.2409 148.993 15.4297 149.215 15.6641C149.436 15.8854 149.618 16.1263 149.762 16.3867C149.918 16.6471 149.977 16.8945 149.938 17.1289C149.938 17.207 149.892 17.3958 149.801 17.6953C149.71 17.9948 149.599 18.3724 149.469 18.8281C149.339 19.2839 149.195 19.8112 149.039 20.4102C148.883 20.9961 148.74 21.6146 148.609 22.2656C148.479 22.9167 148.368 23.5938 148.277 24.2969C148.186 24.987 148.141 25.6641 148.141 26.3281C148.141 26.6016 148.173 26.8685 148.238 27.1289C148.303 27.3893 148.401 27.6237 148.531 27.832C148.661 28.0273 148.824 28.1836 149.02 28.3008C149.228 28.418 149.469 28.4766 149.742 28.4766C150.198 28.4766 150.589 28.3333 150.914 28.0469C151.24 27.7604 151.513 27.4023 151.734 26.9727C151.956 26.543 152.132 26.0807 152.262 25.5859C152.405 25.0781 152.522 24.6029 152.613 24.1602C152.691 23.7435 152.822 23.444 153.004 23.2617C153.186 23.0664 153.375 22.9688 153.57 22.9688C153.727 22.9688 153.889 23.0208 154.059 23.125C154.228 23.2161 154.378 23.3398 154.508 23.4961C154.651 23.6523 154.762 23.8281 154.84 24.0234C154.931 24.2188 154.977 24.4141 154.977 24.6094C154.977 24.6745 154.97 24.7266 154.957 24.7656C154.944 24.8047 154.938 24.8438 154.938 24.8828C154.755 25.5469 154.514 26.2435 154.215 26.9727C153.928 27.7018 153.557 28.3724 153.102 28.9844C152.646 29.5964 152.099 30.1042 151.461 30.5078C150.823 30.9115 150.074 31.1133 149.215 31.1133ZM149.195 11.1914C149.495 11.2174 149.827 11.237 150.191 11.25C150.504 11.276 150.882 11.2956 151.324 11.3086C151.767 11.3086 152.262 11.3151 152.809 11.3281V4.55078C152.809 4.26432 152.783 4.03646 152.73 3.86719C152.691 3.69792 152.646 3.56771 152.594 3.47656C152.555 3.3724 152.509 3.29427 152.457 3.24219C152.418 3.17708 152.398 3.11198 152.398 3.04688C152.398 2.96875 152.438 2.90365 152.516 2.85156C152.594 2.79948 152.698 2.75391 152.828 2.71484C152.958 2.67578 153.095 2.64974 153.238 2.63672C153.395 2.61068 153.544 2.59766 153.688 2.59766C154.352 2.59766 154.872 2.77344 155.25 3.125C155.641 3.46354 155.836 3.8737 155.836 4.35547V11.3672C157.06 11.3672 158.349 11.3542 159.703 11.3281C161.07 11.3021 162.438 11.2565 163.805 11.1914C163.987 10.9961 164.13 10.9245 164.234 10.9766C164.352 11.0286 164.423 11.1523 164.449 11.3477C164.488 11.543 164.495 11.7839 164.469 12.0703C164.443 12.3568 164.391 12.6367 164.312 12.9102C164.234 13.1706 164.124 13.3984 163.98 13.5938C163.85 13.7891 163.701 13.8867 163.531 13.8867C161.93 13.9258 160.51 13.9518 159.273 13.9648C158.049 13.9648 156.904 13.9648 155.836 13.9648V26.6406C155.836 27.2917 155.96 27.7604 156.207 28.0469C156.454 28.3333 156.786 28.4766 157.203 28.4766C157.607 28.4766 157.952 28.3333 158.238 28.0469C158.538 27.7604 158.792 27.4023 159 26.9727C159.221 26.543 159.397 26.0807 159.527 25.5859C159.671 25.0781 159.788 24.6029 159.879 24.1602C159.957 23.7435 160.087 23.444 160.27 23.2617C160.452 23.0664 160.641 22.9688 160.836 22.9688C160.992 22.9688 161.155 23.0208 161.324 23.125C161.493 23.2161 161.643 23.3398 161.773 23.4961C161.917 23.6523 162.027 23.8281 162.105 24.0234C162.197 24.2188 162.242 24.4141 162.242 24.6094C162.242 24.6354 162.242 24.668 162.242 24.707C162.242 24.7461 162.229 24.8047 162.203 24.8828C162.034 25.5469 161.799 26.2435 161.5 26.9727C161.214 27.7018 160.836 28.3724 160.367 28.9844C159.911 29.5964 159.365 30.1042 158.727 30.5078C158.089 30.9115 157.34 31.1133 156.48 31.1133C155.947 31.1133 155.452 31.0286 154.996 30.8594C154.553 30.7031 154.169 30.4427 153.844 30.0781C153.518 29.7266 153.264 29.2708 153.082 28.7109C152.9 28.151 152.809 27.474 152.809 26.6797V13.9648C152.366 13.9648 151.969 13.9648 151.617 13.9648C151.279 13.9518 150.992 13.9388 150.758 13.9258C150.484 13.9128 150.243 13.8997 150.035 13.8867C149.723 13.8867 149.449 13.75 149.215 13.4766C148.967 13.1901 148.798 12.8776 148.707 12.5391C148.603 12.2005 148.59 11.8945 148.668 11.6211C148.733 11.3346 148.909 11.1914 149.195 11.1914Z" fill="#DE108D"/>
</svg>
