<svg width="14" height="16" viewBox="0 0 14 16" fill="none" xmlns="http://www.w3.org/2000/svg">
<path d="M11.2 4.8C11.9426 4.8 12.6548 5.05286 13.1799 5.50294C13.705 5.95303 14 6.56348 14 7.2V13.6C14 14.2365 13.705 14.847 13.1799 15.2971C12.6548 15.7471 11.9426 16 11.2 16H2.8C2.05739 16 1.3452 15.7471 0.820101 15.2971C0.294999 14.847 0 14.2365 0 13.6V7.2C0 6.56348 0.294999 5.95303 0.820101 5.50294C1.3452 5.05286 2.05739 4.8 2.8 4.8V3.6C2.8 2.64522 3.2425 1.72955 4.03015 1.05442C4.8178 0.379285 5.88609 0 7 0C8.11391 0 9.1822 0.379285 9.96985 1.05442C10.7575 1.72955 11.2 2.64522 11.2 3.6V4.8ZM2.8 5.6C2.30493 5.6 1.83014 5.76857 1.48007 6.06863C1.13 6.36869 0.933333 6.77565 0.933333 7.2V13.6C0.933333 14.0243 1.13 14.4313 1.48007 14.7314C1.83014 15.0314 2.30493 15.2 2.8 15.2H11.2C11.6951 15.2 12.1699 15.0314 12.5199 14.7314C12.87 14.4313 13.0667 14.0243 13.0667 13.6V7.2C13.0667 6.77565 12.87 6.36869 12.5199 6.06863C12.1699 5.76857 11.6951 5.6 11.2 5.6H2.8ZM10.2667 4.8V3.6C10.2667 2.85739 9.9225 2.1452 9.30988 1.6201C8.69726 1.095 7.86637 0.8 7 0.8C6.13363 0.8 5.30274 1.095 4.69012 1.6201C4.0775 2.1452 3.73333 2.85739 3.73333 3.6V4.8H10.2667ZM7 9.6C6.6287 9.6 6.2726 9.72643 6.01005 9.95147C5.7475 10.1765 5.6 10.4817 5.6 10.8C5.6 11.1183 5.7475 11.4235 6.01005 11.6485C6.2726 11.8736 6.6287 12 7 12C7.3713 12 7.7274 11.8736 7.98995 11.6485C8.2525 11.4235 8.4 11.1183 8.4 10.8C8.4 10.4817 8.2525 10.1765 7.98995 9.95147C7.7274 9.72643 7.3713 9.6 7 9.6ZM7 8.8C7.61884 8.8 8.21233 9.01071 8.64992 9.38579C9.0875 9.76086 9.33333 10.2696 9.33333 10.8C9.33333 11.3304 9.0875 11.8391 8.64992 12.2142C8.21233 12.5893 7.61884 12.8 7 12.8C6.38116 12.8 5.78767 12.5893 5.35008 12.2142C4.9125 11.8391 4.66667 11.3304 4.66667 10.8C4.66667 10.2696 4.9125 9.76086 5.35008 9.38579C5.78767 9.01071 6.38116 8.8 7 8.8Z" fill="#4B4B4B"/>
</svg>
