<svg width="27" height="22" viewBox="0 0 27 22" fill="none" xmlns="http://www.w3.org/2000/svg">
<path d="M12.0537 16.8367C12.0537 17.194 12.206 17.5366 12.4773 17.7892C12.7485 18.0418 13.1164 18.1837 13.5 18.1837C13.8836 18.1837 14.2515 18.0418 14.5227 17.7892C14.794 17.5366 14.9463 17.194 14.9463 16.8367C14.9463 16.4795 14.794 16.1369 14.5227 15.8843C14.2515 15.6317 13.8836 15.4898 13.5 15.4898C13.1164 15.4898 12.7485 15.6317 12.4773 15.8843C12.206 16.1369 12.0537 16.4795 12.0537 16.8367ZM12.5358 8.30612V13.4694C12.5358 13.5929 12.6442 13.6939 12.7768 13.6939H14.2232C14.3558 13.6939 14.4642 13.5929 14.4642 13.4694V8.30612C14.4642 8.18265 14.3558 8.08163 14.2232 8.08163H12.7768C12.6442 8.08163 12.5358 8.18265 12.5358 8.30612ZM26.8697 20.6531L14.3347 0.44898C14.1478 0.148724 13.8254 0 13.5 0C13.1746 0 12.8491 0.148724 12.6653 0.44898L0.130332 20.6531C-0.240294 21.2536 0.223742 22 0.964995 22H26.035C26.7763 22 27.2403 21.2536 26.8697 20.6531ZM3.26107 19.8702L13.5 3.36454L23.7389 19.8702H3.26107Z" fill="#F96363"/>
</svg>
